<svg xmlns="http://www.w3.org/2000/svg" xmlns:xlink="http://www.w3.org/1999/xlink" contentStyleType="text/css" data-diagram-type="DESCRIPTION" height="467.7083px" preserveAspectRatio="none" style="width:4230px;height:467px;" version="1.1" viewBox="0 0 4230 467" width="4230.2083px" zoomAndPan="magnify"><title>Diagramme de Cas d'Utilisation - Plateforme Cin&#233;Manga</title><defs><linearGradient id="gugcq1r4ihq3a0" x1="50%" x2="50%" y1="0%" y2="100%"><stop offset="0%" stop-color="#FFFFFF"/><stop offset="100%" stop-color="#EEEEEE"/></linearGradient><linearGradient id="gugcq1r4ihq3a1" x1="50%" x2="50%" y1="0%" y2="100%"><stop offset="0%" stop-color="#F18E3E"/><stop offset="100%" stop-color="#EC7211"/></linearGradient></defs><g><g class="title" data-source-line="3"><rect fill="url(#gugcq1r4ihq3a0)" height="46.1528" rx="4.1667" ry="4.1667" style="stroke:#EEEEEE;stroke-width:1.0417;" width="676.5137" x="1769.988" y="5.2083"/><text fill="#EC7211" font-family="'Verdana'" font-size="20.8333" font-weight="bold" lengthAdjust="spacing" textLength="655.6803" x="1780.4046" y="36.5702">Diagramme de Cas d'Utilisation - Plateforme Cin&#233;Manga</text></g><!--cluster Syst?me Cin?Manga--><g class="cluster" data-entity="Syst.me Cin.Manga" data-source-line="11" data-uid="ent0005" id="cluster_Syst.me Cin.Manga"><path d="M675.7917,216.1215 L825.0674,216.1215 A6.25,6.25 0 0 1 829.234,220.2882 L836.5257,247.9798 L3690.375,247.9798 A4.1667,4.1667 0 0 1 3694.5417,252.1465 L3694.5417,456.4548 A4.1667,4.1667 0 0 1 3690.375,460.6215 L675.7917,460.6215 A4.1667,4.1667 0 0 1 671.625,456.4548 L671.625,220.2882 A4.1667,4.1667 0 0 1 675.7917,216.1215" fill="none" style="stroke:#4E5D6C;stroke-width:2.0833;"/><line style="stroke:#4E5D6C;stroke-width:2.0833;" x1="671.625" x2="836.5257" y1="247.9798" y2="247.9798"/><text fill="#4E5D6C" font-family="'Verdana'" font-size="12.5" font-weight="bold" lengthAdjust="spacing" textLength="140.9424" x="681" y="235.9803">Syst&#232;me Cin&#233;Manga</text></g><!--entity UC1--><g class="entity" data-entity="UC1" data-source-line="14" data-uid="ent0006" id="entity_UC1"><ellipse cx="2970.5881" cy="280.6641" fill="url(#gugcq1r4ihq3a1)" rx="78.7548" ry="18.251" style="stroke:#EC7211;stroke-width:2.0833;"/><text fill="#FFFFFF" font-family="'Verdana'" font-size="12.5" lengthAdjust="spacing" textLength="130.8044" x="2905.1859" y="284.6141">Consulter les m&#233;dias</text></g><!--entity UC2--><g class="entity" data-entity="UC2" data-source-line="15" data-uid="ent0007" id="entity_UC2"><ellipse cx="3165.3746" cy="280.6673" fill="url(#gugcq1r4ihq3a1)" rx="79.9163" ry="18.4833" style="stroke:#EC7211;stroke-width:2.0833;"/><text fill="#FFFFFF" font-family="'Verdana'" font-size="12.5" lengthAdjust="spacing" textLength="133.4839" x="3098.6327" y="284.6172">Rechercher un m&#233;dia</text></g><!--entity UC3--><g class="entity" data-entity="UC3" data-source-line="16" data-uid="ent0008" id="entity_UC3"><ellipse cx="2781.0007" cy="423.7056" fill="url(#gugcq1r4ihq3a1)" rx="70.4799" ry="17.0945" style="stroke:#EC7211;stroke-width:2.0833;"/><text fill="#FFFFFF" font-family="'Verdana'" font-size="12.5" lengthAdjust="spacing" textLength="113.0554" x="2724.473" y="427.6556">Voir d&#233;tails m&#233;dia</text></g><!--entity UC4--><g class="entity" data-entity="UC4" data-source-line="17" data-uid="ent0009" id="entity_UC4"><ellipse cx="3498.7032" cy="280.6676" fill="url(#gugcq1r4ihq3a1)" rx="38.4116" ry="16.369" style="stroke:#EC7211;stroke-width:2.0833;"/><text fill="#FFFFFF" font-family="'Verdana'" font-size="12.5" lengthAdjust="spacing" textLength="57.8125" x="3469.797" y="284.6176">S'inscrire</text></g><!--entity UC5--><g class="entity" data-entity="UC5" data-source-line="18" data-uid="ent0010" id="entity_UC5"><ellipse cx="3625.792" cy="280.6624" fill="url(#gugcq1r4ihq3a1)" rx="52.4274" ry="16.7909" style="stroke:#EC7211;stroke-width:2.0833;"/><text fill="#FFFFFF" font-family="'Verdana'" font-size="12.5" lengthAdjust="spacing" textLength="81.9702" x="3584.8069" y="284.6124">Se connecter</text></g><!--entity UC6--><g class="entity" data-entity="UC6" data-source-line="19" data-uid="ent0011" id="entity_UC6"><ellipse cx="3352.8785" cy="280.6594" fill="url(#gugcq1r4ihq3a1)" rx="70.9514" ry="17.1004" style="stroke:#EC7211;stroke-width:2.0833;"/><text fill="#FFFFFF" font-family="'Verdana'" font-size="12.5" lengthAdjust="spacing" textLength="113.8672" x="3295.9449" y="284.6094">Contacter l'&#233;quipe</text></g><!--entity UC7--><g class="entity" data-entity="UC7" data-source-line="22" data-uid="ent0012" id="entity_UC7"><ellipse cx="2110.1717" cy="280.6634" fill="url(#gugcq1r4ihq3a1)" rx="61.7446" ry="16.969" style="stroke:#EC7211;stroke-width:2.0833;"/><text fill="#FFFFFF" font-family="'Verdana'" font-size="12.5" lengthAdjust="spacing" textLength="98.0164" x="2061.1635" y="284.6134">G&#233;rer son profil</text></g><!--entity UC8--><g class="entity" data-entity="UC8" data-source-line="23" data-uid="ent0013" id="entity_UC8"><ellipse cx="2780.9956" cy="280.6623" fill="url(#gugcq1r4ihq3a1)" rx="74.0581" ry="17.3116" style="stroke:#EC7211;stroke-width:2.0833;"/><text fill="#FFFFFF" font-family="'Verdana'" font-size="12.5" lengthAdjust="spacing" textLength="119.8181" x="2721.0866" y="284.6123">Ajouter aux favoris</text></g><!--entity UC9--><g class="entity" data-entity="UC9" data-source-line="24" data-uid="ent0014" id="entity_UC9"><ellipse cx="2598.7049" cy="280.6593" fill="url(#gugcq1r4ihq3a1)" rx="71.7882" ry="17.1108" style="stroke:#EC7211;stroke-width:2.0833;"/><text fill="#FFFFFF" font-family="'Verdana'" font-size="12.5" lengthAdjust="spacing" textLength="115.3076" x="2541.0511" y="284.6093">Retirer des favoris</text></g><!--entity UC10--><g class="entity" data-entity="UC10" data-source-line="25" data-uid="ent0015" id="entity_UC10"><ellipse cx="1933.0853" cy="280.6677" fill="url(#gugcq1r4ihq3a1)" rx="78.929" ry="18.2858" style="stroke:#EC7211;stroke-width:2.0833;"/><text fill="#FFFFFF" font-family="'Verdana'" font-size="12.5" lengthAdjust="spacing" textLength="131.2073" x="1867.4816" y="284.6177">Consulter ses favoris</text></g><!--entity UC11--><g class="entity" data-entity="UC11" data-source-line="26" data-uid="ent0016" id="entity_UC11"><ellipse cx="2269.545" cy="280.6593" fill="url(#gugcq1r4ihq3a1)" rx="61.4929" ry="16.9649" style="stroke:#EC7211;stroke-width:2.0833;"/><text fill="#FFFFFF" font-family="'Verdana'" font-size="12.5" lengthAdjust="spacing" textLength="97.583" x="2220.7535" y="284.6093">Noter un m&#233;dia</text></g><!--entity UC12--><g class="entity" data-entity="UC12" data-source-line="27" data-uid="ent0017" id="entity_UC12"><ellipse cx="2428.919" cy="280.6661" fill="url(#gugcq1r4ihq3a1)" rx="61.2731" ry="16.9613" style="stroke:#EC7211;stroke-width:2.0833;"/><text fill="#FFFFFF" font-family="'Verdana'" font-size="12.5" lengthAdjust="spacing" textLength="97.2046" x="2380.3167" y="284.6161">Se d&#233;connecter</text></g><!--entity UC13--><g class="entity" data-entity="UC13" data-source-line="30" data-uid="ent0018" id="entity_UC13"><ellipse cx="770.5821" cy="280.6629" fill="url(#gugcq1r4ihq3a1)" rx="82.5508" ry="19.0102" style="stroke:#EC7211;stroke-width:2.0833;"/><text fill="#FFFFFF" font-family="'Verdana'" font-size="12.5" lengthAdjust="spacing" textLength="139.5142" x="700.825" y="284.6129">Acc&#233;der au dashboard</text></g><!--entity UC14--><g class="entity" data-entity="UC14" data-source-line="31" data-uid="ent0019" id="entity_UC14"><ellipse cx="968.5042" cy="280.6661" fill="url(#gugcq1r4ihq3a1)" rx="78.7126" ry="18.2425" style="stroke:#EC7211;stroke-width:2.0833;"/><text fill="#FFFFFF" font-family="'Verdana'" font-size="12.5" lengthAdjust="spacing" textLength="130.7068" x="903.1508" y="284.6161">G&#233;rer les utilisateurs</text></g><!--entity UC15--><g class="entity" data-entity="UC15" data-source-line="32" data-uid="ent0020" id="entity_UC15"><ellipse cx="763.2966" cy="423.7037" fill="url(#gugcq1r4ihq3a1)" rx="74.8382" ry="17.4676" style="stroke:#EC7211;stroke-width:2.0833;"/><text fill="#FFFFFF" font-family="'Verdana'" font-size="12.5" lengthAdjust="spacing" textLength="121.6614" x="702.4659" y="427.6537">Cr&#233;er un utilisateur</text></g><!--entity UC16--><g class="entity" data-entity="UC16" data-source-line="33" data-uid="ent0021" id="entity_UC16"><ellipse cx="1170.5877" cy="423.7099" fill="url(#gugcq1r4ihq3a1)" rx="81.5877" ry="18.8175" style="stroke:#EC7211;stroke-width:2.0833;"/><text fill="#FFFFFF" font-family="'Verdana'" font-size="12.5" lengthAdjust="spacing" textLength="137.3169" x="1101.9293" y="427.6599">Modifier un utilisateur</text></g><!--entity UC17--><g class="entity" data-entity="UC17" data-source-line="34" data-uid="ent0022" id="entity_UC17"><ellipse cx="963.2961" cy="423.7078" fill="url(#gugcq1r4ihq3a1)" rx="88.7648" ry="20.253" style="stroke:#EC7211;stroke-width:2.0833;"/><text fill="#FFFFFF" font-family="'Verdana'" font-size="12.5" lengthAdjust="spacing" textLength="153.5156" x="886.5382" y="427.6578">D&#233;sactiver un utilisateur</text></g><!--entity UC18--><g class="entity" data-entity="UC18" data-source-line="35" data-uid="ent0023" id="entity_UC18"><ellipse cx="1149.7493" cy="280.6634" fill="url(#gugcq1r4ihq3a1)" rx="66.5409" ry="17.0419" style="stroke:#EC7211;stroke-width:2.0833;"/><text fill="#FFFFFF" font-family="'Verdana'" font-size="12.5" lengthAdjust="spacing" textLength="106.2744" x="1096.6121" y="284.6134">G&#233;rer les m&#233;dias</text></g><!--entity UC19--><g class="entity" data-entity="UC19" data-source-line="36" data-uid="ent0024" id="entity_UC19"><ellipse cx="1349.7457" cy="423.708" fill="url(#gugcq1r4ihq3a1)" rx="61.2873" ry="16.9615" style="stroke:#EC7211;stroke-width:2.0833;"/><text fill="#FFFFFF" font-family="'Verdana'" font-size="12.5" lengthAdjust="spacing" textLength="97.229" x="1301.1311" y="427.658">Cr&#233;er un m&#233;dia</text></g><!--entity UC20--><g class="entity" data-entity="UC20" data-source-line="37" data-uid="ent0025" id="entity_UC20"><ellipse cx="1710.1619" cy="423.7043" fill="url(#gugcq1r4ihq3a1)" rx="70.3806" ry="17.0933" style="stroke:#EC7211;stroke-width:2.0833;"/><text fill="#FFFFFF" font-family="'Verdana'" font-size="12.5" lengthAdjust="spacing" textLength="112.8845" x="1653.7196" y="427.6543">Modifier un m&#233;dia</text></g><!--entity UC21--><g class="entity" data-entity="UC21" data-source-line="38" data-uid="ent0026" id="entity_UC21"><ellipse cx="1525.794" cy="423.7095" fill="url(#gugcq1r4ihq3a1)" rx="77.8357" ry="18.0671" style="stroke:#EC7211;stroke-width:2.0833;"/><text fill="#FFFFFF" font-family="'Verdana'" font-size="12.5" lengthAdjust="spacing" textLength="128.6743" x="1461.4568" y="427.6595">Supprimer un m&#233;dia</text></g><!--entity UC22--><g class="entity" data-entity="UC22" data-source-line="39" data-uid="ent0027" id="entity_UC22"><ellipse cx="1339.3374" cy="280.6598" fill="url(#gugcq1r4ihq3a1)" rx="86.2333" ry="19.7467" style="stroke:#EC7211;stroke-width:2.0833;"/><text fill="#FFFFFF" font-family="'Verdana'" font-size="12.5" lengthAdjust="spacing" textLength="147.8455" x="1265.4147" y="284.6098">Consulter les messages</text></g><!--entity UC23--><g class="entity" data-entity="UC23" data-source-line="40" data-uid="ent0028" id="entity_UC23"><ellipse cx="1546.6267" cy="280.6614" fill="url(#gugcq1r4ihq3a1)" rx="84.5225" ry="19.4045" style="stroke:#EC7211;stroke-width:2.0833;"/><text fill="#FFFFFF" font-family="'Verdana'" font-size="12.5" lengthAdjust="spacing" textLength="143.988" x="1474.6326" y="284.6114">R&#233;pondre aux contacts</text></g><!--entity UC24--><g class="entity" data-entity="UC24" data-source-line="41" data-uid="ent0029" id="entity_UC24"><ellipse cx="1742.4582" cy="280.6631" fill="url(#gugcq1r4ihq3a1)" rx="75.3645" ry="17.5729" style="stroke:#EC7211;stroke-width:2.0833;"/><text fill="#FFFFFF" font-family="'Verdana'" font-size="12.5" lengthAdjust="spacing" textLength="122.9004" x="1681.008" y="284.6131">Voir les statistiques</text></g><!--entity visitor--><g class="entity" data-entity="visitor" data-source-line="6" data-uid="ent0002" id="entity_visitor"><ellipse cx="3413.2879" cy="79.7986" fill="url(#gugcq1r4ihq3a1)" rx="8.3333" ry="8.3333" style="stroke:#EC7211;stroke-width:1.0417;"/><path d="M3413.2879,88.1319 L3413.2879,116.2569 M3399.7463,96.4653 L3426.8296,96.4653 M3413.2879,116.2569 L3399.7463,131.8819 M3413.2879,116.2569 L3426.8296,131.8819" fill="none" style="stroke:#EC7211;stroke-width:1.0417;"/><text fill="#4E5D6C" font-family="'Verdana'" font-size="12.5" lengthAdjust="spacing" textLength="47.5342" x="3389.5208" y="151.7407">Visiteur</text></g><!--entity user--><g class="entity" data-entity="user" data-source-line="7" data-uid="ent0003" id="entity_user"><ellipse cx="2710.1674" cy="72.1944" fill="url(#gugcq1r4ihq3a1)" rx="8.3333" ry="8.3333" style="stroke:#EC7211;stroke-width:1.0417;"/><path d="M2710.1674,80.5278 L2710.1674,108.6528 M2696.6257,88.8611 L2723.7091,88.8611 M2710.1674,108.6528 L2696.6257,124.2778 M2710.1674,108.6528 L2723.7091,124.2778" fill="none" style="stroke:#EC7211;stroke-width:1.0417;"/><text fill="#4E5D6C" font-family="'Verdana'" font-size="12.5" lengthAdjust="spacing" textLength="64.0015" x="2678.1667" y="144.1366">Utilisateur</text><text fill="#4E5D6C" font-family="'Verdana'" font-size="12.5" lengthAdjust="spacing" textLength="58.4656" x="2678.1667" y="159.3282">Connect&#233;</text></g><!--entity admin--><g class="entity" data-entity="admin" data-source-line="8" data-uid="ent0004" id="entity_admin"><ellipse cx="1339.3394" cy="79.7986" fill="url(#gugcq1r4ihq3a1)" rx="8.3333" ry="8.3333" style="stroke:#EC7211;stroke-width:1.0417;"/><path d="M1339.3394,88.1319 L1339.3394,116.2569 M1325.7977,96.4653 L1352.8811,96.4653 M1339.3394,116.2569 L1325.7977,131.8819 M1339.3394,116.2569 L1352.8811,131.8819" fill="none" style="stroke:#EC7211;stroke-width:1.0417;"/><text fill="#4E5D6C" font-family="'Verdana'" font-size="12.5" lengthAdjust="spacing" textLength="93.158" x="1292.7604" y="151.7407">Administrateur</text></g><g class="entity" data-entity="GMN76" data-source-line="102" data-uid="ent0077" id="entity_GMN76"><path d="M3715.0208,251.6215 L3715.0208,309.6965 A4.1667,4.1667 0 0 0 3719.1875,313.8631 L3903.2227,313.8631 A4.1667,4.1667 0 0 0 3907.3894,309.6965 L3907.3894,257.8715 L3896.9727,247.4548 L3719.1875,247.4548 A4.1667,4.1667 0 0 0 3715.0208,251.6215" fill="#0073BB" style="stroke:#005C96;stroke-width:1.0417;"/><path d="M3896.9727,247.4548 L3896.9727,255.7882 A2.0833,2.0833 0 0 0 3899.0561,257.8715 L3907.3894,257.8715 L3896.9727,247.4548" fill="#0073BB" style="stroke:#005C96;stroke-width:1.0417;"/><text fill="#FFFFFF" font-family="'Verdana'" font-size="12.5" lengthAdjust="spacing" textLength="160.0769" x="3726.4792" y="270.4386">La notation n'est possible</text><text fill="#FFFFFF" font-family="'Verdana'" font-size="12.5" lengthAdjust="spacing" textLength="156.1035" x="3726.4792" y="285.6303">que sur la page de d&#233;tail</text><text fill="#FFFFFF" font-family="'Verdana'" font-size="12.5" lengthAdjust="spacing" textLength="69.6899" x="3726.4792" y="300.8219">d'un m&#233;dia</text></g><g class="entity" data-entity="GMN79" data-source-line="108" data-uid="ent0080" id="entity_GMN79"><path d="M3943.5313,251.6215 L3943.5313,309.6965 A4.1667,4.1667 0 0 0 3947.6979,313.8631 L4130.9763,313.8631 A4.1667,4.1667 0 0 0 4135.143,309.6965 L4135.143,257.8715 L4124.7263,247.4548 L3947.6979,247.4548 A4.1667,4.1667 0 0 0 3943.5313,251.6215" fill="#0073BB" style="stroke:#005C96;stroke-width:1.0417;"/><path d="M4124.7263,247.4548 L4124.7263,255.7882 A2.0833,2.0833 0 0 0 4126.8097,257.8715 L4135.143,257.8715 L4124.7263,247.4548" fill="#0073BB" style="stroke:#005C96;stroke-width:1.0417;"/><text fill="#FFFFFF" font-family="'Verdana'" font-size="12.5" lengthAdjust="spacing" textLength="159.3201" x="3954.9896" y="270.4386">L'ajout aux favoris se fait</text><text fill="#FFFFFF" font-family="'Verdana'" font-size="12.5" lengthAdjust="spacing" textLength="149.6826" x="3954.9896" y="285.6303">depuis la page de d&#233;tail</text><text fill="#FFFFFF" font-family="'Verdana'" font-size="12.5" lengthAdjust="spacing" textLength="58.4229" x="3954.9896" y="300.8219">du m&#233;dia</text></g><g class="entity" data-entity="GMN82" data-source-line="114" data-uid="ent0083" id="entity_GMN82"><path d="M331.5729,251.6215 L331.5729,309.6965 A4.1667,4.1667 0 0 0 335.7396,313.8631 L574.1816,313.8631 A4.1667,4.1667 0 0 0 578.3482,309.6965 L578.3482,257.8715 L567.9316,247.4548 L335.7396,247.4548 A4.1667,4.1667 0 0 0 331.5729,251.6215" fill="#0073BB" style="stroke:#005C96;stroke-width:1.0417;"/><path d="M567.9316,247.4548 L567.9316,255.7882 A2.0833,2.0833 0 0 0 570.0149,257.8715 L578.3482,257.8715 L567.9316,247.4548" fill="#0073BB" style="stroke:#005C96;stroke-width:1.0417;"/><text fill="#FFFFFF" font-family="'Verdana'" font-size="12.5" lengthAdjust="spacing" textLength="143.3228" x="343.0313" y="270.4386">L'administrateur h&#233;rite</text><text fill="#FFFFFF" font-family="'Verdana'" font-size="12.5" lengthAdjust="spacing" textLength="175.4761" x="343.0313" y="285.6303">de tous les droits utilisateur</text><text fill="#FFFFFF" font-family="'Verdana'" font-size="12.5" lengthAdjust="spacing" textLength="214.4836" x="343.0313" y="300.8219">plus les fonctions d'administration</text></g><!--link visitor to UC1--><g class="link" data-entity-1="visitor" data-entity-2="UC1" data-source-line="45" data-uid="lnk30" id="link_visitor_UC1"><path d="M3384.2188,119.9548 C3323.0729,128.9861 3177.7188,154.7048 3067.4583,207.7882 C3037.4688,222.2257 3012.0473,242.3168 2993.5473,258.5876" fill="none" id="visitor-to-UC1" style="stroke:#EC7211;stroke-width:3.125;"/><polygon fill="#EC7211" points="2988.8542,262.7153,2998.6456,259.6526,2992.7651,259.2756,2993.1421,253.3951,2988.8542,262.7153" style="stroke:#EC7211;stroke-width:3.125;"/></g><!--link visitor to UC2--><g class="link" data-entity-1="visitor" data-entity-2="UC2" data-source-line="46" data-uid="lnk31" id="link_visitor_UC2"><path d="M3383.8021,133.0798 C3353.2188,150.9965 3304.2292,180.3194 3263.2917,207.7882 C3236.6771,225.6423 3212.1314,243.8386 3192.5272,258.7448" fill="none" id="visitor-to-UC2" style="stroke:#EC7211;stroke-width:3.125;"/><polygon fill="#EC7211" points="3187.5521,262.5278,3197.5367,260.1702,3191.698,259.3753,3192.4929,253.5366,3187.5521,262.5278" style="stroke:#EC7211;stroke-width:3.125;"/></g><!--link visitor to UC3--><g class="link" data-entity-1="visitor" data-entity-2="UC3" data-source-line="47" data-uid="lnk32" id="link_visitor_UC3"><path d="M3442.5625,117.2257 C3578.2396,123.0486 4141.5521,150.5382 4192.4583,207.7882 C4223.7813,243.0173 4219.0313,274.9236 4192.4583,313.8611 C4152.3854,372.5903 4113.0833,357.6111 4043.5,372.1944 C3813.2396,420.4548 3088.75,423.2876 2857.875,422.923" fill="none" id="visitor-to-UC3" style="stroke:#EC7211;stroke-width:3.125;"/><polygon fill="#EC7211" points="2851.625,422.9132,2860.9934,427.0946,2856.8333,422.9214,2861.0066,418.7613,2851.625,422.9132" style="stroke:#EC7211;stroke-width:3.125;"/></g><!--link visitor to UC4--><g class="link" data-entity-1="visitor" data-entity-2="UC4" data-source-line="48" data-uid="lnk33" id="link_visitor_UC4"><path d="M3436.1875,159.8715 C3454.2708,194.5069 3475.5545,235.2795 3487.8774,258.8733" fill="none" id="visitor-to-UC4" style="stroke:#EC7211;stroke-width:3.125;"/><polygon fill="#EC7211" points="3490.7708,264.4132,3490.1239,254.1744,3488.3596,259.7966,3482.7374,258.0323,3490.7708,264.4132" style="stroke:#EC7211;stroke-width:3.125;"/></g><!--link visitor to UC5--><g class="link" data-entity-1="visitor" data-entity-2="UC5" data-source-line="49" data-uid="lnk34" id="link_visitor_UC5"><path d="M3442.7813,132.5798 C3472.3542,149.7361 3518.6042,178.184 3554.9583,207.7882 C3576.5521,225.3819 3594.4766,244.1737 3608.1224,259.4132" fill="none" id="visitor-to-UC5" style="stroke:#EC7211;stroke-width:3.125;"/><polygon fill="#EC7211" points="3612.2917,264.0694,3609.1419,254.3057,3608.8173,260.1893,3602.9337,259.8646,3612.2917,264.0694" style="stroke:#EC7211;stroke-width:3.125;"/></g><!--link visitor to UC6--><g class="link" data-entity-1="visitor" data-entity-2="UC6" data-source-line="50" data-uid="lnk35" id="link_visitor_UC6"><path d="M3397.1042,159.8715 C3384.5208,193.9444 3369.9368,233.4359 3361.0931,257.3734" fill="none" id="visitor-to-UC6" style="stroke:#EC7211;stroke-width:3.125;"/><polygon fill="#EC7211" points="3358.9271,263.2361,3366.0845,255.886,3360.7321,258.3505,3358.2676,252.9981,3358.9271,263.2361" style="stroke:#EC7211;stroke-width:3.125;"/></g><!--link user to UC1--><g class="link" data-entity-1="user" data-entity-2="UC1" data-source-line="53" data-uid="lnk36" id="link_user_UC1"><path d="M2747.6563,135.3194 C2781.3229,153.0486 2831.7604,180.6319 2873.7083,207.7882 C2900.7708,225.3194 2925.414,243.8913 2944.6744,258.9851" fill="none" id="user-to-UC1" style="stroke:#EC7211;stroke-width:3.125;"/><polygon fill="#EC7211" points="2949.5938,262.8403,2944.7848,253.7779,2945.4943,259.6276,2939.6446,260.3371,2949.5938,262.8403" style="stroke:#EC7211;stroke-width:3.125;"/></g><!--link user to UC2--><g class="link" data-entity-1="user" data-entity-2="UC2" data-source-line="54" data-uid="lnk37" id="link_user_UC2"><path d="M2747.7604,120.8819 C2814.6979,130.5382 2957.7708,155.8611 3067.4583,207.7882 C3097.5625,222.0382 3123.0971,241.9569 3141.8366,258.259" fill="none" id="user-to-UC2" style="stroke:#EC7211;stroke-width:3.125;"/><polygon fill="#EC7211" points="3146.5521,262.3611,3142.2137,253.0643,3142.6226,258.9427,3136.7442,259.3516,3146.5521,262.3611" style="stroke:#EC7211;stroke-width:3.125;"/></g><!--link user to UC3--><g class="link" data-entity-1="user" data-entity-2="UC3" data-source-line="55" data-uid="lnk38" id="link_user_UC3"><path d="M2747.875,119.3194 C2848.3438,127.9965 3130.9271,151.9132 3366.4167,167.1632 C3410.0729,169.9965 4122.75,176.0694 4152.875,207.7882 C4185.3438,241.9757 4184.8646,279.2361 4152.875,313.8611 C4063.9583,410.1111 3126.2708,421.2699 2857.9999,422.4991" fill="none" id="user-to-UC3" style="stroke:#EC7211;stroke-width:3.125;"/><polygon fill="#EC7211" points="2851.75,422.5278,2861.144,426.6514,2856.9583,422.5039,2861.1058,418.3182,2851.75,422.5278" style="stroke:#EC7211;stroke-width:3.125;"/></g><!--link user to UC7--><g class="link" data-entity-1="user" data-entity-2="UC7" data-source-line="56" data-uid="lnk39" id="link_user_UC7"><path d="M2672.6563,115.6632 C2583.875,116.2361 2355.8854,126.184 2189.3333,207.7882 C2162,221.184 2141.2546,242.1378 2126.963,258.8878" fill="none" id="user-to-UC7" style="stroke:#EC7211;stroke-width:3.125;"/><polygon fill="#EC7211" points="2122.9063,263.6423,2132.161,259.215,2126.2869,259.6802,2125.8216,253.8061,2122.9063,263.6423" style="stroke:#EC7211;stroke-width:3.125;"/></g><!--link user to UC8--><g class="link" data-entity-1="user" data-entity-2="UC8" data-source-line="57" data-uid="lnk40" id="link_user_UC8"><path d="M2732.3854,167.3507 C2746.6667,200.3298 2761.8096,235.2918 2771.4241,257.5105" fill="none" id="user-to-UC8" style="stroke:#EC7211;stroke-width:3.125;"/><polygon fill="#EC7211" points="2773.9063,263.2465,2774.0071,252.9878,2771.8378,258.4665,2766.3591,256.2972,2773.9063,263.2465" style="stroke:#EC7211;stroke-width:3.125;"/></g><!--link user to UC9--><g class="link" data-entity-1="user" data-entity-2="UC9" data-source-line="58" data-uid="lnk41" id="link_user_UC9"><path d="M2675.2083,167.3507 C2652.7396,200.3298 2628.5187,235.8623 2613.3833,258.0811" fill="none" id="user-to-UC9" style="stroke:#EC7211;stroke-width:3.125;"/><polygon fill="#EC7211" points="2609.8646,263.2465,2618.5862,257.8442,2612.7968,258.942,2611.699,253.1526,2609.8646,263.2465" style="stroke:#EC7211;stroke-width:3.125;"/></g><!--link user to UC10--><g class="link" data-entity-1="user" data-entity-2="UC10" data-source-line="59" data-uid="lnk42" id="link_user_UC10"><path d="M2672.5417,118.6319 C2547.75,127.6215 2148.625,159.559 2029.9583,207.7882 C1998.7292,220.4861 1973.044,241.3637 1954.8774,258.2699" fill="none" id="user-to-UC10" style="stroke:#EC7211;stroke-width:3.125;"/><polygon fill="#EC7211" points="1950.3021,262.5278,1960.0036,259.1912,1954.1148,258.9795,1954.3264,253.0908,1950.3021,262.5278" style="stroke:#EC7211;stroke-width:3.125;"/></g><!--link user to UC11--><g class="link" data-entity-1="user" data-entity-2="UC11" data-source-line="60" data-uid="lnk43" id="link_user_UC11"><path d="M2672.5104,119.6423 C2604.4896,127.4236 2458.1458,149.9965 2349.75,207.7882 C2322.8646,222.1215 2301.8734,242.6793 2287.1338,259.0959" fill="none" id="user-to-UC11" style="stroke:#EC7211;stroke-width:3.125;"/><polygon fill="#EC7211" points="2282.9583,263.7465,2292.3219,259.5543,2286.4379,259.871,2286.1212,253.987,2282.9583,263.7465" style="stroke:#EC7211;stroke-width:3.125;"/></g><!--link user to UC12--><g class="link" data-entity-1="user" data-entity-2="UC12" data-source-line="61" data-uid="lnk44" id="link_user_UC12"><path d="M2672.4792,129.2986 C2630.7188,144.8715 2562.2604,173.0278 2509.125,207.7882 C2484.0938,224.1632 2463.3849,243.6578 2448.1036,259.3245" fill="none" id="user-to-UC12" style="stroke:#EC7211;stroke-width:3.125;"/><polygon fill="#EC7211" points="2443.7396,263.7986,2453.2684,259.9968,2447.3763,260.0702,2447.3029,254.1781,2443.7396,263.7986" style="stroke:#EC7211;stroke-width:3.125;"/></g><!--link user to UC6--><g class="link" data-entity-1="user" data-entity-2="UC6" data-source-line="62" data-uid="lnk45" id="link_user_UC6"><path d="M2747.5938,115.8403 C2839.5938,116.6736 3082.4271,126.9965 3263.2917,207.7882 C3293.1458,221.1215 3317.1215,242.401 3333.6632,259.1718" fill="none" id="user-to-UC6" style="stroke:#EC7211;stroke-width:3.125;"/><polygon fill="#EC7211" points="3338.0521,263.6215,3334.4352,254.021,3334.3947,259.9134,3328.5022,259.8729,3338.0521,263.6215" style="stroke:#EC7211;stroke-width:3.125;"/></g><!--link admin to UC1--><g class="link" data-entity-1="admin" data-entity-2="UC1" data-source-line="65" data-uid="lnk46" id="link_admin_UC1"><path d="M1391.3542,117.3819 C1643.4688,124.1632 2731.9375,156.2153 2873.7083,207.7882 C2905.5833,219.3819 2931.4145,240.7343 2949.3833,258.0364" fill="none" id="admin-to-UC1" style="stroke:#EC7211;stroke-width:3.125;"/><polygon fill="#EC7211" points="2953.8854,262.3715,2950.0223,252.8674,2950.1336,258.7589,2944.2421,258.8703,2953.8854,262.3715" style="stroke:#EC7211;stroke-width:3.125;"/></g><!--link admin to UC2--><g class="link" data-entity-1="admin" data-entity-2="UC2" data-source-line="66" data-uid="lnk47" id="link_admin_UC2"><path d="M1391.6146,117.9653 C1671.8646,128.434 2986.5938,178.9132 3067.4583,207.7882 C3099.625,219.2778 3125.7673,240.6742 3143.9548,258.0075" fill="none" id="admin-to-UC2" style="stroke:#EC7211;stroke-width:3.125;"/><polygon fill="#EC7211" points="3148.4792,262.3194,3144.5672,252.8353,3144.7088,258.7262,3138.818,258.8678,3148.4792,262.3194" style="stroke:#EC7211;stroke-width:3.125;"/></g><!--link admin to UC3--><g class="link" data-entity-1="admin" data-entity-2="UC3" data-source-line="67" data-uid="lnk48" id="link_admin_UC3"><path d="M1287.2292,119.2882 C1136.8333,129.2048 710.1458,161.2465 669.5417,207.7882 C638.5521,243.3194 642.375,275.3298 669.5417,313.8611 C714.0104,376.934 757.2188,358.059 833.0833,372.1944 C880.1458,380.9757 2361.7098,413.5692 2704.7098,421.0171" fill="none" id="admin-to-UC3" style="stroke:#EC7211;stroke-width:3.125;"/><polygon fill="#EC7211" points="2710.9583,421.1528,2701.676,416.7835,2705.7512,421.0397,2701.4951,425.1149,2710.9583,421.1528" style="stroke:#EC7211;stroke-width:3.125;"/></g><!--link admin to UC7--><g class="link" data-entity-1="admin" data-entity-2="UC7" data-source-line="68" data-uid="lnk49" id="link_admin_UC7"><path d="M1391.5208,118.9861 C1532.1042,127.5694 1915.8229,155.2778 2029.9583,207.7882 C2057.9792,220.684 2079.1488,242.0375 2093.5447,258.9646" fill="none" id="admin-to-UC7" style="stroke:#EC7211;stroke-width:3.125;"/><polygon fill="#EC7211" points="2097.5938,263.7257,2094.6942,253.8847,2094.2195,259.7581,2088.3461,259.2835,2097.5938,263.7257" style="stroke:#EC7211;stroke-width:3.125;"/></g><!--link admin to UC8--><g class="link" data-entity-1="admin" data-entity-2="UC8" data-source-line="69" data-uid="lnk50" id="link_admin_UC8"><path d="M1391.5104,115.559 C1609.1667,114.1736 2444.7708,115.1423 2688.2917,207.7882 C2719.6875,219.7361 2744.7421,241.6659 2761.7108,258.9159" fill="none" id="admin-to-UC8" style="stroke:#EC7211;stroke-width:3.125;"/><polygon fill="#EC7211" points="2766.0938,263.3715,2762.4897,253.7662,2762.4413,259.6585,2756.5489,259.6101,2766.0938,263.3715" style="stroke:#EC7211;stroke-width:3.125;"/></g><!--link admin to UC9--><g class="link" data-entity-1="admin" data-entity-2="UC9" data-source-line="70" data-uid="lnk51" id="link_admin_UC9"><path d="M1391.5,116.1215 C1590.375,117.059 2300.2917,126.1736 2508.0833,207.7882 C2538.9167,219.9028 2563.325,241.7302 2579.8563,258.9281" fill="none" id="admin-to-UC9" style="stroke:#EC7211;stroke-width:3.125;"/><polygon fill="#EC7211" points="2584.1875,263.434,2580.6946,253.7877,2580.5781,259.6791,2574.6867,259.5626,2584.1875,263.434" style="stroke:#EC7211;stroke-width:3.125;"/></g><!--link admin to UC10--><g class="link" data-entity-1="admin" data-entity-2="UC10" data-source-line="71" data-uid="lnk52" id="link_admin_UC10"><path d="M1391.6458,117.9653 C1484.75,123.059 1683.7708,141.4757 1836.2083,207.7882 C1866.9271,221.1528 1892.4714,241.6648 1910.7735,258.3211" fill="none" id="admin-to-UC10" style="stroke:#EC7211;stroke-width:3.125;"/><polygon fill="#EC7211" points="1915.3958,262.5278,1911.2668,253.1361,1911.5439,259.0222,1905.6578,259.2993,1915.3958,262.5278" style="stroke:#EC7211;stroke-width:3.125;"/></g><!--link admin to UC11--><g class="link" data-entity-1="admin" data-entity-2="UC11" data-source-line="72" data-uid="lnk53" id="link_admin_UC11"><path d="M1391.3646,117.4548 C1553.3021,122.5069 2046.0833,142.9861 2190.375,207.7882 C2218.3125,220.3403 2239.1415,241.7325 2253.2457,258.7846" fill="none" id="admin-to-UC11" style="stroke:#EC7211;stroke-width:3.125;"/><polygon fill="#EC7211" points="2257.2292,263.6007,2254.4647,253.7209,2253.9096,259.5873,2248.0432,259.0322,2257.2292,263.6007" style="stroke:#EC7211;stroke-width:3.125;"/></g><!--link admin to UC12--><g class="link" data-entity-1="admin" data-entity-2="UC12" data-source-line="73" data-uid="lnk54" id="link_admin_UC12"><path d="M1391.6042,116.4444 C1573.2083,118.5069 2175.1667,131.1423 2349.75,207.7882 C2377.9583,220.1736 2398.9125,241.8715 2412.9437,258.9861" fill="none" id="admin-to-UC12" style="stroke:#EC7211;stroke-width:3.125;"/><polygon fill="#EC7211" points="2416.9063,263.8194,2414.1846,253.9278,2413.6041,259.7917,2407.7402,259.2112,2416.9063,263.8194" style="stroke:#EC7211;stroke-width:3.125;"/></g><!--link admin to UC6--><g class="link" data-entity-1="admin" data-entity-2="UC6" data-source-line="74" data-uid="lnk55" id="link_admin_UC6"><path d="M1391.4583,118.0798 C1694.5521,130.0069 3218.2396,190.7361 3263.2917,207.7882 C3294.2396,219.4965 3318.4528,241.6579 3334.6507,259.0017" fill="none" id="admin-to-UC6" style="stroke:#EC7211;stroke-width:3.125;"/><polygon fill="#EC7211" points="3338.9167,263.5694,3335.5629,253.8739,3335.3617,259.763,3329.4726,259.5618,3338.9167,263.5694" style="stroke:#EC7211;stroke-width:3.125;"/></g><!--link admin to UC13--><g class="link" data-entity-1="admin" data-entity-2="UC13" data-source-line="75" data-uid="lnk56" id="link_admin_UC13"><path d="M1287.0625,119.1007 C1198.3125,125.8403 1013.9792,146.6215 871.625,207.7882 C840.3854,221.2153 813.9585,241.36 794.6772,257.9329" fill="none" id="admin-to-UC13" style="stroke:#EC7211;stroke-width:3.125;"/><polygon fill="#EC7211" points="789.9375,262.0069,799.7631,259.0558,793.8873,258.6119,794.3311,252.7361,789.9375,262.0069" style="stroke:#EC7211;stroke-width:3.125;"/></g><!--link admin to UC14--><g class="link" data-entity-1="admin" data-entity-2="UC14" data-source-line="76" data-uid="lnk57" id="link_admin_UC14"><path d="M1287.3958,128.2048 C1230.7917,142.6319 1138.5417,169.6423 1065.375,207.7882 C1036.2292,222.9861 1011.152,242.5042 992.4333,258.4625" fill="none" id="admin-to-UC14" style="stroke:#EC7211;stroke-width:3.125;"/><polygon fill="#EC7211" points="987.6771,262.5173,997.5145,259.6059,991.6406,259.1383,992.1081,253.2644,987.6771,262.5173" style="stroke:#EC7211;stroke-width:3.125;"/></g><!--link admin to UC15--><g class="link" data-entity-1="admin" data-entity-2="UC15" data-source-line="77" data-uid="lnk58" id="link_admin_UC15"><path d="M1287.4167,117.6111 C1051.5417,125.059 90.6875,158.3507 51.8333,207.7882 C6.25,265.7986 15.3438,328.4444 74.75,372.1944 C123.2813,407.934 514.3031,418.5532 682.3864,421.5115" fill="none" id="admin-to-UC15" style="stroke:#EC7211;stroke-width:3.125;"/><polygon fill="#EC7211" points="688.6354,421.6215,679.3352,417.2905,683.4279,421.5298,679.1885,425.6225,688.6354,421.6215" style="stroke:#EC7211;stroke-width:3.125;"/></g><!--link admin to UC16--><g class="link" data-entity-1="admin" data-entity-2="UC16" data-source-line="78" data-uid="lnk59" id="link_admin_UC16"><path d="M1287.3958,115.6215 C1064.9688,114.3923 200.7813,115.6111 127.875,207.7882 C82.2604,265.4757 87.9375,327.8819 146.625,372.1944 C187.6146,403.1528 1019.5417,397.7153 1070.5833,403.4444 C1084.375,404.9965 1092.9721,406.2484 1106.7742,408.8422" fill="none" id="admin-to-UC16" style="stroke:#EC7211;stroke-width:3.125;"/><polygon fill="#EC7211" points="1112.9167,409.9965,1104.4725,404.17,1107.7979,409.0346,1102.9334,412.36,1112.9167,409.9965" style="stroke:#EC7211;stroke-width:3.125;"/></g><!--link admin to UC17--><g class="link" data-entity-1="admin" data-entity-2="UC17" data-source-line="79" data-uid="lnk60" id="link_admin_UC17"><path d="M1287.2813,115.4861 C1060.2396,113.6423 164.7083,112.4757 89.3333,207.7882 C43.6146,265.6111 51.5104,328.9548 111.2083,372.1944 C178.2813,420.7986 773.6667,394.3923 856,403.4444 C869.7292,404.9548 878.1943,406.1162 892.0901,408.5016" fill="none" id="admin-to-UC17" style="stroke:#EC7211;stroke-width:3.125;"/><polygon fill="#EC7211" points="898.25,409.559,889.7151,403.8663,893.1168,408.6778,888.3052,412.0794,898.25,409.559" style="stroke:#EC7211;stroke-width:3.125;"/></g><!--link admin to UC18--><g class="link" data-entity-1="admin" data-entity-2="UC18" data-source-line="80" data-uid="lnk61" id="link_admin_UC18"><path d="M1288.5313,159.8715 C1248.6042,194.3194 1200.0334,236.2252 1172.5542,259.9439" fill="none" id="admin-to-UC18" style="stroke:#EC7211;stroke-width:3.125;"/><polygon fill="#EC7211" points="1167.8229,264.0278,1177.6424,261.0562,1171.7656,260.6246,1172.1973,254.7478,1167.8229,264.0278" style="stroke:#EC7211;stroke-width:3.125;"/></g><!--link admin to UC19--><g class="link" data-entity-1="admin" data-entity-2="UC19" data-source-line="81" data-uid="lnk62" id="link_admin_UC19"><path d="M1287.2708,115.6528 C1071.1458,114.6215 252.4063,116.184 175.7917,198.4132 C123.1458,254.9236 121.9583,316.809 175.7917,372.1944 C218.1979,415.8298 1210.2813,395.3611 1270.5833,403.4444 C1282.9167,405.1007 1290.0546,406.4049 1302.0858,409.3529" fill="none" id="admin-to-UC19" style="stroke:#EC7211;stroke-width:3.125;"/><polygon fill="#EC7211" points="1308.1563,410.8403,1300.0422,404.5622,1303.0976,409.6008,1298.059,412.6561,1308.1563,410.8403" style="stroke:#EC7211;stroke-width:3.125;"/></g><!--link admin to UC20--><g class="link" data-entity-1="admin" data-entity-2="UC20" data-source-line="82" data-uid="lnk63" id="link_admin_UC20"><path d="M1287.0938,116.6736 C1087.3021,119.6632 379.5625,135.3298 313.2917,207.7882 C281.4792,242.5798 283.3958,277.4132 313.2917,313.8611 C397.4271,416.4236 474.2083,357.1423 606,372.1944 C1054.6875,423.4548 1173.3958,348.3923 1621.625,403.4444 C1635.0521,405.1007 1643.3399,406.4843 1656.5482,409.3489" fill="none" id="admin-to-UC20" style="stroke:#EC7211;stroke-width:3.125;"/><polygon fill="#EC7211" points="1662.6563,410.6736,1654.3774,404.6146,1657.5662,409.5697,1652.6111,412.7586,1662.6563,410.6736" style="stroke:#EC7211;stroke-width:3.125;"/></g><!--link admin to UC21--><g class="link" data-entity-1="admin" data-entity-2="UC21" data-source-line="83" data-uid="lnk64" id="link_admin_UC21"><path d="M1287.0938,115.9236 C1079.5313,116.0173 320.9375,121.6423 249.75,198.4132 C197.2396,255.0486 195.8646,316.8611 249.75,372.1944 C295.4688,419.1423 1363.7917,396.184 1428.9167,403.4444 C1442.8958,405.0069 1451.7208,406.3364 1465.5958,409.0551" fill="none" id="admin-to-UC21" style="stroke:#EC7211;stroke-width:3.125;"/><polygon fill="#EC7211" points="1471.7292,410.2569,1463.3303,404.3653,1466.618,409.2554,1461.7279,412.5431,1471.7292,410.2569" style="stroke:#EC7211;stroke-width:3.125;"/></g><!--link admin to UC22--><g class="link" data-entity-1="admin" data-entity-2="UC22" data-source-line="84" data-uid="lnk65" id="link_admin_UC22"><path d="M1339.3333,159.8715 C1339.3333,192.809 1339.3333,230.0382 1339.3333,254.5173" fill="none" id="admin-to-UC22" style="stroke:#EC7211;stroke-width:3.125;"/><polygon fill="#EC7211" points="1339.3333,260.7673,1343.5,251.3923,1339.3333,255.559,1335.1667,251.3923,1339.3333,260.7673" style="stroke:#EC7211;stroke-width:3.125;"/></g><!--link admin to UC23--><g class="link" data-entity-1="admin" data-entity-2="UC23" data-source-line="85" data-uid="lnk66" id="link_admin_UC23"><path d="M1391.375,157.1007 C1433.9479,190.7048 1487.2187,232.7393 1518.8854,257.7289" fill="none" id="admin-to-UC23" style="stroke:#EC7211;stroke-width:3.125;"/><polygon fill="#EC7211" points="1523.7917,261.6007,1519.0134,252.5221,1519.7031,258.3742,1513.851,259.0639,1523.7917,261.6007" style="stroke:#EC7211;stroke-width:3.125;"/></g><!--link admin to UC24--><g class="link" data-entity-1="admin" data-entity-2="UC24" data-source-line="86" data-uid="lnk67" id="link_admin_UC24"><path d="M1391.5417,125.2882 C1455.0938,137.9132 1564.4688,164.1111 1649.75,207.7882 C1678.75,222.6423 1703.1,242.764 1720.7458,258.9307" fill="none" id="admin-to-UC24" style="stroke:#EC7211;stroke-width:3.125;"/><polygon fill="#EC7211" points="1725.3542,263.1528,1721.2564,253.7475,1721.5139,259.6344,1715.627,259.8919,1725.3542,263.1528" style="stroke:#EC7211;stroke-width:3.125;"/></g><!--link UC14 to UC15--><g class="link" data-entity-1="UC14" data-entity-2="UC15" data-source-line="89" data-uid="lnk68" id="link_UC14_UC15"><path d="M944.1563,298.4236 C904.3438,325.7778 830.9745,376.1659 791.8078,403.0721" fill="none" id="UC14-to-UC15" style="stroke:#EC7211;stroke-width:3.125;stroke-dasharray:7.2917,7.2917;"/><polygon fill="#EC7211" points="786.6563,406.6111,796.7429,404.737,790.9492,403.662,792.0243,397.8683,786.6563,406.6111" style="stroke:#EC7211;stroke-width:3.125;"/><text fill="#4E5D6C" font-family="'Verdana'" font-size="12.5" lengthAdjust="spacing" textLength="44.4275" x="878.3021" y="363.9282">include</text></g><!--link UC14 to UC16--><g class="link" data-entity-1="UC14" data-entity-2="UC16" data-source-line="90" data-uid="lnk69" id="link_UC14_UC16"><path d="M992.4792,298.4236 C1031.0521,325.3403 1101.416,374.4098 1140.5618,401.7223" fill="none" id="UC14-to-UC16" style="stroke:#EC7211;stroke-width:3.125;stroke-dasharray:7.2917,7.2917;"/><polygon fill="#EC7211" points="1145.6875,405.2986,1140.3831,396.5171,1141.4161,402.3184,1135.6148,403.3513,1145.6875,405.2986" style="stroke:#EC7211;stroke-width:3.125;"/><text fill="#4E5D6C" font-family="'Verdana'" font-size="12.5" lengthAdjust="spacing" textLength="44.4275" x="1099.8333" y="363.9282">include</text></g><!--link UC14 to UC17--><g class="link" data-entity-1="UC14" data-entity-2="UC17" data-source-line="91" data-uid="lnk70" id="link_UC14_UC17"><path d="M967.8542,299.2673 C966.875,325.6944 965.2601,369.2403 964.2497,396.8132" fill="none" id="UC14-to-UC17" style="stroke:#EC7211;stroke-width:3.125;stroke-dasharray:7.2917,7.2917;"/><polygon fill="#EC7211" points="964.0208,403.059,968.528,393.8429,964.2116,397.8542,960.2003,393.5377,964.0208,403.059" style="stroke:#EC7211;stroke-width:3.125;"/><text fill="#4E5D6C" font-family="'Verdana'" font-size="12.5" lengthAdjust="spacing" textLength="44.4275" x="972.3021" y="363.9282">include</text></g><!--link UC18 to UC19--><g class="link" data-entity-1="UC18" data-entity-2="UC19" data-source-line="93" data-uid="lnk71" id="link_UC18_UC19"><path d="M1171.5313,297.059 C1210.1042,324.2465 1284.8499,376.9164 1323.1832,403.9373" fill="none" id="UC18-to-UC19" style="stroke:#EC7211;stroke-width:3.125;stroke-dasharray:7.2917,7.2917;"/><polygon fill="#EC7211" points="1328.2917,407.5382,1323.0296,398.7312,1324.0346,404.5374,1318.2284,405.5425,1328.2917,407.5382" style="stroke:#EC7211;stroke-width:3.125;"/><text fill="#4E5D6C" font-family="'Verdana'" font-size="12.5" lengthAdjust="spacing" textLength="44.4275" x="1279.7917" y="363.9282">include</text></g><!--link UC18 to UC20--><g class="link" data-entity-1="UC18" data-entity-2="UC20" data-source-line="94" data-uid="lnk72" id="link_UC18_UC20"><path d="M1182.0521,295.8611 C1197.8021,302.2465 1217.1875,309.3507 1235.1667,313.8611 C1337.5313,339.5694 1367.6354,321.8298 1470.5833,345.1111 C1544.1354,361.7569 1621.5021,388.9896 1667.95,406.4063" fill="none" id="UC18-to-UC20" style="stroke:#EC7211;stroke-width:3.125;stroke-dasharray:7.2917,7.2917;"/><polygon fill="#EC7211" points="1673.8021,408.6007,1666.4868,401.4077,1668.9253,406.772,1663.561,409.2105,1673.8021,408.6007" style="stroke:#EC7211;stroke-width:3.125;"/><text fill="#4E5D6C" font-family="'Verdana'" font-size="12.5" lengthAdjust="spacing" textLength="44.4275" x="1570.1979" y="363.9282">include</text></g><!--link UC18 to UC21--><g class="link" data-entity-1="UC18" data-entity-2="UC21" data-source-line="95" data-uid="lnk73" id="link_UC18_UC21"><path d="M1184.8854,295.5278 C1200.2396,301.4132 1218.5104,308.2153 1235.1667,313.8611 C1280.5208,329.2569 1293.1979,328.9965 1338.2917,345.1111 C1392.5313,364.4965 1448.2495,388.2261 1485.5724,404.674" fill="none" id="UC18-to-UC21" style="stroke:#EC7211;stroke-width:3.125;stroke-dasharray:7.2917,7.2917;"/><polygon fill="#EC7211" points="1491.2917,407.1944,1484.3931,399.6009,1486.5256,405.0941,1481.0325,407.2266,1491.2917,407.1944" style="stroke:#EC7211;stroke-width:3.125;"/><text fill="#4E5D6C" font-family="'Verdana'" font-size="12.5" lengthAdjust="spacing" textLength="44.4275" x="1412.25" y="363.9282">include</text></g><!--link UC11 to UC3--><g class="link" data-entity-1="UC11" data-entity-2="UC3" data-source-line="98" data-uid="lnk74" id="link_UC11_UC3"><path d="M2301.1875,295.5278 C2315.8021,301.6215 2333.4896,308.5798 2349.75,313.8611 C2484.3229,357.6007 2641.0958,393.1615 2722.8041,410.5886" fill="none" id="UC11-to-UC3" style="stroke:#EC7211;stroke-width:3.125;stroke-dasharray:7.2917,7.2917;"/><polygon fill="#EC7211" points="2728.9167,411.8923,2720.617,405.8618,2723.8229,410.8059,2718.8788,414.0118,2728.9167,411.8923" style="stroke:#EC7211;stroke-width:3.125;"/><text fill="#4E5D6C" font-family="'Verdana'" font-size="12.5" lengthAdjust="spacing" textLength="42.9138" x="2555.1875" y="363.9282">extend</text></g><!--link UC8 to UC3--><g class="link" data-entity-1="UC8" data-entity-2="UC3" data-source-line="99" data-uid="lnk75" id="link_UC8_UC3"><path d="M2781,298.4236 C2781,325.7048 2781,373.1632 2781,400.1423" fill="none" id="UC8-to-UC3" style="stroke:#EC7211;stroke-width:3.125;stroke-dasharray:7.2917,7.2917;"/><polygon fill="#EC7211" points="2781,406.3923,2785.1667,397.0173,2781,401.184,2776.8333,397.0173,2781,406.3923" style="stroke:#EC7211;stroke-width:3.125;"/><text fill="#4E5D6C" font-family="'Verdana'" font-size="12.5" lengthAdjust="spacing" textLength="42.9138" x="2787.25" y="363.9282">extend</text></g><!--link UC11 to GMN76--><g class="link" data-entity-1="UC11" data-entity-2="GMN76" data-source-line="102" data-uid="lnk78" id="link_UC11_GMN76"><path d="M2281.1042,263.5382 C2297.4063,241.1007 2329.5,202.7986 2367.9792,187.4757 C2435.5104,160.5798 3606.9271,165.8403 3676.3125,187.4757 C3713.8125,199.1736 3750.0833,225.3298 3775.5521,246.9757" fill="none" id="UC11-GMN76" style="stroke:#EC7211;stroke-width:3.125;stroke-dasharray:7.2917,7.2917;"/></g><!--link UC8 to GMN79--><g class="link" data-entity-1="UC8" data-entity-2="GMN79" data-source-line="108" data-uid="lnk81" id="link_UC8_GMN79"><path d="M2794.5417,263.4861 C2813.5104,240.9861 2850.3438,202.6319 2891.9375,187.4757 C2944.9583,168.1632 3853.7917,170.3819 3907.5625,187.4757 C3944.4167,199.1944 3979.8229,225.3507 4004.6458,246.9861" fill="none" id="UC8-GMN79" style="stroke:#EC7211;stroke-width:3.125;stroke-dasharray:7.2917,7.2917;"/></g><!--link admin to GMN82--><g class="link" data-entity-1="admin" data-entity-2="GMN82" data-source-line="114" data-uid="lnk84" id="link_admin_GMN82"><path d="M1287.2813,115.184 C1165.25,114.6215 852.4271,121.4861 606,198.4132 C569.9063,209.684 532.4583,229.7569 503.875,247.1215" fill="none" id="admin-GMN82" style="stroke:#EC7211;stroke-width:3.125;stroke-dasharray:7.2917,7.2917;"/></g><!--SRC=[VLRDRjim3BxxARXSiXrIn4wRdnq652cmIpiKBTBJBegj9DeSozLFrs7O-ypFuHSRvLYfgSGjqAOV-OdyH8bKFfWTttDWl_H8AbPiUMI4oJdS2BPLR8-kZCEIQSY6AoDoePaHie0HtEVCy8rKo5YAegxkS36BeY7SrDL65AAXPLm3ImstIaVuAHKCdeGMpZ003FhYW5JUvpEW-tknb4N1KrDN3TDgVgHTPtjCe8rYnq3CcLpsUvR-P5iE-hSszRyzZyhMC7XiBHsv0_WJ0VuqVuRjDcrdcwLTvoBLZHyLf4nZ81IcRMwuWXotjw-hJ33Tg5WjOqfzuEcEA_SBjcYfBJEXp2Sf56HrPPZ8DMLEAFDnA0gTAg5uwxyC_1pIG-cuQXbN9nimxbHm0yEwUhQYzA6cxvV3lfsFpr5NDFRNkb8OMBlYARaHUHjvHcdNFwHr0fXzXGrxaKhu2ix32XhX0hgRH8cBlbFH9zHuJBdVf3bp8d5yKaWyaB2MSV9-ZHYvdC6kqnGJDjk6ZEdTMZAL-RYJiuLqLwnJzkEEWaDVghewRAb3zjpW-Eza9ZQYbpsbR6ndZPT5lFGkcFKA3tfZtgUP7iEYNoxjeE1K7srPAh4_nupVxM2kDKu8BpC9ElEXhafPP8etbpKzzCwHF3dJnYweDdWTj17FzYtmPVJNZQW7dZTNHOEVXL4x1s4q-j8C4OgJ04y2V1dWgm1FQTRLsIvs0_QOlmEIBfXqmQmBvbsm8D76197WCOaUwAHZ7Zxky69XkTo3jC95dwAcrOwQkoWXQ4BGZA0vGGiQSqmXpH7J95Fgf3cnNGcyeZ1OInN6L69CDIPKOnBKWMfCg2gyaAJW6RuiQMurWiXfXekBWrhu38qduyG-xR7FEdRdc7l7WYxmzcJSOu-xWQXI_cfuuPN6xO89yXj7XjRvgJ4gSF234jkT0Rdn8_-M0TeFqxiOScsWb5gBTSxHYVqB6czVpg1qNoCoxbzfTEBazvCcmlWk33zDuiRUxP2v5w_xtk4xXVyAu-BmqgBXV0xRas4jZP5xb-BmvQT9GbkcxPWc0nXfTJEQCYM58QyA4igyzMvaaVeYTyAvIXy5_0S0]--></g></svg>