<svg xmlns="http://www.w3.org/2000/svg" xmlns:xlink="http://www.w3.org/1999/xlink" contentStyleType="text/css" data-diagram-type="CLASS" height="1204.1667px" preserveAspectRatio="none" style="width:1863px;height:1204px;" version="1.1" viewBox="0 0 1863 1204" width="1863.5417px" zoomAndPan="magnify"><title>Mod&#232;le Conceptuel de Donn&#233;es - Cin&#233;Manga</title><defs><linearGradient id="g6clhvo26zwya0" x1="50%" x2="50%" y1="0%" y2="100%"><stop offset="0%" stop-color="#FFFFFF"/><stop offset="100%" stop-color="#EEEEEE"/></linearGradient><linearGradient id="g6clhvo26zwya1" x1="50%" x2="50%" y1="0%" y2="100%"><stop offset="0%" stop-color="#F18E3E"/><stop offset="100%" stop-color="#EC7211"/></linearGradient></defs><g><g class="title" data-source-line="3"><rect fill="url(#g6clhvo26zwya0)" height="46.1528" rx="4.1667" ry="4.1667" style="stroke:#EEEEEE;stroke-width:1.0417;" width="537.5773" x="655.8459" y="5.2083"/><text fill="#EC7211" font-family="'Verdana'" font-size="20.8333" font-weight="bold" lengthAdjust="spacing" textLength="516.744" x="666.2626" y="36.5702">Mod&#232;le Conceptuel de Donn&#233;es - Cin&#233;Manga</text></g><!--class user--><g class="entity" data-entity="user" data-source-line="6" data-uid="ent0002" id="entity_user"><rect fill="url(#g6clhvo26zwya1)" height="221.8221" rx="4.1667" ry="4.1667" style="stroke:#EC7211;stroke-width:1.0417;" width="226.6006" x="109.8854" y="528.0278"/><rect fill="url(#g6clhvo26zwya1)" height="34.759" rx="4.1667" ry="4.1667" style="stroke:url(#g6clhvo26zwya1);stroke-width:1.0417;" width="226.6006" x="109.8854" y="528.0278"/><rect fill="url(#g6clhvo26zwya1)" height="4.1667" style="stroke:url(#g6clhvo26zwya1);stroke-width:1.0417;" width="226.6006" x="109.8854" y="558.6201"/><rect fill="none" height="221.8221" rx="4.1667" ry="4.1667" style="stroke:#EC7211;stroke-width:1.0417;" width="226.6006" x="109.8854" y="528.0278"/><ellipse cx="174.9123" cy="545.4073" fill="#ADD1B2" rx="10.4167" ry="10.4167" style="stroke:#181818;stroke-width:1.0417;"/><path d="M177.9681,550.0948 L172.2918,550.0948 L172.2918,540.9822 L177.9681,540.9822 L177.9681,542.5691 L174.0924,542.5691 L174.0924,544.5345 L177.6019,544.5345 L177.6019,546.1214 L174.0924,546.1214 L174.0924,548.5078 L177.9681,548.5078 Z " fill="#000000"/><text fill="#FFFFFF" font-family="'Verdana'" font-size="11.4583" lengthAdjust="spacing" textLength="77.7969" x="199.9123" y="549.9643">UTILISATEUR</text><line style="stroke:#EC7211;stroke-width:1.0417;" x1="110.9271" x2="335.4444" y1="562.7868" y2="562.7868"/><ellipse cx="121.3438" cy="580.6871" fill="#000000" rx="3.125" ry="3.125" style="stroke:#000000;stroke-width:1.0417;"/><text fill="#FFFFFF" font-family="'Verdana'" font-size="11.4583" lengthAdjust="spacing" textLength="75.3408" x="134.8854" y="583.6816">id : INTEGER</text><line style="stroke:#EC7211;stroke-width:1.0417;" x1="110.9271" x2="335.4444" y1="595.4624" y2="595.4624"/><ellipse cx="121.3438" cy="613.3628" fill="#000000" rx="3.125" ry="3.125" style="stroke:#000000;stroke-width:1.0417;"/><text fill="#FFFFFF" font-family="'Verdana'" font-size="11.4583" lengthAdjust="spacing" textLength="126.9145" x="134.8854" y="616.3573">nom : VARCHAR(255)</text><ellipse cx="121.3438" cy="637.7051" fill="#000000" rx="3.125" ry="3.125" style="stroke:#000000;stroke-width:1.0417;"/><text fill="#FFFFFF" font-family="'Verdana'" font-size="11.4583" lengthAdjust="spacing" textLength="145.7692" x="134.8854" y="640.6997">prenom : VARCHAR(255)</text><ellipse cx="121.3438" cy="662.0475" fill="#000000" rx="3.125" ry="3.125" style="stroke:#000000;stroke-width:1.0417;"/><text fill="#FFFFFF" font-family="'Verdana'" font-size="11.4583" lengthAdjust="spacing" textLength="190.1423" x="134.8854" y="665.042">email : VARCHAR(255) {unique}</text><ellipse cx="121.3438" cy="686.3898" fill="#000000" rx="3.125" ry="3.125" style="stroke:#000000;stroke-width:1.0417;"/><text fill="#FFFFFF" font-family="'Verdana'" font-size="11.4583" lengthAdjust="spacing" textLength="185.4986" x="134.8854" y="689.3844">mot_de_passe : VARCHAR(255)</text><ellipse cx="121.3438" cy="710.7322" fill="#000000" rx="3.125" ry="3.125" style="stroke:#000000;stroke-width:1.0417;"/><text fill="#FFFFFF" font-family="'Verdana'" font-size="11.4583" lengthAdjust="spacing" textLength="123.3785" x="134.8854" y="713.7267">role : VARCHAR(255)</text><ellipse cx="121.3438" cy="735.0745" fill="#000000" rx="3.125" ry="3.125" style="stroke:#000000;stroke-width:1.0417;"/><text fill="#FFFFFF" font-family="'Verdana'" font-size="11.4583" lengthAdjust="spacing" textLength="102.8285" x="134.8854" y="738.0691">statut : BOOLEAN</text></g><!--class media--><g class="entity" data-entity="media" data-source-line="17" data-uid="ent0003" id="entity_media"><rect fill="url(#g6clhvo26zwya1)" height="221.8221" rx="4.1667" ry="4.1667" style="stroke:#EC7211;stroke-width:1.0417;" width="195.728" x="679.4896" y="528.0278"/><rect fill="url(#g6clhvo26zwya1)" height="34.759" rx="4.1667" ry="4.1667" style="stroke:url(#g6clhvo26zwya1);stroke-width:1.0417;" width="195.728" x="679.4896" y="528.0278"/><rect fill="url(#g6clhvo26zwya1)" height="4.1667" style="stroke:url(#g6clhvo26zwya1);stroke-width:1.0417;" width="195.728" x="679.4896" y="558.6201"/><rect fill="none" height="221.8221" rx="4.1667" ry="4.1667" style="stroke:#EC7211;stroke-width:1.0417;" width="195.728" x="679.4896" y="528.0278"/><ellipse cx="748.7853" cy="545.4073" fill="#ADD1B2" rx="10.4167" ry="10.4167" style="stroke:#181818;stroke-width:1.0417;"/><path d="M751.8412,550.0948 L746.1649,550.0948 L746.1649,540.9822 L751.8412,540.9822 L751.8412,542.5691 L747.9654,542.5691 L747.9654,544.5345 L751.475,544.5345 L751.475,546.1214 L747.9654,546.1214 L747.9654,548.5078 L751.8412,548.5078 Z " fill="#000000"/><text fill="#FFFFFF" font-family="'Verdana'" font-size="11.4583" lengthAdjust="spacing" textLength="38.3865" x="773.7853" y="549.9643">MEDIA</text><line style="stroke:#EC7211;stroke-width:1.0417;" x1="680.5313" x2="874.176" y1="562.7868" y2="562.7868"/><ellipse cx="690.9479" cy="580.6871" fill="#000000" rx="3.125" ry="3.125" style="stroke:#000000;stroke-width:1.0417;"/><text fill="#FFFFFF" font-family="'Verdana'" font-size="11.4583" lengthAdjust="spacing" textLength="75.3408" x="704.4896" y="583.6816">id : INTEGER</text><line style="stroke:#EC7211;stroke-width:1.0417;" x1="680.5313" x2="874.176" y1="595.4624" y2="595.4624"/><ellipse cx="690.9479" cy="613.3628" fill="#000000" rx="3.125" ry="3.125" style="stroke:#000000;stroke-width:1.0417;"/><text fill="#FFFFFF" font-family="'Verdana'" font-size="11.4583" lengthAdjust="spacing" textLength="125.4542" x="704.4896" y="616.3573">titre : VARCHAR(255)</text><ellipse cx="690.9479" cy="637.7051" fill="#000000" rx="3.125" ry="3.125" style="stroke:#000000;stroke-width:1.0417;"/><text fill="#FFFFFF" font-family="'Verdana'" font-size="11.4583" lengthAdjust="spacing" textLength="126.825" x="704.4896" y="640.6997">type : VARCHAR(255)</text><ellipse cx="690.9479" cy="662.0475" fill="#000000" rx="3.125" ry="3.125" style="stroke:#000000;stroke-width:1.0417;"/><text fill="#FFFFFF" font-family="'Verdana'" font-size="11.4583" lengthAdjust="spacing" textLength="159.2697" x="704.4896" y="665.042">url_image : VARCHAR(255)</text><text fill="#FFFFFF" font-family="'Verdana'" font-size="11.4583" lengthAdjust="spacing" textLength="105.4189" x="704.4896" y="689.3844">description : TEXT</text><ellipse cx="690.9479" cy="710.7322" fill="#000000" rx="3.125" ry="3.125" style="stroke:#000000;stroke-width:1.0417;"/><text fill="#FFFFFF" font-family="'Verdana'" font-size="11.4583" lengthAdjust="spacing" textLength="102.8285" x="704.4896" y="713.7267">statut : BOOLEAN</text><ellipse cx="690.9479" cy="735.0745" fill="#000000" rx="3.125" ry="3.125" style="stroke:#000000;stroke-width:1.0417;"/><text fill="#FFFFFF" font-family="'Verdana'" font-size="11.4583" lengthAdjust="spacing" textLength="95.667" x="704.4896" y="738.0691">score : INTEGER</text></g><!--class profil--><g class="entity" data-entity="profil" data-source-line="28" data-uid="ent0004" id="entity_profil"><rect fill="url(#g6clhvo26zwya1)" height="124.4527" rx="4.1667" ry="4.1667" style="stroke:#EC7211;stroke-width:1.0417;" width="176.6159" x="261.9688" y="875.9444"/><rect fill="url(#g6clhvo26zwya1)" height="34.759" rx="4.1667" ry="4.1667" style="stroke:url(#g6clhvo26zwya1);stroke-width:1.0417;" width="176.6159" x="261.9688" y="875.9444"/><rect fill="url(#g6clhvo26zwya1)" height="4.1667" style="stroke:url(#g6clhvo26zwya1);stroke-width:1.0417;" width="176.6159" x="261.9688" y="906.5368"/><rect fill="none" height="124.4527" rx="4.1667" ry="4.1667" style="stroke:#EC7211;stroke-width:1.0417;" width="176.6159" x="261.9688" y="875.9444"/><ellipse cx="320.0607" cy="893.3239" fill="#ADD1B2" rx="10.4167" ry="10.4167" style="stroke:#181818;stroke-width:1.0417;"/><path d="M323.1166,898.0114 L317.4403,898.0114 L317.4403,888.8989 L323.1166,888.8989 L323.1166,890.4858 L319.2408,890.4858 L319.2408,892.4511 L322.7504,892.4511 L322.7504,894.038 L319.2408,894.038 L319.2408,896.4245 L323.1166,896.4245 Z " fill="#000000"/><text fill="#FFFFFF" font-family="'Verdana'" font-size="11.4583" lengthAdjust="spacing" textLength="41.6819" x="345.0607" y="897.881">PROFIL</text><line style="stroke:#EC7211;stroke-width:1.0417;" x1="263.0104" x2="437.543" y1="910.7034" y2="910.7034"/><ellipse cx="273.4271" cy="928.6038" fill="#000000" rx="3.125" ry="3.125" style="stroke:#000000;stroke-width:1.0417;"/><text fill="#FFFFFF" font-family="'Verdana'" font-size="11.4583" lengthAdjust="spacing" textLength="75.3408" x="286.9688" y="931.5983">id : INTEGER</text><line style="stroke:#EC7211;stroke-width:1.0417;" x1="263.0104" x2="437.543" y1="943.3791" y2="943.3791"/><ellipse cx="273.4271" cy="961.2794" fill="#000000" rx="3.125" ry="3.125" style="stroke:#000000;stroke-width:1.0417;"/><text fill="#FFFFFF" font-family="'Verdana'" font-size="11.4583" lengthAdjust="spacing" textLength="140.1576" x="286.9688" y="964.274">id_utilisateur : INTEGER</text><ellipse cx="273.4271" cy="985.6218" fill="#000000" rx="3.125" ry="3.125" style="stroke:#000000;stroke-width:1.0417;"/><text fill="#FFFFFF" font-family="'Verdana'" font-size="11.4583" lengthAdjust="spacing" textLength="117.7612" x="286.9688" y="988.6163">id_media : INTEGER</text></g><!--class contact--><g class="entity" data-entity="contact" data-source-line="35" data-uid="ent0005" id="entity_contact"><rect fill="url(#g6clhvo26zwya1)" height="221.8221" rx="4.1667" ry="4.1667" style="stroke:#EC7211;stroke-width:1.0417;" width="188.5498" x="1249.75" y="153.2673"/><rect fill="url(#g6clhvo26zwya1)" height="34.759" rx="4.1667" ry="4.1667" style="stroke:url(#g6clhvo26zwya1);stroke-width:1.0417;" width="188.5498" x="1249.75" y="153.2673"/><rect fill="url(#g6clhvo26zwya1)" height="4.1667" style="stroke:url(#g6clhvo26zwya1);stroke-width:1.0417;" width="188.5498" x="1249.75" y="183.8597"/><rect fill="none" height="221.8221" rx="4.1667" ry="4.1667" style="stroke:#EC7211;stroke-width:1.0417;" width="188.5498" x="1249.75" y="153.2673"/><ellipse cx="1306.8769" cy="170.6468" fill="#ADD1B2" rx="10.4167" ry="10.4167" style="stroke:#181818;stroke-width:1.0417;"/><path d="M1309.9327,175.3343 L1304.2564,175.3343 L1304.2564,166.2218 L1309.9327,166.2218 L1309.9327,167.8087 L1306.057,167.8087 L1306.057,169.774 L1309.5665,169.774 L1309.5665,171.361 L1306.057,171.361 L1306.057,173.7474 L1309.9327,173.7474 Z " fill="#000000"/><text fill="#FFFFFF" font-family="'Verdana'" font-size="11.4583" lengthAdjust="spacing" textLength="55.5461" x="1331.8769" y="175.2039">CONTACT</text><line style="stroke:#EC7211;stroke-width:1.0417;" x1="1250.7917" x2="1437.2581" y1="188.0263" y2="188.0263"/><ellipse cx="1261.2083" cy="205.9267" fill="#000000" rx="3.125" ry="3.125" style="stroke:#000000;stroke-width:1.0417;"/><text fill="#FFFFFF" font-family="'Verdana'" font-size="11.4583" lengthAdjust="spacing" textLength="75.3408" x="1274.75" y="208.9212">id : INTEGER</text><line style="stroke:#EC7211;stroke-width:1.0417;" x1="1250.7917" x2="1437.2581" y1="220.702" y2="220.702"/><ellipse cx="1261.2083" cy="238.6024" fill="#000000" rx="3.125" ry="3.125" style="stroke:#000000;stroke-width:1.0417;"/><text fill="#FFFFFF" font-family="'Verdana'" font-size="11.4583" lengthAdjust="spacing" textLength="126.9145" x="1274.75" y="241.5969">nom : VARCHAR(255)</text><ellipse cx="1261.2083" cy="262.9447" fill="#000000" rx="3.125" ry="3.125" style="stroke:#000000;stroke-width:1.0417;"/><text fill="#FFFFFF" font-family="'Verdana'" font-size="11.4583" lengthAdjust="spacing" textLength="132.7052" x="1274.75" y="265.9392">email : VARCHAR(255)</text><ellipse cx="1261.2083" cy="287.2871" fill="#000000" rx="3.125" ry="3.125" style="stroke:#000000;stroke-width:1.0417;"/><text fill="#FFFFFF" font-family="'Verdana'" font-size="11.4583" lengthAdjust="spacing" textLength="130.07" x="1274.75" y="290.2816">sujet : VARCHAR(255)</text><ellipse cx="1261.2083" cy="311.6294" fill="#000000" rx="3.125" ry="3.125" style="stroke:#000000;stroke-width:1.0417;"/><text fill="#FFFFFF" font-family="'Verdana'" font-size="11.4583" lengthAdjust="spacing" textLength="93.2332" x="1274.75" y="314.6239">message : TEXT</text><ellipse cx="1261.2083" cy="335.9718" fill="#000000" rx="3.125" ry="3.125" style="stroke:#000000;stroke-width:1.0417;"/><text fill="#FFFFFF" font-family="'Verdana'" font-size="11.4583" lengthAdjust="spacing" textLength="152.0915" x="1274.75" y="338.9663">date_creation : DATETIME</text><ellipse cx="1261.2083" cy="360.3141" fill="#000000" rx="3.125" ry="3.125" style="stroke:#000000;stroke-width:1.0417;"/><text fill="#FFFFFF" font-family="'Verdana'" font-size="11.4583" lengthAdjust="spacing" textLength="102.8285" x="1274.75" y="363.3086">statut : BOOLEAN</text></g><!--class genre--><g class="entity" data-entity="genre" data-source-line="46" data-uid="ent0006" id="entity_genre"><rect fill="url(#g6clhvo26zwya1)" height="124.4527" rx="4.1667" ry="4.1667" style="stroke:#EC7211;stroke-width:1.0417;" width="163.3728" x="1056.0833" y="875.9444"/><rect fill="url(#g6clhvo26zwya1)" height="34.759" rx="4.1667" ry="4.1667" style="stroke:url(#g6clhvo26zwya1);stroke-width:1.0417;" width="163.3728" x="1056.0833" y="875.9444"/><rect fill="url(#g6clhvo26zwya1)" height="4.1667" style="stroke:url(#g6clhvo26zwya1);stroke-width:1.0417;" width="163.3728" x="1056.0833" y="906.5368"/><rect fill="none" height="124.4527" rx="4.1667" ry="4.1667" style="stroke:#EC7211;stroke-width:1.0417;" width="163.3728" x="1056.0833" y="875.9444"/><ellipse cx="1108.4378" cy="893.3239" fill="#ADD1B2" rx="10.4167" ry="10.4167" style="stroke:#181818;stroke-width:1.0417;"/><path d="M1111.4936,898.0114 L1105.8173,898.0114 L1105.8173,888.8989 L1111.4936,888.8989 L1111.4936,890.4858 L1107.6179,890.4858 L1107.6179,892.4511 L1111.1274,892.4511 L1111.1274,894.038 L1107.6179,894.038 L1107.6179,896.4245 L1111.4936,896.4245 Z " fill="#000000"/><text fill="#FFFFFF" font-family="'Verdana'" font-size="11.4583" lengthAdjust="spacing" textLength="39.9139" x="1133.4378" y="897.881">GENRE</text><line style="stroke:#EC7211;stroke-width:1.0417;" x1="1057.125" x2="1218.4145" y1="910.7034" y2="910.7034"/><ellipse cx="1067.5417" cy="928.6038" fill="#000000" rx="3.125" ry="3.125" style="stroke:#000000;stroke-width:1.0417;"/><text fill="#FFFFFF" font-family="'Verdana'" font-size="11.4583" lengthAdjust="spacing" textLength="75.3408" x="1081.0833" y="931.5983">id : INTEGER</text><line style="stroke:#EC7211;stroke-width:1.0417;" x1="1057.125" x2="1218.4145" y1="943.3791" y2="943.3791"/><ellipse cx="1067.5417" cy="961.2794" fill="#000000" rx="3.125" ry="3.125" style="stroke:#000000;stroke-width:1.0417;"/><text fill="#FFFFFF" font-family="'Verdana'" font-size="11.4583" lengthAdjust="spacing" textLength="126.9145" x="1081.0833" y="964.274">nom : VARCHAR(255)</text><ellipse cx="1067.5417" cy="985.6218" fill="#000000" rx="3.125" ry="3.125" style="stroke:#000000;stroke-width:1.0417;"/><text fill="#FFFFFF" font-family="'Verdana'" font-size="11.4583" lengthAdjust="spacing" textLength="105.4189" x="1081.0833" y="988.6163">description : TEXT</text></g><!--class notation--><g class="entity" data-entity="notation" data-source-line="53" data-uid="ent0007" id="entity_notation"><rect fill="url(#g6clhvo26zwya1)" height="197.4798" rx="4.1667" ry="4.1667" style="stroke:#EC7211;stroke-width:1.0417;" width="189.5849" x="35.6875" y="839.434"/><rect fill="url(#g6clhvo26zwya1)" height="34.759" rx="4.1667" ry="4.1667" style="stroke:url(#g6clhvo26zwya1);stroke-width:1.0417;" width="189.5849" x="35.6875" y="839.434"/><rect fill="url(#g6clhvo26zwya1)" height="4.1667" style="stroke:url(#g6clhvo26zwya1);stroke-width:1.0417;" width="189.5849" x="35.6875" y="870.0263"/><rect fill="none" height="197.4798" rx="4.1667" ry="4.1667" style="stroke:#EC7211;stroke-width:1.0417;" width="189.5849" x="35.6875" y="839.434"/><ellipse cx="90.126" cy="856.8135" fill="#ADD1B2" rx="10.4167" ry="10.4167" style="stroke:#181818;stroke-width:1.0417;"/><path d="M93.1819,861.501 L87.5056,861.501 L87.5056,852.3885 L93.1819,852.3885 L93.1819,853.9754 L89.3061,853.9754 L89.3061,855.9407 L92.8156,855.9407 L92.8156,857.5276 L89.3061,857.5276 L89.3061,859.9141 L93.1819,859.9141 Z " fill="#000000"/><text fill="#FFFFFF" font-family="'Verdana'" font-size="11.4583" lengthAdjust="spacing" textLength="61.9578" x="115.126" y="861.3705">NOTATION</text><line style="stroke:#EC7211;stroke-width:1.0417;" x1="36.7292" x2="224.2307" y1="874.193" y2="874.193"/><ellipse cx="47.1458" cy="892.0934" fill="#000000" rx="3.125" ry="3.125" style="stroke:#000000;stroke-width:1.0417;"/><text fill="#FFFFFF" font-family="'Verdana'" font-size="11.4583" lengthAdjust="spacing" textLength="75.3408" x="60.6875" y="895.0879">id : INTEGER</text><line style="stroke:#EC7211;stroke-width:1.0417;" x1="36.7292" x2="224.2307" y1="906.8687" y2="906.8687"/><ellipse cx="47.1458" cy="924.769" fill="#000000" rx="3.125" ry="3.125" style="stroke:#000000;stroke-width:1.0417;"/><text fill="#FFFFFF" font-family="'Verdana'" font-size="11.4583" lengthAdjust="spacing" textLength="140.1576" x="60.6875" y="927.7636">id_utilisateur : INTEGER</text><ellipse cx="47.1458" cy="949.1114" fill="#000000" rx="3.125" ry="3.125" style="stroke:#000000;stroke-width:1.0417;"/><text fill="#FFFFFF" font-family="'Verdana'" font-size="11.4583" lengthAdjust="spacing" textLength="117.7612" x="60.6875" y="952.1059">id_media : INTEGER</text><ellipse cx="47.1458" cy="973.4537" fill="#000000" rx="3.125" ry="3.125" style="stroke:#000000;stroke-width:1.0417;"/><text fill="#FFFFFF" font-family="'Verdana'" font-size="11.4583" lengthAdjust="spacing" textLength="90.6036" x="60.6875" y="976.4483">note : INTEGER</text><ellipse cx="47.1458" cy="997.7961" fill="#000000" rx="3.125" ry="3.125" style="stroke:#000000;stroke-width:1.0417;"/><text fill="#FFFFFF" font-family="'Verdana'" font-size="11.4583" lengthAdjust="spacing" textLength="118.0242" x="60.6875" y="1000.7906">commentaire : TEXT</text><ellipse cx="47.1458" cy="1022.1384" fill="#000000" rx="3.125" ry="3.125" style="stroke:#000000;stroke-width:1.0417;"/><text fill="#FFFFFF" font-family="'Verdana'" font-size="11.4583" lengthAdjust="spacing" textLength="153.1265" x="60.6875" y="1025.133">date_notation : DATETIME</text></g><!--class categorie--><g class="entity" data-entity="categorie" data-source-line="63" data-uid="ent0008" id="entity_categorie"><rect fill="url(#g6clhvo26zwya1)" height="148.7951" rx="4.1667" ry="4.1667" style="stroke:#EC7211;stroke-width:1.0417;" width="205.7037" x="814.0833" y="863.7778"/><rect fill="url(#g6clhvo26zwya1)" height="34.759" rx="4.1667" ry="4.1667" style="stroke:url(#g6clhvo26zwya1);stroke-width:1.0417;" width="205.7037" x="814.0833" y="863.7778"/><rect fill="url(#g6clhvo26zwya1)" height="4.1667" style="stroke:url(#g6clhvo26zwya1);stroke-width:1.0417;" width="205.7037" x="814.0833" y="894.3701"/><rect fill="none" height="148.7951" rx="4.1667" ry="4.1667" style="stroke:#EC7211;stroke-width:1.0417;" width="205.7037" x="814.0833" y="863.7778"/><ellipse cx="873.5209" cy="881.1573" fill="#ADD1B2" rx="10.4167" ry="10.4167" style="stroke:#181818;stroke-width:1.0417;"/><path d="M876.5767,885.8448 L870.9005,885.8448 L870.9005,876.7322 L876.5767,876.7322 L876.5767,878.3191 L872.701,878.3191 L872.701,880.2845 L876.2105,880.2845 L876.2105,881.8714 L872.701,881.8714 L872.701,884.2578 L876.5767,884.2578 Z " fill="#000000"/><text fill="#FFFFFF" font-family="'Verdana'" font-size="11.4583" lengthAdjust="spacing" textLength="68.0786" x="898.5209" y="885.7143">CATEGORIE</text><line style="stroke:#EC7211;stroke-width:1.0417;" x1="815.125" x2="1018.7454" y1="898.5368" y2="898.5368"/><ellipse cx="825.5417" cy="916.4371" fill="#000000" rx="3.125" ry="3.125" style="stroke:#000000;stroke-width:1.0417;"/><text fill="#FFFFFF" font-family="'Verdana'" font-size="11.4583" lengthAdjust="spacing" textLength="75.3408" x="839.0833" y="919.4316">id : INTEGER</text><line style="stroke:#EC7211;stroke-width:1.0417;" x1="815.125" x2="1018.7454" y1="931.2124" y2="931.2124"/><ellipse cx="825.5417" cy="949.1128" fill="#000000" rx="3.125" ry="3.125" style="stroke:#000000;stroke-width:1.0417;"/><text fill="#FFFFFF" font-family="'Verdana'" font-size="11.4583" lengthAdjust="spacing" textLength="126.9145" x="839.0833" y="952.1073">nom : VARCHAR(255)</text><ellipse cx="825.5417" cy="973.4551" fill="#000000" rx="3.125" ry="3.125" style="stroke:#000000;stroke-width:1.0417;"/><text fill="#FFFFFF" font-family="'Verdana'" font-size="11.4583" lengthAdjust="spacing" textLength="105.4189" x="839.0833" y="976.4497">description : TEXT</text><ellipse cx="825.5417" cy="997.7975" fill="#000000" rx="3.125" ry="3.125" style="stroke:#000000;stroke-width:1.0417;"/><text fill="#FFFFFF" font-family="'Verdana'" font-size="11.4583" lengthAdjust="spacing" textLength="169.2454" x="839.0833" y="1000.792">type_media : VARCHAR(255)</text></g><g class="entity" data-entity="GMN15" data-source-line="81" data-uid="ent0016" id="entity_GMN15"><path d="M89.5625,219.9444 L89.5625,308.4027 A4.1667,4.1667 0 0 0 93.7292,312.5693 L219.0208,312.5693 L223.1875,527.7048 L227.3542,312.5693 L352.6484,312.5693 A4.1667,4.1667 0 0 0 356.8151,308.4027 L356.8151,226.1944 L346.3984,215.7778 L93.7292,215.7778 A4.1667,4.1667 0 0 0 89.5625,219.9444" fill="#0073BB" style="stroke:#005C96;stroke-width:1.0417;"/><path d="M346.3984,215.7778 L346.3984,224.1111 A2.0833,2.0833 0 0 0 348.4818,226.1944 L356.8151,226.1944 L346.3984,215.7778" fill="#0073BB" style="stroke:#005C96;stroke-width:1.0417;"/><text fill="#FFFFFF" font-family="'Verdana'" font-size="12.5" lengthAdjust="spacing" textLength="97.2961" x="101.0208" y="238.7616">CONTRAINTES:</text><text fill="#FFFFFF" font-family="'Verdana'" font-size="12.5" lengthAdjust="spacing" textLength="90.8325" x="101.0208" y="253.9532">- email unique</text><text fill="#FFFFFF" font-family="'Verdana'" font-size="12.5" lengthAdjust="spacing" textLength="198.8098" x="101.0208" y="269.1449">- mot_de_passe hach&#233; (bcrypt)</text><text fill="#FFFFFF" font-family="'Verdana'" font-size="12.5" lengthAdjust="spacing" textLength="234.9609" x="101.0208" y="284.3365">- role &#8712; {ROLE_USER, ROLE_ADMIN}</text><text fill="#FFFFFF" font-family="'Verdana'" font-size="12.5" lengthAdjust="spacing" textLength="227.7039" x="101.0208" y="299.5282">- statut: true=actif, false=suspendu</text></g><g class="entity" data-entity="GMN18" data-source-line="89" data-uid="ent0019" id="entity_GMN18"><path d="M624.2604,219.9444 L624.2604,308.4027 A4.1667,4.1667 0 0 0 628.4271,312.5693 L773.1875,312.5693 L777.3542,527.7048 L781.5208,312.5693 L926.2746,312.5693 A4.1667,4.1667 0 0 0 930.4412,308.4027 L930.4412,226.1944 L920.0246,215.7778 L628.4271,215.7778 A4.1667,4.1667 0 0 0 624.2604,219.9444" fill="#0073BB" style="stroke:#005C96;stroke-width:1.0417;"/><path d="M920.0246,215.7778 L920.0246,224.1111 A2.0833,2.0833 0 0 0 922.1079,226.1944 L930.4412,226.1944 L920.0246,215.7778" fill="#0073BB" style="stroke:#005C96;stroke-width:1.0417;"/><text fill="#FFFFFF" font-family="'Verdana'" font-size="12.5" lengthAdjust="spacing" textLength="97.2961" x="635.7188" y="238.7616">CONTRAINTES:</text><text fill="#FFFFFF" font-family="'Verdana'" font-size="12.5" lengthAdjust="spacing" textLength="183.8257" x="635.7188" y="253.9532">- type &#8712; {film, serie, manga}</text><text fill="#FFFFFF" font-family="'Verdana'" font-size="12.5" lengthAdjust="spacing" textLength="273.8892" x="635.7188" y="269.1449">- score: moyenne des notations utilisateurs</text><text fill="#FFFFFF" font-family="'Verdana'" font-size="12.5" lengthAdjust="spacing" textLength="233.3557" x="635.7188" y="284.3365">- statut: true=publi&#233;, false=brouillon</text><text fill="#FFFFFF" font-family="'Verdana'" font-size="12.5" lengthAdjust="spacing" textLength="139.8987" x="635.7188" y="299.5282">- titre unique par type</text></g><g class="entity" data-entity="GMN21" data-source-line="97" data-uid="ent0022" id="entity_GMN21"><path d="M474.8125,893.9444 L474.8125,934.0069 L438.9583,938.1736 L474.8125,942.3403 L474.8125,982.4027 A4.1667,4.1667 0 0 0 478.9792,986.5693 L773.6406,986.5693 A4.1667,4.1667 0 0 0 777.8073,982.4027 L777.8073,900.1944 L767.3906,889.7778 L478.9792,889.7778 A4.1667,4.1667 0 0 0 474.8125,893.9444" fill="#0073BB" style="stroke:#005C96;stroke-width:1.0417;"/><path d="M767.3906,889.7778 L767.3906,898.1111 A2.0833,2.0833 0 0 0 769.474,900.1944 L777.8073,900.1944 L767.3906,889.7778" fill="#0073BB" style="stroke:#005C96;stroke-width:1.0417;"/><text fill="#FFFFFF" font-family="'Verdana'" font-size="12.5" lengthAdjust="spacing" textLength="97.2961" x="486.2708" y="912.7616">CONTRAINTES:</text><text fill="#FFFFFF" font-family="'Verdana'" font-size="12.5" lengthAdjust="spacing" textLength="247.4487" x="486.2708" y="927.9532">- Relation many-to-many Users/Medias</text><text fill="#FFFFFF" font-family="'Verdana'" font-size="12.5" lengthAdjust="spacing" textLength="225.3418" x="486.2708" y="943.1449">- Un utilisateur peut avoir un m&#233;dia</text><text fill="#FFFFFF" font-family="'Verdana'" font-size="12.5" lengthAdjust="spacing" textLength="192.2607" x="495.0599" y="958.3365">une seule fois dans ses favoris</text><text fill="#FFFFFF" font-family="'Verdana'" font-size="12.5" lengthAdjust="spacing" textLength="270.7031" x="486.2708" y="973.5282">- Suppression en cascade si User supprim&#233;</text></g><g class="entity" data-entity="GMN24" data-source-line="105" data-uid="ent0025" id="entity_GMN24"><path d="M6.25,1104.6215 L6.25,1193.0798 A4.1667,4.1667 0 0 0 10.4167,1197.2464 L250.5432,1197.2464 A4.1667,4.1667 0 0 0 254.7099,1193.0798 L254.7099,1110.8715 L244.2932,1100.4548 L134.6458,1100.4548 L130.4792,1037.4028 L126.3125,1100.4548 L10.4167,1100.4548 A4.1667,4.1667 0 0 0 6.25,1104.6215" fill="#0073BB" style="stroke:#005C96;stroke-width:1.0417;"/><path d="M244.2932,1100.4548 L244.2932,1108.7882 A2.0833,2.0833 0 0 0 246.3765,1110.8715 L254.7099,1110.8715 L244.2932,1100.4548" fill="#0073BB" style="stroke:#005C96;stroke-width:1.0417;"/><text fill="#FFFFFF" font-family="'Verdana'" font-size="12.5" lengthAdjust="spacing" textLength="97.2961" x="17.7083" y="1123.4386">CONTRAINTES:</text><text fill="#FFFFFF" font-family="'Verdana'" font-size="12.5" lengthAdjust="spacing" textLength="98.2178" x="17.7083" y="1138.6303">- note &#8712; [1..10]</text><text fill="#FFFFFF" font-family="'Verdana'" font-size="12.5" lengthAdjust="spacing" textLength="184.1003" x="17.7083" y="1153.8219">- Un utilisateur ne peut noter</text><text fill="#FFFFFF" font-family="'Verdana'" font-size="12.5" lengthAdjust="spacing" textLength="207.3792" x="26.4974" y="1169.0136">qu'une seule fois le m&#234;me m&#233;dia</text><text fill="#FFFFFF" font-family="'Verdana'" font-size="12.5" lengthAdjust="spacing" textLength="186.2854" x="17.7083" y="1184.2052">- date_notation auto-g&#233;n&#233;r&#233;e</text></g><g class="entity" data-entity="GMN27" data-source-line="113" data-uid="ent0028" id="entity_GMN27"><path d="M966.7708,219.9444 L966.7708,308.4027 A4.1667,4.1667 0 0 0 970.9375,312.5693 L1208.763,312.5693 A4.1667,4.1667 0 0 0 1212.9297,308.4027 L1212.9297,268.3403 L1249.3125,264.1736 L1212.9297,260.0069 L1212.9297,226.1944 L1202.513,215.7778 L970.9375,215.7778 A4.1667,4.1667 0 0 0 966.7708,219.9444" fill="#0073BB" style="stroke:#005C96;stroke-width:1.0417;"/><path d="M1202.513,215.7778 L1202.513,224.1111 A2.0833,2.0833 0 0 0 1204.5964,226.1944 L1212.9297,226.1944 L1202.513,215.7778" fill="#0073BB" style="stroke:#005C96;stroke-width:1.0417;"/><text fill="#FFFFFF" font-family="'Verdana'" font-size="12.5" lengthAdjust="spacing" textLength="97.2961" x="978.2292" y="238.7616">CONTRAINTES:</text><text fill="#FFFFFF" font-family="'Verdana'" font-size="12.5" lengthAdjust="spacing" textLength="175.8301" x="978.2292" y="253.9532">- Pas de relation avec Users</text><text fill="#FFFFFF" font-family="'Verdana'" font-size="12.5" lengthAdjust="spacing" textLength="174.4324" x="987.0182" y="269.1449">(contact anonyme possible)</text><text fill="#FFFFFF" font-family="'Verdana'" font-size="12.5" lengthAdjust="spacing" textLength="213.8672" x="978.2292" y="284.3365">- statut: true=non lu, false=trait&#233;</text><text fill="#FFFFFF" font-family="'Verdana'" font-size="12.5" lengthAdjust="spacing" textLength="131.7383" x="978.2292" y="299.5282">- email format valid&#233;</text></g><g class="entity" data-entity="GMN30" data-source-line="121" data-uid="ent0031" id="entity_GMN30"><path d="M998.25,602.309 L998.25,675.5756 A4.1667,4.1667 0 0 0 1002.4167,679.7423 L1133.6042,679.7423 L1137.7708,875.5173 L1141.9375,679.7423 L1273.1279,679.7423 A4.1667,4.1667 0 0 0 1277.2946,675.5756 L1277.2946,608.559 L1266.8779,598.1423 L1002.4167,598.1423 A4.1667,4.1667 0 0 0 998.25,602.309" fill="#0073BB" style="stroke:#005C96;stroke-width:1.0417;"/><path d="M1266.8779,598.1423 L1266.8779,606.4757 A2.0833,2.0833 0 0 0 1268.9613,608.559 L1277.2946,608.559 L1266.8779,598.1423" fill="#0073BB" style="stroke:#005C96;stroke-width:1.0417;"/><text fill="#FFFFFF" font-family="'Verdana'" font-size="12.5" lengthAdjust="spacing" textLength="71.5271" x="1009.7083" y="621.1261">EXEMPLES:</text><text fill="#FFFFFF" font-family="'Verdana'" font-size="12.5" lengthAdjust="spacing" textLength="220.8069" x="1009.7083" y="636.3178">- Action, Com&#233;die, Drame, Horreur</text><text fill="#FFFFFF" font-family="'Verdana'" font-size="12.5" lengthAdjust="spacing" textLength="229.1687" x="1009.7083" y="651.5094">- Romance, Science-Fiction, Fantasy</text><text fill="#FFFFFF" font-family="'Verdana'" font-size="12.5" lengthAdjust="spacing" textLength="246.7529" x="1009.7083" y="666.7011">- Shonen, Seinen, Josei (pour mangas)</text></g><g class="entity" data-entity="GMN33" data-source-line="128" data-uid="ent0034" id="entity_GMN33"><path d="M784.6875,1112.2153 L784.6875,1185.4819 A4.1667,4.1667 0 0 0 788.8542,1189.6485 L1045.0208,1189.6485 A4.1667,4.1667 0 0 0 1049.1874,1185.4819 L1049.1874,1118.4653 L1038.7708,1108.0486 L921.1042,1108.0486 L916.9375,1013.0486 L912.7708,1108.0486 L788.8542,1108.0486 A4.1667,4.1667 0 0 0 784.6875,1112.2153" fill="#0073BB" style="stroke:#005C96;stroke-width:1.0417;"/><path d="M1038.7708,1108.0486 L1038.7708,1116.3819 A2.0833,2.0833 0 0 0 1040.8541,1118.4653 L1049.1874,1118.4653 L1038.7708,1108.0486" fill="#0073BB" style="stroke:#005C96;stroke-width:1.0417;"/><text fill="#FFFFFF" font-family="'Verdana'" font-size="12.5" lengthAdjust="spacing" textLength="71.5271" x="796.1458" y="1131.0324">EXEMPLES:</text><text fill="#FFFFFF" font-family="'Verdana'" font-size="12.5" lengthAdjust="spacing" textLength="232.2083" x="796.1458" y="1146.224">- Nouveaut&#233;s, Populaires, Classiques</text><text fill="#FFFFFF" font-family="'Verdana'" font-size="12.5" lengthAdjust="spacing" textLength="177.9053" x="796.1458" y="1161.4157">- En cours, Termin&#233;, &#192; venir</text><text fill="#FFFFFF" font-family="'Verdana'" font-size="12.5" lengthAdjust="spacing" textLength="194.0918" x="796.1458" y="1176.6073">- Sp&#233;cifique par type de m&#233;dia</text></g><g class="entity" data-entity="RG1" data-source-line="136" data-uid="ent0036" id="entity_RG1"><path d="M1475.2396,68.0278 L1475.2396,460.319 A4.1667,4.1667 0 0 0 1479.4063,464.4857 L1852.3941,464.4857 A4.1667,4.1667 0 0 0 1856.5608,460.319 L1856.5608,74.2778 L1846.1441,63.8611 L1479.4063,63.8611 A4.1667,4.1667 0 0 0 1475.2396,68.0278" fill="#0073BB" style="stroke:#005C96;stroke-width:1.0417;"/><path d="M1846.1441,63.8611 L1846.1441,72.1944 A2.0833,2.0833 0 0 0 1848.2275,74.2778 L1856.5608,74.2778 L1846.1441,63.8611" fill="#0073BB" style="stroke:#005C96;stroke-width:1.0417;"/><text fill="#FFFFFF" font-family="'Verdana'" font-size="12.5" font-weight="bold" lengthAdjust="spacing" textLength="150.4395" x="1486.6979" y="86.8449">R&#200;GLES DE GESTION:</text><text fill="#FFFFFF" font-family="'Verdana'" font-size="12.5" lengthAdjust="spacing" textLength="4.3945" x="1486.6979" y="102.0365">&#160;</text><text fill="#FFFFFF" font-family="'Verdana'" font-size="12.5" lengthAdjust="spacing" textLength="312.3962" x="1486.6979" y="117.2282">RG1: Un utilisateur peut ajouter plusieurs m&#233;dias</text><text fill="#FFFFFF" font-family="'Verdana'" font-size="12.5" lengthAdjust="spacing" textLength="169.6167" x="1508.6706" y="132.4198">&#224; ses favoris (relation 1:N)</text><text fill="#FFFFFF" font-family="'Verdana'" font-size="12.5" lengthAdjust="spacing" textLength="4.3945" x="1486.6979" y="147.6115">&#160;</text><text fill="#FFFFFF" font-family="'Verdana'" font-size="12.5" lengthAdjust="spacing" textLength="260.6506" x="1486.6979" y="162.8031">RG2: Un m&#233;dia peut &#234;tre dans les favoris</text><text fill="#FFFFFF" font-family="'Verdana'" font-size="12.5" lengthAdjust="spacing" textLength="240.2588" x="1508.6706" y="177.9948">de plusieurs utilisateurs (relation N:1)</text><text fill="#FFFFFF" font-family="'Verdana'" font-size="12.5" lengthAdjust="spacing" textLength="4.3945" x="1486.6979" y="193.1864">&#160;</text><text fill="#FFFFFF" font-family="'Verdana'" font-size="12.5" lengthAdjust="spacing" textLength="349.0295" x="1486.6979" y="208.3781">RG3: Le score d'un m&#233;dia est calcul&#233; automatiquement</text><text fill="#FFFFFF" font-family="'Verdana'" font-size="12.5" lengthAdjust="spacing" textLength="212.2742" x="1508.6706" y="223.5697">comme la moyenne des notations</text><text fill="#FFFFFF" font-family="'Verdana'" font-size="12.5" lengthAdjust="spacing" textLength="4.3945" x="1486.6979" y="238.7614">&#160;</text><text fill="#FFFFFF" font-family="'Verdana'" font-size="12.5" lengthAdjust="spacing" textLength="288.0737" x="1486.6979" y="253.953">RG4: Seuls les utilisateurs connect&#233;s peuvent</text><text fill="#FFFFFF" font-family="'Verdana'" font-size="12.5" lengthAdjust="spacing" textLength="173.1445" x="1508.6706" y="269.1447">noter et ajouter aux favoris</text><text fill="#FFFFFF" font-family="'Verdana'" font-size="12.5" lengthAdjust="spacing" textLength="4.3945" x="1486.6979" y="284.3363">&#160;</text><text fill="#FFFFFF" font-family="'Verdana'" font-size="12.5" lengthAdjust="spacing" textLength="284.6375" x="1486.6979" y="299.528">RG5: Les administrateurs peuvent g&#233;rer tous</text><text fill="#FFFFFF" font-family="'Verdana'" font-size="12.5" lengthAdjust="spacing" textLength="168.9331" x="1508.6706" y="314.7196">les contenus et utilisateurs</text><text fill="#FFFFFF" font-family="'Verdana'" font-size="12.5" lengthAdjust="spacing" textLength="4.3945" x="1486.6979" y="329.9113">&#160;</text><text fill="#FFFFFF" font-family="'Verdana'" font-size="12.5" lengthAdjust="spacing" textLength="267.6941" x="1486.6979" y="345.1029">RG6: Les contacts peuvent &#234;tre anonymes</text><text fill="#FFFFFF" font-family="'Verdana'" font-size="12.5" lengthAdjust="spacing" textLength="222.6563" x="1508.6706" y="360.2946">(pas de lien obligatoire avec Users)</text><text fill="#FFFFFF" font-family="'Verdana'" font-size="12.5" lengthAdjust="spacing" textLength="4.3945" x="1486.6979" y="375.4862">&#160;</text><text fill="#FFFFFF" font-family="'Verdana'" font-size="12.5" lengthAdjust="spacing" textLength="276.7639" x="1486.6979" y="390.6779">RG7: Un utilisateur suspendu (statut=false)</text><text fill="#FFFFFF" font-family="'Verdana'" font-size="12.5" lengthAdjust="spacing" textLength="162.1887" x="1508.6706" y="405.8695">ne peut plus se connecter</text><text fill="#FFFFFF" font-family="'Verdana'" font-size="12.5" lengthAdjust="spacing" textLength="4.3945" x="1486.6979" y="421.0612">&#160;</text><text fill="#FFFFFF" font-family="'Verdana'" font-size="12.5" lengthAdjust="spacing" textLength="275.0305" x="1486.6979" y="436.2528">RG8: Les m&#233;dias non publi&#233;s (statut=false)</text><text fill="#FFFFFF" font-family="'Verdana'" font-size="12.5" lengthAdjust="spacing" textLength="221.0754" x="1508.6706" y="451.4445">ne sont visibles que par les admins</text></g><!--link user to profil--><g class="link" data-entity-1="user" data-entity-2="profil" data-source-line="72" data-uid="lnk9" id="link_user_profil"><path codeLine="72" d="M273.609,757.8674 C291.7548,800.3153 301.1793,822.3506 316.6688,858.5694" fill="none" id="user-profil" style="stroke:#EC7211;stroke-width:3.125;"/><line style="stroke:#EC7211;stroke-width:3.125;" x1="268.1399" x2="275.8024" y1="755.6739" y2="752.3983"/><line style="stroke:#EC7211;stroke-width:3.125;" x1="269.3682" x2="277.0308" y1="758.5474" y2="755.2718"/><line style="stroke:#EC7211;stroke-width:3.125;" x1="273.609" x2="270.3333" y1="757.8674" y2="750.2048"/><line style="stroke:#EC7211;stroke-width:3.125;" x1="320.7649" x2="329.7882" y1="868.147" y2="873.3514"/><line style="stroke:#EC7211;stroke-width:3.125;" x1="320.7649" x2="318.2951" y1="868.147" y2="878.2666"/><line style="stroke:#EC7211;stroke-width:3.125;" x1="320.7649" x2="324.0417" y1="868.147" y2="875.809"/><ellipse cx="318.3073" cy="862.4004" fill="none" rx="4.1667" ry="4.1667" style="stroke:#EC7211;stroke-width:3.125;"/><text fill="#4E5D6C" font-family="'Verdana'" font-size="12.5" lengthAdjust="spacing" textLength="51.0803" x="300.5938" y="799.9178">poss&#232;de</text></g><!--link media to profil--><g class="link" data-entity-1="media" data-entity-2="profil" data-source-line="73" data-uid="lnk10" id="link_media_profil"><path codeLine="73" d="M672.1653,711.778 C624.3007,743.6113 572.3854,776.8298 517.9792,808.184 C491.4271,823.4861 481.6875,821.9548 456.5208,839.434 C441.1875,850.0798 439.7395,850.2898 425.5936,862.9773" fill="none" id="media-profil" style="stroke:#EC7211;stroke-width:3.125;"/><line style="stroke:#EC7211;stroke-width:3.125;" x1="673.3273" x2="677.9422" y1="706.0012" y2="712.94"/><line style="stroke:#EC7211;stroke-width:3.125;" x1="670.7252" x2="675.3401" y1="707.7317" y2="714.6706"/><line style="stroke:#EC7211;stroke-width:3.125;" x1="672.1653" x2="679.1042" y1="711.778" y2="707.1632"/><line style="stroke:#EC7211;stroke-width:3.125;" x1="417.8391" x2="415.8085" y1="869.9324" y2="880.1492"/><line style="stroke:#EC7211;stroke-width:3.125;" x1="417.8391" x2="407.4623" y1="869.9324" y2="870.8438"/><line style="stroke:#EC7211;stroke-width:3.125;" x1="417.8391" x2="411.6354" y1="869.9324" y2="875.4965"/><ellipse cx="422.4918" cy="865.7593" fill="none" rx="4.1667" ry="4.1667" style="stroke:#EC7211;stroke-width:3.125;"/><text fill="#4E5D6C" font-family="'Verdana'" font-size="12.5" lengthAdjust="spacing" textLength="59.8572" x="567.7292" y="799.9178">dans liste</text></g><!--link user to notation--><g class="link" data-entity-1="user" data-entity-2="notation" data-source-line="74" data-uid="lnk11" id="link_user_notation"><path codeLine="74" d="M186.3195,758.1598 C177.1945,787.3994 175.4829,792.9003 166.5767,821.4316" fill="none" id="user-notation" style="stroke:#EC7211;stroke-width:3.125;"/><line style="stroke:#EC7211;stroke-width:3.125;" x1="183.5833" x2="191.5383" y1="752.941" y2="755.4236"/><line style="stroke:#EC7211;stroke-width:3.125;" x1="182.6524" x2="190.6073" y1="755.9241" y2="758.4067"/><line style="stroke:#EC7211;stroke-width:3.125;" x1="186.3195" x2="188.8021" y1="758.1598" y2="750.2048"/><line style="stroke:#EC7211;stroke-width:3.125;" x1="163.4727" x2="166.9557" y1="831.3751" y2="841.1922"/><line style="stroke:#EC7211;stroke-width:3.125;" x1="163.4727" x2="155.0235" y1="831.3751" y2="837.4675"/><line style="stroke:#EC7211;stroke-width:3.125;" x1="163.4727" x2="160.9896" y1="831.3751" y2="839.3298"/><ellipse cx="165.3351" cy="825.409" fill="none" rx="4.1667" ry="4.1667" style="stroke:#EC7211;stroke-width:3.125;"/><text fill="#4E5D6C" font-family="'Verdana'" font-size="12.5" lengthAdjust="spacing" textLength="27.8687" x="183.0833" y="799.9178">note</text></g><!--link media to notation--><g class="link" data-entity-1="media" data-entity-2="notation" data-source-line="75" data-uid="lnk12" id="link_media_notation"><path codeLine="75" d="M671.5875,682.674 C602.0458,710.8094 514.3021,746.4757 430.4792,781.1007 C401.7083,792.9861 395.4063,798.2778 365.8958,808.184 C312.8854,825.9861 293.6042,813.5694 244.0208,839.434 C237.7917,842.684 247.3698,836.1484 241.2969,840.0754" fill="none" id="media-notation" style="stroke:#EC7211;stroke-width:3.125;"/><line style="stroke:#EC7211;stroke-width:3.125;" x1="673.8873" x2="677.0127" y1="677.2488" y2="684.9738"/><line style="stroke:#EC7211;stroke-width:3.125;" x1="670.9904" x2="674.1158" y1="678.4208" y2="686.1458"/><line style="stroke:#EC7211;stroke-width:3.125;" x1="671.5875" x2="679.3125" y1="682.674" y2="679.5486"/><line style="stroke:#EC7211;stroke-width:3.125;" x1="232.5498" x2="228.9459" y1="845.7318" y2="855.5052"/><line style="stroke:#EC7211;stroke-width:3.125;" x1="232.5498" x2="222.1583" y1="845.7318" y2="845.0086"/><line style="stroke:#EC7211;stroke-width:3.125;" x1="232.5498" x2="225.5521" y1="845.7318" y2="850.2569"/><ellipse cx="237.7981" cy="842.338" fill="none" rx="4.1667" ry="4.1667" style="stroke:#EC7211;stroke-width:3.125;"/><text fill="#4E5D6C" font-family="'Verdana'" font-size="12.5" lengthAdjust="spacing" textLength="67.4988" x="436.7292" y="799.9178">re&#231;oit note</text></g><!--link media to genre--><g class="link" data-entity-1="media" data-entity-2="genre" data-source-line="76" data-uid="lnk13" id="link_media_genre"><path codeLine="76" d="M890.7555,722.1208 C940.4534,759.0687 986,794.6007 1037.7708,839.434 C1050.8021,850.7153 1050.7865,850.2503 1063.4844,862.4795" fill="none" id="media-genre" style="stroke:#EC7211;stroke-width:3.125;"/><line style="stroke:#EC7211;stroke-width:3.125;" x1="882.396" x2="871.9794" y1="715.9059" y2="715.9497"/><line style="stroke:#EC7211;stroke-width:3.125;" x1="882.396" x2="879.4373" y1="715.9059" y2="705.9183"/><line style="stroke:#EC7211;stroke-width:3.125;" x1="882.396" x2="875.7083" y1="715.9059" y2="710.934"/><ellipse cx="887.4117" cy="719.6349" fill="none" rx="4.1667" ry="4.1667" style="stroke:#EC7211;stroke-width:3.125;"/><line style="stroke:#EC7211;stroke-width:3.125;" x1="1070.9873" x2="1081.3251" y1="869.7054" y2="870.9844"/><line style="stroke:#EC7211;stroke-width:3.125;" x1="1070.9873" x2="1072.654" y1="869.7054" y2="879.9878"/><line style="stroke:#EC7211;stroke-width:3.125;" x1="1070.9873" x2="1076.9896" y1="869.7054" y2="875.4861"/><ellipse cx="1066.4856" cy="865.3698" fill="none" rx="4.1667" ry="4.1667" style="stroke:#EC7211;stroke-width:3.125;"/><text fill="#4E5D6C" font-family="'Verdana'" font-size="12.5" lengthAdjust="spacing" textLength="76.4648" x="1002.9479" y="799.9178">appartient &#224;</text></g><!--link media to categorie--><g class="link" data-entity-1="media" data-entity-2="categorie" data-source-line="77" data-uid="lnk14" id="link_media_categorie"><path codeLine="77" d="M837.1049,767.1769 C854.8653,804.9998 862.802,821.8699 878.8541,856.0574" fill="none" id="media-categorie" style="stroke:#EC7211;stroke-width:3.125;"/><line style="stroke:#EC7211;stroke-width:3.125;" x1="832.6774" x2="823.4781" y1="757.748" y2="752.8613"/><line style="stroke:#EC7211;stroke-width:3.125;" x1="832.6774" x2="834.7928" y1="757.748" y2="747.5483"/><line style="stroke:#EC7211;stroke-width:3.125;" x1="832.6774" x2="829.1354" y1="757.748" y2="750.2048"/><ellipse cx="835.3339" cy="763.4053" fill="none" rx="4.1667" ry="4.1667" style="stroke:#EC7211;stroke-width:3.125;"/><line style="stroke:#EC7211;stroke-width:3.125;" x1="884.3966" x2="876.8533" y1="858.0582" y2="861.5999"/><line style="stroke:#EC7211;stroke-width:3.125;" x1="883.0684" x2="875.5252" y1="855.2295" y2="858.7712"/><line style="stroke:#EC7211;stroke-width:3.125;" x1="878.8541" x2="882.3958" y1="856.0574" y2="863.6007"/><text fill="#4E5D6C" font-family="'Verdana'" font-size="12.5" lengthAdjust="spacing" textLength="72.0337" x="861.75" y="799.9178">class&#233; dans</text></g><!--SRC=[jLRTRjis5BxtKt2vgJFOxTAjss2q1Rn4JJt4TY0xGu5X26Y9TbX8eieVRqOIO9TzZDwjxcleJVOa-qXAjcBBM85kGG39EkJXTxvppdVubRvXAIFqTzKLacOBrj9S9umCHLnynFDKP17BjM49YHav4rbMh9aYNNBAyJR43jfgFI91Xct5MhMOVLcHewlfu68mwK-3g_28K4MCOfBSjWZ-lYOy9Zqo64s3yo1qdxhTqfA95APV-k7fwtxOVlhisN5fo2KxQ6CfvScEYToQZBypxBvSamfz7RFhd2h5chr8aHomA4srqR3zD1vV1FrHwxwrYNCOd0twBiAKnPn-HeZO9mySf5Vv0OkHoJLFwQBH73CLIPvhBZAOfy6RwI7WvUT8E0GLl5eub-7urU32nPDBCGUj_nuGZw-DvWbNL3CZTrOviwUcyS3JyMZQFvsw4oEHQHhfBocJfbAeeZPlcMusfKmfpssDl1ZXN4UIqPBNCnJpT30CFgCepeDH6BYG5Ym3rLyGK4DkQmUDnjF-T30UkRCoeJtM_oDb5KpDzZv68aq1Y7BPnE06LOt1UlxnxNmS3ZnT4NOiXEJ_DMNRzje4zc3ZlTMma2KEgMeviRgxwtR5RTK6FNAK2wMAZp4xQdaVUmjYcYa2KZMMr5tKA3Yo3Euug9ibA_uIN9FwidlXblbImXgQvrHg3WP9yQ6-wEwkHY0MHWdKhbWJY-l8HWWnrvBoJ4F1qGko-BX8y9eMQxYJBPTTBN8YvawlGPjjpx1l-P_qyBDRDfZNLlVXWR3UqEW61xPdaLpb-jWjSBhwz_ltv3P4ernVJOAmGznh_smu6DsxHRwRUaHBmrv00_YyG-OqKUo5CYfdMMnGCR6ZfVK0fuk-2QZJKdSiifDs2EBXh4DIEx7ACwqCzX30YcKPisMpIGNcrROzr3x2tCmINgmhZ3Cf34yIaVcJdS1xYWXIvQ3imfTySQDj0BvycYAewj5YNdMrwDedkK8WwidGXks1NMLri2HdK2Mw55m2WasjvuVW5mC91icO2wvSKU2tGWXB58ptDJ4v1grIzbIMePfKH37s5NV7Ga9Xvl2v6yrCQ8rsH3WLWqq1kQKs9R-UF7vyyirlJV01qaLWrqg7-vrvj0CTpxJubB9jTDqThQ46T2sADQue4lULNRW9cplkou7JXFKIQeJ8PPK3kcIHvzw1QbUpYcOYMm6A5GS-IzZnVh5W1KbCLIks0N5JgZNJNCYKQhAa2O_tgItht7K_DWLlWk7bHOMo7rbm7JIsemBrVIPfYiTh8INez7KaK3WHFauYY4R4kgzukUqLHH1gvLD_8pA6RnF6tVDdeHWdxLmWAQvfrF7Xh6zaPm_XI9WbGpfmD-oGIv6RnCu9l9zQSR8juYilGBNXA1YcJARsRjaXnPzaoJBkevZanJhYymTDPJDKri0M6eIyr3LO5qovQdHuaTBm_0JUdizUXiNxSu0aPm4v3oPsXlQUFvczX17_MDLhxgktmg0kIPuOnQqqbCVxei1VyQ7UKwIzgP-JtkYuSlxKEVSxlT_YavKCFpyUj2JnzxlQWNLXglaVzKus_h_jaGjMtlBYHniL8E02cKeYaq2ZROkWx2oVTdfNPxbXJXBQB8lL2T_rK2ScyMWV849VP2oowRQHBMkUNKVRiLEHICqVjKYTtsSMkI8qHWLWZihIQUc9eACbDcfXDjnO0BONMMRSJDlHRUVrU- -rRDcjEyzwsS4RZ-tSjtw2PY42Eh-WMjYxpLO2Dap_i5ScrRWYRQy1BrpN7sz8AENDvXELKj7bfCvv_D5ZBSkAMEqeXuqwx58XChBaJe0KgJeagPXKs-xu1m00]--></g></svg>