<svg xmlns="http://www.w3.org/2000/svg" xmlns:xlink="http://www.w3.org/1999/xlink" contentStyleType="text/css" data-diagram-type="SEQUENCE" height="2119.7917px" preserveAspectRatio="none" style="width:1503px;height:2119px;" version="1.1" viewBox="0 0 1503 2119" width="1503.125px" zoomAndPan="magnify"><title>Diagramme de S&#233;quence - Inscription Utilisateur</title><defs><linearGradient id="g31d043yk15ue0" x1="50%" x2="50%" y1="0%" y2="100%"><stop offset="0%" stop-color="#FFFFFF"/><stop offset="100%" stop-color="#EEEEEE"/></linearGradient><linearGradient id="g31d043yk15ue1" x1="50%" x2="50%" y1="0%" y2="100%"><stop offset="0%" stop-color="#F18E3E"/><stop offset="100%" stop-color="#EC7211"/></linearGradient></defs><g><rect fill="url(#g31d043yk15ue0)" height="46.1528" rx="4.1667" ry="4.1667" style="stroke:#EEEEEE;stroke-width:1.0417;" width="593.9433" x="455.6524" y="10.4167"/><text fill="#EC7211" font-family="'Verdana'" font-size="20.8333" font-weight="bold" lengthAdjust="spacing" textLength="573.1099" x="466.069" y="41.7786">Diagramme de S&#233;quence - Inscription Utilisateur</text><g><title>AuthController</title><rect fill="#8191A3" height="1500.5493" style="stroke:#181818;stroke-width:1.0417;" width="10.4167" x="592.0858" y="332.7026"/></g><g><title>Validator</title><rect fill="#8191A3" height="93.925" style="stroke:#181818;stroke-width:1.0417;" width="10.4167" x="945.0785" y="426.6276"/></g><g><title>UsersRepository</title><rect fill="#8191A3" height="135.7666" style="stroke:#181818;stroke-width:1.0417;" width="10.4167" x="1187.262" y="605.7109"/></g><g><title>Database</title><rect fill="#8191A3" height="40.1917" style="stroke:#181818;stroke-width:1.0417;" width="10.4167" x="1386.2518" y="661.0942"/></g><g><title>Database</title><rect fill="#8191A3" height="40.1917" style="stroke:#181818;stroke-width:1.0417;" width="10.4167" x="1386.2518" y="1336.8856"/></g><rect fill="none" height="1289.7827" rx="4.1667" ry="4.1667" style="stroke:#4E5D6C;stroke-width:1.5625;" width="1485.4563" x="10.4167" y="536.1776"/><rect fill="none" height="892.7246" rx="4.1667" ry="4.1667" style="stroke:#4E5D6C;stroke-width:1.5625;" width="1464.623" x="20.8333" y="757.1025"/><g><title>Visiteur</title><rect fill="#000000" fill-opacity="0.00000" height="1876.7741" width="8.3333" x="59.1838" y="150.9277"/><line style="stroke:#ABB6C2;stroke-width:0.5208;stroke-dasharray:5.2083,5.2083;" x1="62.5" x2="62.5" y1="150.9277" y2="2027.7018"/></g><g><title>Frontend</title><rect fill="#000000" fill-opacity="0.00000" height="1876.7741" width="8.3333" x="301.888" y="150.9277"/><line style="stroke:#ABB6C2;stroke-width:0.5208;stroke-dasharray:5.2083,5.2083;" x1="305.0954" x2="305.0954" y1="150.9277" y2="2027.7018"/></g><g><title>AuthController</title><rect fill="#000000" fill-opacity="0.00000" height="1876.7741" width="8.3333" x="593.1274" y="150.9277"/><line style="stroke:#ABB6C2;stroke-width:0.5208;stroke-dasharray:5.2083,5.2083;" x1="596.5841" x2="596.5841" y1="150.9277" y2="2027.7018"/></g><g><title>Validator</title><rect fill="#000000" fill-opacity="0.00000" height="1876.7741" width="8.3333" x="946.1202" y="150.9277"/><line style="stroke:#ABB6C2;stroke-width:0.5208;stroke-dasharray:5.2083,5.2083;" x1="949.3429" x2="949.3429" y1="150.9277" y2="2027.7018"/></g><g><title>UsersRepository</title><rect fill="#000000" fill-opacity="0.00000" height="1876.7741" width="8.3333" x="1188.3036" y="150.9277"/><line style="stroke:#ABB6C2;stroke-width:0.5208;stroke-dasharray:5.2083,5.2083;" x1="1191.6433" x2="1191.6433" y1="150.9277" y2="2027.7018"/></g><g><title>Database</title><rect fill="#000000" fill-opacity="0.00000" height="1876.7741" width="8.3333" x="1387.2935" y="150.9277"/><line style="stroke:#ABB6C2;stroke-width:0.5208;stroke-dasharray:5.2083,5.2083;" x1="1391.214" x2="1391.214" y1="150.9277" y2="2027.7018"/></g><g class="participant participant-head" data-participant="visitor"><text fill="#4E5D6C" font-family="'Verdana'" font-size="12.5" lengthAdjust="spacing" textLength="47.5342" x="36.4583" y="143.0949">Visiteur</text><ellipse cx="63.3504" cy="71.6736" fill="url(#g31d043yk15ue1)" rx="8.3333" ry="8.3333" style="stroke:#EC7211;stroke-width:0.5208;"/><path d="M63.3504,80.0069 L63.3504,108.1319 M49.8088,88.3403 L76.8921,88.3403 M63.3504,108.1319 L49.8088,123.7569 M63.3504,108.1319 L76.8921,123.7569" fill="none" style="stroke:#EC7211;stroke-width:0.5208;"/></g><g class="participant participant-tail" data-participant="visitor"><text fill="#4E5D6C" font-family="'Verdana'" font-size="12.5" lengthAdjust="spacing" textLength="47.5342" x="36.4583" y="2044.4356">Visiteur</text><ellipse cx="63.3504" cy="2061.1226" fill="url(#g31d043yk15ue1)" rx="8.3333" ry="8.3333" style="stroke:#EC7211;stroke-width:0.5208;"/><path d="M63.3504,2069.456 L63.3504,2097.581 M49.8088,2077.7893 L76.8921,2077.7893 M63.3504,2097.581 L49.8088,2113.206 M63.3504,2097.581 L76.8921,2113.206" fill="none" style="stroke:#EC7211;stroke-width:0.5208;"/></g><g class="participant participant-head" data-participant="frontend"><rect fill="url(#g31d043yk15ue1)" height="55.3833" rx="4.1667" ry="4.1667" style="stroke:#EC7211;stroke-width:0.5208;" width="81.0852" x="265.5121" y="94.5028"/><text fill="#FFFFFF" font-family="'Verdana'" font-size="12.5" lengthAdjust="spacing" textLength="56.0852" x="278.0121" y="119.5699">Frontend</text><text fill="#FFFFFF" font-family="'Verdana'" font-size="12.5" lengthAdjust="spacing" textLength="46.4355" x="282.8369" y="134.7616">(React)</text></g><g class="participant participant-tail" data-participant="frontend"><rect fill="url(#g31d043yk15ue1)" height="55.3833" rx="4.1667" ry="4.1667" style="stroke:#EC7211;stroke-width:0.5208;" width="81.0852" x="265.5121" y="2026.6602"/><text fill="#FFFFFF" font-family="'Verdana'" font-size="12.5" lengthAdjust="spacing" textLength="56.0852" x="278.0121" y="2051.7273">Frontend</text><text fill="#FFFFFF" font-family="'Verdana'" font-size="12.5" lengthAdjust="spacing" textLength="46.4355" x="282.8369" y="2066.9189">(React)</text></g><g class="participant participant-head" data-participant="auth"><rect fill="url(#g31d043yk15ue1)" height="40.1917" rx="4.1667" ry="4.1667" style="stroke:#EC7211;stroke-width:0.5208;" width="116.0034" x="539.2924" y="109.6944"/><text fill="#FFFFFF" font-family="'Verdana'" font-size="12.5" lengthAdjust="spacing" textLength="91.0034" x="551.7924" y="134.7616">AuthController</text></g><g class="participant participant-tail" data-participant="auth"><rect fill="url(#g31d043yk15ue1)" height="40.1917" rx="4.1667" ry="4.1667" style="stroke:#EC7211;stroke-width:0.5208;" width="116.0034" x="539.2924" y="2026.6602"/><text fill="#FFFFFF" font-family="'Verdana'" font-size="12.5" lengthAdjust="spacing" textLength="91.0034" x="551.7924" y="2051.7273">AuthController</text></g><g class="participant participant-head" data-participant="validator"><rect fill="url(#g31d043yk15ue1)" height="40.1917" rx="4.1667" ry="4.1667" style="stroke:#EC7211;stroke-width:0.5208;" width="81.0547" x="909.7595" y="109.6944"/><text fill="#FFFFFF" font-family="'Verdana'" font-size="12.5" lengthAdjust="spacing" textLength="56.0547" x="922.2595" y="134.7616">Validator</text></g><g class="participant participant-tail" data-participant="validator"><rect fill="url(#g31d043yk15ue1)" height="40.1917" rx="4.1667" ry="4.1667" style="stroke:#EC7211;stroke-width:0.5208;" width="81.0547" x="909.7595" y="2026.6602"/><text fill="#FFFFFF" font-family="'Verdana'" font-size="12.5" lengthAdjust="spacing" textLength="56.0547" x="922.2595" y="2051.7273">Validator</text></g><g class="participant participant-head" data-participant="repo"><rect fill="url(#g31d043yk15ue1)" height="40.1917" rx="4.1667" ry="4.1667" style="stroke:#EC7211;stroke-width:0.5208;" width="126.6541" x="1129.1433" y="109.6944"/><text fill="#FFFFFF" font-family="'Verdana'" font-size="12.5" lengthAdjust="spacing" textLength="101.6541" x="1141.6433" y="134.7616">UsersRepository</text></g><g class="participant participant-tail" data-participant="repo"><rect fill="url(#g31d043yk15ue1)" height="40.1917" rx="4.1667" ry="4.1667" style="stroke:#EC7211;stroke-width:0.5208;" width="126.6541" x="1129.1433" y="2026.6602"/><text fill="#FFFFFF" font-family="'Verdana'" font-size="12.5" lengthAdjust="spacing" textLength="101.6541" x="1141.6433" y="2051.7273">UsersRepository</text></g><g class="participant participant-head" data-participant="db"><rect fill="url(#g31d043yk15ue1)" height="55.3833" rx="4.1667" ry="4.1667" style="stroke:#EC7211;stroke-width:0.5208;" width="83.8257" x="1349.5473" y="94.5028"/><text fill="#FFFFFF" font-family="'Verdana'" font-size="12.5" lengthAdjust="spacing" textLength="58.8257" x="1362.0473" y="119.5699">Database</text><text fill="#FFFFFF" font-family="'Verdana'" font-size="12.5" lengthAdjust="spacing" textLength="54.6265" x="1364.1469" y="134.7616">(MySQL)</text></g><g class="participant participant-tail" data-participant="db"><rect fill="url(#g31d043yk15ue1)" height="55.3833" rx="4.1667" ry="4.1667" style="stroke:#EC7211;stroke-width:0.5208;" width="83.8257" x="1349.5473" y="2026.6602"/><text fill="#FFFFFF" font-family="'Verdana'" font-size="12.5" lengthAdjust="spacing" textLength="58.8257" x="1362.0473" y="2051.7273">Database</text><text fill="#FFFFFF" font-family="'Verdana'" font-size="12.5" lengthAdjust="spacing" textLength="54.6265" x="1364.1469" y="2066.9189">(MySQL)</text></g><g><title>AuthController</title><rect fill="#8191A3" height="1500.5493" style="stroke:#181818;stroke-width:1.0417;" width="10.4167" x="592.0858" y="332.7026"/></g><g><title>Validator</title><rect fill="#8191A3" height="93.925" style="stroke:#181818;stroke-width:1.0417;" width="10.4167" x="945.0785" y="426.6276"/></g><g><title>UsersRepository</title><rect fill="#8191A3" height="135.7666" style="stroke:#181818;stroke-width:1.0417;" width="10.4167" x="1187.262" y="605.7109"/></g><g><title>Database</title><rect fill="#8191A3" height="40.1917" style="stroke:#181818;stroke-width:1.0417;" width="10.4167" x="1386.2518" y="661.0942"/></g><g><title>Database</title><rect fill="#8191A3" height="40.1917" style="stroke:#181818;stroke-width:1.0417;" width="10.4167" x="1386.2518" y="1336.8856"/></g><g class="message" data-participant-1="visitor" data-participant-2="frontend"><polygon fill="#EC7211" points="293.5547,204.2277,303.9714,208.3944,293.5547,212.561,297.7214,208.3944" style="stroke:#EC7211;stroke-width:1.0417;"/><line style="stroke:#EC7211;stroke-width:3.125;" x1="63.3504" x2="299.8047" y1="208.3944" y2="208.3944"/><text fill="#4E5D6C" font-family="'Verdana'" font-size="12.5" lengthAdjust="spacing" textLength="117.4316" x="75.8504" y="183.2865">Saisit informations</text><text fill="#4E5D6C" font-family="'Verdana'" font-size="12.5" lengthAdjust="spacing" textLength="207.2876" x="75.8504" y="198.4782">(nom, pr&#233;nom, email, password)</text></g><g class="message" data-participant-1="frontend" data-participant-2="frontend"><line style="stroke:#EC7211;stroke-width:3.125;" x1="306.0547" x2="349.8047" y1="263.7777" y2="263.7777"/><line style="stroke:#EC7211;stroke-width:3.125;" x1="349.8047" x2="349.8047" y1="263.7777" y2="277.3193"/><line style="stroke:#EC7211;stroke-width:3.125;" x1="307.0964" x2="349.8047" y1="277.3193" y2="277.3193"/><polygon fill="#EC7211" points="317.513,273.1527,307.0964,277.3193,317.513,281.486,313.3464,277.3193" style="stroke:#EC7211;stroke-width:1.0417;"/><text fill="#4E5D6C" font-family="'Verdana'" font-size="12.5" lengthAdjust="spacing" textLength="130.9753" x="318.5547" y="238.6698">Validation c&#244;t&#233; client</text><text fill="#4E5D6C" font-family="'Verdana'" font-size="12.5" lengthAdjust="spacing" textLength="219.5374" x="318.5547" y="253.8615">(format email, longueur password)</text></g><g class="message" data-participant-1="frontend" data-participant-2="auth"><polygon fill="#EC7211" points="579.5858,328.536,590.0024,332.7026,579.5858,336.8693,583.7524,332.7026" style="stroke:#EC7211;stroke-width:1.0417;"/><line style="stroke:#EC7211;stroke-width:3.125;" x1="306.0547" x2="585.8358" y1="332.7026" y2="332.7026"/><text fill="#4E5D6C" font-family="'Verdana'" font-size="12.5" lengthAdjust="spacing" textLength="91.9128" x="318.5547" y="307.5948">POST /register</text><text fill="#4E5D6C" font-family="'Verdana'" font-size="12.5" lengthAdjust="spacing" textLength="255.8228" x="318.5547" y="322.7865">{lastName, firstName, email, password}</text></g><g class="message" data-participant-1="auth" data-participant-2="auth"><line style="stroke:#EC7211;stroke-width:3.125;" x1="602.5024" x2="646.2524" y1="372.8943" y2="372.8943"/><line style="stroke:#EC7211;stroke-width:3.125;" x1="646.2524" x2="646.2524" y1="372.8943" y2="386.436"/><line style="stroke:#EC7211;stroke-width:3.125;" x1="603.5441" x2="646.2524" y1="386.436" y2="386.436"/><polygon fill="#EC7211" points="613.9608,382.2693,603.5441,386.436,613.9608,390.6026,609.7941,386.436" style="stroke:#EC7211;stroke-width:1.0417;"/><text fill="#4E5D6C" font-family="'Verdana'" font-size="12.5" lengthAdjust="spacing" textLength="141.217" x="615.0024" y="362.9781">D&#233;code donn&#233;es JSON</text></g><g class="message" data-participant-1="auth" data-participant-2="validator"><polygon fill="#EC7211" points="932.5785,422.4609,942.9952,426.6276,932.5785,430.7943,936.7452,426.6276" style="stroke:#EC7211;stroke-width:1.0417;"/><line style="stroke:#EC7211;stroke-width:3.125;" x1="602.5024" x2="938.8285" y1="426.6276" y2="426.6276"/><text fill="#4E5D6C" font-family="'Verdana'" font-size="12.5" lengthAdjust="spacing" textLength="166.5222" x="615.0024" y="416.7114">validate(data, constraints)</text></g><g class="message" data-participant-1="validator" data-participant-2="validator"><line style="stroke:#EC7211;stroke-width:3.125;" x1="955.4952" x2="999.2452" y1="466.8193" y2="466.8193"/><line style="stroke:#EC7211;stroke-width:3.125;" x1="999.2452" x2="999.2452" y1="466.8193" y2="480.3609"/><line style="stroke:#EC7211;stroke-width:3.125;" x1="956.5369" x2="999.2452" y1="480.3609" y2="480.3609"/><polygon fill="#EC7211" points="966.9535,476.1943,956.5369,480.3609,966.9535,484.5276,962.7869,480.3609" style="stroke:#EC7211;stroke-width:1.0417;"/><text fill="#4E5D6C" font-family="'Verdana'" font-size="12.5" lengthAdjust="spacing" textLength="196.3501" x="967.9952" y="456.9031">V&#233;rifie NotBlank, Email, Length</text></g><g class="message" data-participant-1="validator" data-participant-2="auth"><polygon fill="#EC7211" points="613.9608,516.3859,603.5441,520.5526,613.9608,524.7192,609.7941,520.5526" style="stroke:#EC7211;stroke-width:1.0417;"/><line style="stroke:#EC7211;stroke-width:3.125;stroke-dasharray:2.0833,2.0833;" x1="607.7108" x2="949.2452" y1="520.5526" y2="520.5526"/><text fill="#4E5D6C" font-family="'Verdana'" font-size="12.5" lengthAdjust="spacing" textLength="103.6499" x="625.4191" y="510.6364">Violations ou OK</text></g><path d="M14.5833,536.1776 L86.025,536.1776 L86.025,553.4526 L75.6083,563.8692 L10.4167,563.8692 L10.4167,540.3442 A4.1667,4.1667 0 0 1 14.5833,536.1776" fill="#EEEEEE" style="stroke:#4E5D6C;stroke-width:1.5625;"/><rect fill="none" height="1289.7827" rx="4.1667" ry="4.1667" style="stroke:#4E5D6C;stroke-width:1.5625;" width="1485.4563" x="10.4167" y="536.1776"/><text fill="#0073BB" font-family="'Verdana'" font-size="12.5" font-weight="bold" lengthAdjust="spacing" textLength="18.3167" x="31.25" y="554.9947">alt</text><text fill="#4E5D6C" font-family="'Verdana'" font-size="12.5" font-weight="bold" lengthAdjust="spacing" textLength="128.1189" x="106.8583" y="556.0364">[Donn&#233;es valides]</text><g class="message" data-participant-1="auth" data-participant-2="repo"><polygon fill="#EC7211" points="1174.762,601.5442,1185.1786,605.7109,1174.762,609.8775,1178.9286,605.7109" style="stroke:#EC7211;stroke-width:1.0417;"/><line style="stroke:#EC7211;stroke-width:3.125;" x1="602.5024" x2="1181.012" y1="605.7109" y2="605.7109"/><text fill="#4E5D6C" font-family="'Verdana'" font-size="12.5" lengthAdjust="spacing" textLength="191.2964" x="615.0024" y="595.7947">findOneBy(['email' =&gt; email])</text></g><g class="message" data-participant-1="repo" data-participant-2="db"><polygon fill="#EC7211" points="1373.7518,656.9275,1384.1685,661.0942,1373.7518,665.2608,1377.9185,661.0942" style="stroke:#EC7211;stroke-width:1.0417;"/><line style="stroke:#EC7211;stroke-width:3.125;" x1="1197.6786" x2="1380.0018" y1="661.0942" y2="661.0942"/><text fill="#4E5D6C" font-family="'Verdana'" font-size="12.5" lengthAdjust="spacing" textLength="138.8367" x="1210.1786" y="635.9863">SELECT * FROM users</text><text fill="#4E5D6C" font-family="'Verdana'" font-size="12.5" lengthAdjust="spacing" textLength="110.4553" x="1210.1786" y="651.178">WHERE email = ?</text></g><g class="message" data-participant-1="db" data-participant-2="repo"><polygon fill="#EC7211" points="1209.137,697.1191,1198.7203,701.2858,1209.137,705.4525,1204.9703,701.2858" style="stroke:#EC7211;stroke-width:1.0417;"/><line style="stroke:#EC7211;stroke-width:3.125;stroke-dasharray:2.0833,2.0833;" x1="1202.887" x2="1390.4185" y1="701.2858" y2="701.2858"/><text fill="#4E5D6C" font-family="'Verdana'" font-size="12.5" lengthAdjust="spacing" textLength="98.3154" x="1220.5953" y="691.3696">R&#233;sultat ou null</text></g><g class="message" data-participant-1="repo" data-participant-2="auth"><polygon fill="#EC7211" points="613.9608,737.3108,603.5441,741.4775,613.9608,745.6441,609.7941,741.4775" style="stroke:#EC7211;stroke-width:1.0417;"/><line style="stroke:#EC7211;stroke-width:3.125;stroke-dasharray:2.0833,2.0833;" x1="607.7108" x2="1191.4286" y1="741.4775" y2="741.4775"/><text fill="#4E5D6C" font-family="'Verdana'" font-size="12.5" lengthAdjust="spacing" textLength="115.8386" x="625.4191" y="731.5613">User entity ou null</text></g><path d="M25,757.1025 L96.4417,757.1025 L96.4417,774.3774 L86.025,784.7941 L20.8333,784.7941 L20.8333,761.2691 A4.1667,4.1667 0 0 1 25,757.1025" fill="#EEEEEE" style="stroke:#4E5D6C;stroke-width:1.5625;"/><rect fill="none" height="892.7246" rx="4.1667" ry="4.1667" style="stroke:#4E5D6C;stroke-width:1.5625;" width="1464.623" x="20.8333" y="757.1025"/><text fill="#0073BB" font-family="'Verdana'" font-size="12.5" font-weight="bold" lengthAdjust="spacing" textLength="18.3167" x="41.6667" y="775.9196">alt</text><text fill="#4E5D6C" font-family="'Verdana'" font-size="12.5" font-weight="bold" lengthAdjust="spacing" textLength="128.7598" x="117.275" y="776.9613">[Email disponible]</text><g class="message" data-participant-1="auth" data-participant-2="auth"><line style="stroke:#EC7211;stroke-width:3.125;" x1="602.5024" x2="646.2524" y1="826.6357" y2="826.6357"/><line style="stroke:#EC7211;stroke-width:3.125;" x1="646.2524" x2="646.2524" y1="826.6357" y2="840.1774"/><line style="stroke:#EC7211;stroke-width:3.125;" x1="603.5441" x2="646.2524" y1="840.1774" y2="840.1774"/><polygon fill="#EC7211" points="613.9608,836.0107,603.5441,840.1774,613.9608,844.3441,609.7941,840.1774" style="stroke:#EC7211;stroke-width:1.0417;"/><text fill="#4E5D6C" font-family="'Verdana'" font-size="12.5" lengthAdjust="spacing" textLength="76.2878" x="615.0024" y="816.7196">new Users()</text></g><g class="message" data-participant-1="auth" data-participant-2="auth"><line style="stroke:#EC7211;stroke-width:3.125;" x1="602.5024" x2="646.2524" y1="880.3691" y2="880.3691"/><line style="stroke:#EC7211;stroke-width:3.125;" x1="646.2524" x2="646.2524" y1="880.3691" y2="893.9107"/><line style="stroke:#EC7211;stroke-width:3.125;" x1="603.5441" x2="646.2524" y1="893.9107" y2="893.9107"/><polygon fill="#EC7211" points="613.9608,889.7441,603.5441,893.9107,613.9608,898.0774,609.7941,893.9107" style="stroke:#EC7211;stroke-width:1.0417;"/><text fill="#4E5D6C" font-family="'Verdana'" font-size="12.5" lengthAdjust="spacing" textLength="197.2351" x="615.0024" y="870.4529">setLastName(data['lastName'])</text></g><g class="message" data-participant-1="auth" data-participant-2="auth"><line style="stroke:#EC7211;stroke-width:3.125;" x1="602.5024" x2="646.2524" y1="934.1024" y2="934.1024"/><line style="stroke:#EC7211;stroke-width:3.125;" x1="646.2524" x2="646.2524" y1="934.1024" y2="947.644"/><line style="stroke:#EC7211;stroke-width:3.125;" x1="603.5441" x2="646.2524" y1="947.644" y2="947.644"/><polygon fill="#EC7211" points="613.9608,943.4774,603.5441,947.644,613.9608,951.8107,609.7941,947.644" style="stroke:#EC7211;stroke-width:1.0417;"/><text fill="#4E5D6C" font-family="'Verdana'" font-size="12.5" lengthAdjust="spacing" textLength="200.9399" x="615.0024" y="924.1862">setFirstName(data['firstName'])</text></g><g class="message" data-participant-1="auth" data-participant-2="auth"><line style="stroke:#EC7211;stroke-width:3.125;" x1="602.5024" x2="646.2524" y1="987.8357" y2="987.8357"/><line style="stroke:#EC7211;stroke-width:3.125;" x1="646.2524" x2="646.2524" y1="987.8357" y2="1001.3774"/><line style="stroke:#EC7211;stroke-width:3.125;" x1="603.5441" x2="646.2524" y1="1001.3774" y2="1001.3774"/><polygon fill="#EC7211" points="613.9608,997.2107,603.5441,1001.3774,613.9608,1005.544,609.7941,1001.3774" style="stroke:#EC7211;stroke-width:1.0417;"/><text fill="#4E5D6C" font-family="'Verdana'" font-size="12.5" lengthAdjust="spacing" textLength="144.4336" x="615.0024" y="977.9195">setEmail(data['email'])</text></g><g class="message" data-participant-1="auth" data-participant-2="auth"><line style="stroke:#EC7211;stroke-width:3.125;" x1="602.5024" x2="646.2524" y1="1041.569" y2="1041.569"/><line style="stroke:#EC7211;stroke-width:3.125;" x1="646.2524" x2="646.2524" y1="1041.569" y2="1055.1107"/><line style="stroke:#EC7211;stroke-width:3.125;" x1="603.5441" x2="646.2524" y1="1055.1107" y2="1055.1107"/><polygon fill="#EC7211" points="613.9608,1050.944,603.5441,1055.1107,613.9608,1059.2773,609.7941,1055.1107" style="stroke:#EC7211;stroke-width:1.0417;"/><text fill="#4E5D6C" font-family="'Verdana'" font-size="12.5" lengthAdjust="spacing" textLength="307.1594" x="615.0024" y="1031.6528">password_hash(password, PASSWORD_BCRYPT)</text></g><g class="message" data-participant-1="auth" data-participant-2="auth"><line style="stroke:#EC7211;stroke-width:3.125;" x1="602.5024" x2="646.2524" y1="1095.3023" y2="1095.3023"/><line style="stroke:#EC7211;stroke-width:3.125;" x1="646.2524" x2="646.2524" y1="1095.3023" y2="1108.844"/><line style="stroke:#EC7211;stroke-width:3.125;" x1="603.5441" x2="646.2524" y1="1108.844" y2="1108.844"/><polygon fill="#EC7211" points="613.9608,1104.6773,603.5441,1108.844,613.9608,1113.0107,609.7941,1108.844" style="stroke:#EC7211;stroke-width:1.0417;"/><text fill="#4E5D6C" font-family="'Verdana'" font-size="12.5" lengthAdjust="spacing" textLength="193.3289" x="615.0024" y="1085.3861">setPassword(hashedPassword)</text></g><g class="message" data-participant-1="auth" data-participant-2="auth"><line style="stroke:#EC7211;stroke-width:3.125;" x1="602.5024" x2="646.2524" y1="1149.0356" y2="1149.0356"/><line style="stroke:#EC7211;stroke-width:3.125;" x1="646.2524" x2="646.2524" y1="1149.0356" y2="1162.5773"/><line style="stroke:#EC7211;stroke-width:3.125;" x1="603.5441" x2="646.2524" y1="1162.5773" y2="1162.5773"/><polygon fill="#EC7211" points="613.9608,1158.4106,603.5441,1162.5773,613.9608,1166.744,609.7941,1162.5773" style="stroke:#EC7211;stroke-width:1.0417;"/><text fill="#4E5D6C" font-family="'Verdana'" font-size="12.5" lengthAdjust="spacing" textLength="139.7339" x="615.0024" y="1139.1195">setRole('ROLE_USER')</text></g><g class="message" data-participant-1="auth" data-participant-2="auth"><line style="stroke:#EC7211;stroke-width:3.125;" x1="602.5024" x2="646.2524" y1="1202.769" y2="1202.769"/><line style="stroke:#EC7211;stroke-width:3.125;" x1="646.2524" x2="646.2524" y1="1202.769" y2="1216.3106"/><line style="stroke:#EC7211;stroke-width:3.125;" x1="603.5441" x2="646.2524" y1="1216.3106" y2="1216.3106"/><polygon fill="#EC7211" points="613.9608,1212.144,603.5441,1216.3106,613.9608,1220.4773,609.7941,1216.3106" style="stroke:#EC7211;stroke-width:1.0417;"/><text fill="#4E5D6C" font-family="'Verdana'" font-size="12.5" lengthAdjust="spacing" textLength="96.1792" x="615.0024" y="1192.8528">setStatus(true)</text></g><g class="message" data-participant-1="auth" data-participant-2="repo"><polygon fill="#EC7211" points="1179.9703,1252.3356,1190.387,1256.5023,1179.9703,1260.6689,1184.137,1256.5023" style="stroke:#EC7211;stroke-width:1.0417;"/><line style="stroke:#EC7211;stroke-width:3.125;" x1="602.5024" x2="1186.2203" y1="1256.5023" y2="1256.5023"/><text fill="#4E5D6C" font-family="'Verdana'" font-size="12.5" lengthAdjust="spacing" textLength="80.5054" x="615.0024" y="1246.5861">persist(user)</text></g><g class="message" data-participant-1="auth" data-participant-2="repo"><polygon fill="#EC7211" points="1179.9703,1292.5273,1190.387,1296.6939,1179.9703,1300.8606,1184.137,1296.6939" style="stroke:#EC7211;stroke-width:1.0417;"/><line style="stroke:#EC7211;stroke-width:3.125;" x1="602.5024" x2="1186.2203" y1="1296.6939" y2="1296.6939"/><text fill="#4E5D6C" font-family="'Verdana'" font-size="12.5" lengthAdjust="spacing" textLength="41.51" x="615.0024" y="1286.7778">flush()</text></g><g class="message" data-participant-1="repo" data-participant-2="db"><polygon fill="#EC7211" points="1373.7518,1332.7189,1384.1685,1336.8856,1373.7518,1341.0522,1377.9185,1336.8856" style="stroke:#EC7211;stroke-width:1.0417;"/><line style="stroke:#EC7211;stroke-width:3.125;" x1="1192.4703" x2="1380.0018" y1="1336.8856" y2="1336.8856"/><text fill="#4E5D6C" font-family="'Verdana'" font-size="12.5" lengthAdjust="spacing" textLength="135.7544" x="1204.9703" y="1326.9694">INSERT INTO users...</text></g><g class="message" data-participant-1="db" data-participant-2="repo"><polygon fill="#EC7211" points="1203.9286,1372.9106,1193.512,1377.0772,1203.9286,1381.2439,1199.762,1377.0772" style="stroke:#EC7211;stroke-width:1.0417;"/><line style="stroke:#EC7211;stroke-width:3.125;stroke-dasharray:2.0833,2.0833;" x1="1197.6786" x2="1390.4185" y1="1377.0772" y2="1377.0772"/><text fill="#4E5D6C" font-family="'Verdana'" font-size="12.5" lengthAdjust="spacing" textLength="62.6587" x="1215.387" y="1367.1611">ID g&#233;n&#233;r&#233;</text></g><g class="message" data-participant-1="auth" data-participant-2="frontend"><polygon fill="#EC7211" points="317.513,1443.4855,307.0964,1447.6522,317.513,1451.8188,313.3464,1447.6522" style="stroke:#EC7211;stroke-width:1.0417;"/><line style="stroke:#EC7211;stroke-width:3.125;stroke-dasharray:2.0833,2.0833;" x1="311.263" x2="591.0441" y1="1447.6522" y2="1447.6522"/><text fill="#4E5D6C" font-family="'Verdana'" font-size="12.5" lengthAdjust="spacing" textLength="87.5854" x="328.9714" y="1407.3527">JsonResponse</text><text fill="#4E5D6C" font-family="'Verdana'" font-size="12.5" lengthAdjust="spacing" textLength="115.4785" x="328.9714" y="1422.5444">{status: 'success',</text><text fill="#4E5D6C" font-family="'Verdana'" font-size="12.5" lengthAdjust="spacing" textLength="175.2258" x="333.3659" y="1437.736">message: 'Utilisateur cr&#233;&#233;'}</text></g><g class="message" data-participant-1="frontend" data-participant-2="visitor"><polygon fill="#EC7211" points="74.8088,1498.8688,64.3921,1503.0355,74.8088,1507.2021,70.6421,1503.0355" style="stroke:#EC7211;stroke-width:1.0417;"/><line style="stroke:#EC7211;stroke-width:3.125;stroke-dasharray:2.0833,2.0833;" x1="68.5588" x2="305.013" y1="1503.0355" y2="1503.0355"/><text fill="#4E5D6C" font-family="'Verdana'" font-size="12.5" lengthAdjust="spacing" textLength="150.0671" x="86.2671" y="1477.9277">Confirmation inscription</text><text fill="#4E5D6C" font-family="'Verdana'" font-size="12.5" lengthAdjust="spacing" textLength="116.3086" x="86.2671" y="1493.1193">+ redirection login</text></g><line style="stroke:#4E5D6C;stroke-width:1.0417;stroke-dasharray:2.0833,2.0833;" x1="20.8333" x2="1485.4563" y1="1512.4105" y2="1512.4105"/><text fill="#4E5D6C" font-family="'Verdana'" font-size="12.5" font-weight="bold" lengthAdjust="spacing" textLength="134.3506" x="31.25" y="1530.186">[Email d&#233;j&#224; utilis&#233;]</text><g class="message" data-participant-1="auth" data-participant-2="frontend"><polygon fill="#EC7211" points="317.513,1597.1354,307.0964,1601.3021,317.513,1605.4688,313.3464,1601.3021" style="stroke:#EC7211;stroke-width:1.0417;"/><line style="stroke:#EC7211;stroke-width:3.125;stroke-dasharray:2.0833,2.0833;" x1="311.263" x2="591.0441" y1="1601.3021" y2="1601.3021"/><text fill="#4E5D6C" font-family="'Verdana'" font-size="12.5" lengthAdjust="spacing" textLength="87.5854" x="328.9714" y="1561.0026">JsonResponse</text><text fill="#4E5D6C" font-family="'Verdana'" font-size="12.5" lengthAdjust="spacing" textLength="98.5962" x="328.9714" y="1576.1943">{status: 'error',</text><text fill="#4E5D6C" font-family="'Verdana'" font-size="12.5" lengthAdjust="spacing" textLength="229.9805" x="333.3659" y="1591.3859">message: 'Utilisateur d&#233;j&#224; existant'}</text></g><g class="message" data-participant-1="frontend" data-participant-2="visitor"><polygon fill="#EC7211" points="74.8088,1637.3271,64.3921,1641.4937,74.8088,1645.6604,70.6421,1641.4937" style="stroke:#EC7211;stroke-width:1.0417;"/><line style="stroke:#EC7211;stroke-width:3.125;stroke-dasharray:2.0833,2.0833;" x1="68.5588" x2="305.013" y1="1641.4937" y2="1641.4937"/><text fill="#4E5D6C" font-family="'Verdana'" font-size="12.5" lengthAdjust="spacing" textLength="132.0801" x="86.2671" y="1631.5776">Erreur email existant</text></g><line style="stroke:#4E5D6C;stroke-width:1.0417;stroke-dasharray:2.0833,2.0833;" x1="10.4167" x2="1495.873" y1="1658.1604" y2="1658.1604"/><text fill="#4E5D6C" font-family="'Verdana'" font-size="12.5" font-weight="bold" lengthAdjust="spacing" textLength="141.2964" x="20.8333" y="1675.9359">[Donn&#233;es invalides]</text><g class="message" data-participant-1="auth" data-participant-2="frontend"><polygon fill="#EC7211" points="317.513,1758.077,307.0964,1762.2437,317.513,1766.4103,313.3464,1762.2437" style="stroke:#EC7211;stroke-width:1.0417;"/><line style="stroke:#EC7211;stroke-width:3.125;stroke-dasharray:2.0833,2.0833;" x1="311.263" x2="591.0441" y1="1762.2437" y2="1762.2437"/><text fill="#4E5D6C" font-family="'Verdana'" font-size="12.5" lengthAdjust="spacing" textLength="87.5854" x="328.9714" y="1706.7525">JsonResponse</text><text fill="#4E5D6C" font-family="'Verdana'" font-size="12.5" lengthAdjust="spacing" textLength="98.5962" x="328.9714" y="1721.9442">{status: 'error',</text><text fill="#4E5D6C" font-family="'Verdana'" font-size="12.5" lengthAdjust="spacing" textLength="151.5503" x="333.3659" y="1737.1358">message: 'Invalid data',</text><text fill="#4E5D6C" font-family="'Verdana'" font-size="12.5" lengthAdjust="spacing" textLength="126.6235" x="333.3659" y="1752.3275">errors: [violations]}</text></g><g class="message" data-participant-1="frontend" data-participant-2="visitor"><polygon fill="#EC7211" points="74.8088,1813.4603,64.3921,1817.627,74.8088,1821.7936,70.6421,1817.627" style="stroke:#EC7211;stroke-width:1.0417;"/><line style="stroke:#EC7211;stroke-width:3.125;stroke-dasharray:2.0833,2.0833;" x1="68.5588" x2="305.013" y1="1817.627" y2="1817.627"/><text fill="#4E5D6C" font-family="'Verdana'" font-size="12.5" lengthAdjust="spacing" textLength="107.6416" x="86.2671" y="1792.5191">Affichage erreurs</text><text fill="#4E5D6C" font-family="'Verdana'" font-size="12.5" lengthAdjust="spacing" textLength="80.542" x="86.2671" y="1807.7108">de validation</text></g><path d="M602.0833,1842.627 L602.0833,1915.5436 A4.1667,4.1667 0 0 0 606.25,1919.7103 L859.375,1919.7103 A4.1667,4.1667 0 0 0 863.5417,1915.5436 L863.5417,1848.877 L853.125,1838.4603 L606.25,1838.4603 A4.1667,4.1667 0 0 0 602.0833,1842.627" fill="#0073BB" style="stroke:#005C96;stroke-width:1.0417;"/><path d="M853.125,1838.4603 L853.125,1846.7936 A2.0833,2.0833 0 0 0 855.2083,1848.877 L863.5417,1848.877 L853.125,1838.4603" fill="#0073BB" style="stroke:#005C96;stroke-width:1.0417;"/><text fill="#FFFFFF" font-family="'Verdana'" font-size="12.5" lengthAdjust="spacing" textLength="229.6631" x="613.5417" y="1861.4441">Le mot de passe est imm&#233;diatement</text><text fill="#FFFFFF" font-family="'Verdana'" font-size="12.5" lengthAdjust="spacing" textLength="218.9453" x="613.5417" y="1876.6357">hach&#233; avec bcrypt avant stockage.</text><text fill="#FFFFFF" font-family="'Verdana'" font-size="12.5" lengthAdjust="spacing" textLength="212.5488" x="613.5417" y="1891.8274">Aucun mot de passe en clair n'est</text><text fill="#FFFFFF" font-family="'Verdana'" font-size="12.5" lengthAdjust="spacing" textLength="166.8701" x="613.5417" y="1907.019">conserv&#233; dans le syst&#232;me.</text><path d="M955.2083,1934.6436 L955.2083,2007.5602 A4.1667,4.1667 0 0 0 959.375,2011.7269 L1212.5,2011.7269 A4.1667,4.1667 0 0 0 1216.6667,2007.5602 L1216.6667,1940.8936 L1206.25,1930.4769 L959.375,1930.4769 A4.1667,4.1667 0 0 0 955.2083,1934.6436" fill="#0073BB" style="stroke:#005C96;stroke-width:1.0417;"/><path d="M1206.25,1930.4769 L1206.25,1938.8102 A2.0833,2.0833 0 0 0 1208.3333,1940.8936 L1216.6667,1940.8936 L1206.25,1930.4769" fill="#0073BB" style="stroke:#005C96;stroke-width:1.0417;"/><text fill="#FFFFFF" font-family="'Verdana'" font-size="12.5" lengthAdjust="spacing" textLength="229.7974" x="966.6667" y="1953.4607">Les contraintes Symfony permettent</text><text fill="#FFFFFF" font-family="'Verdana'" font-size="12.5" lengthAdjust="spacing" textLength="223.114" x="966.6667" y="1968.6523">une validation robuste c&#244;t&#233; serveur</text><text fill="#FFFFFF" font-family="'Verdana'" font-size="12.5" lengthAdjust="spacing" textLength="197.3816" x="966.6667" y="1983.844">en compl&#233;ment de la validation</text><text fill="#FFFFFF" font-family="'Verdana'" font-size="12.5" lengthAdjust="spacing" textLength="69.0674" x="966.6667" y="1999.0356">c&#244;t&#233; client.</text><!--SRC=[fLRDRkCs4BxhAQQvo6wTz1vWjqXY1yqs6tkj98iY2G9Q6jliIgHBKawDnRvBZzMzRw0Nwv3KhtUTecWEZaZEVFpcdz-PDMO8x4KVIyN42WF3JOemvcobM4P72K9K5h_dA6A4OxWIEbPyOxWKS6TuoZKpcAiWOB6H2exkkUPsumYOXgrTI1Lic38yvXic31nTAYaCYkHH3EP8MaCdkgns-x9dkLbVq86IQOeUaz5MN-YUfJnXT8-_irxrXUuqAZt7ZNICTavKqR8lDMQ6BPX6ulP-5tsuzjoIHH1Kfi3nsuOgd4B4x3PmiPGgOzOfcbI5p4QmKMNXFZ1ZFAKrq_f5gcGODFfzhCeCwzYu_DkK1SGfHs48qAFNIAaKgvnSV03IEeZWPjFe5dvKkEBQe7eKdrEcpGtBS0HBhkhFFN9VN1pvbcBg7Ut0Mj1nMSIICYAHGfG5QdWNJM-28EoIJsWxjZ5Zd3Zf1g893E5KtpYW7pQoujhBws5Be8ragxg7SryMYYyvmeqqvoaJdqOmyHPTerWH_uvcQyKzbwaF5iWSfhy42NxZqe2b1iQreMwVh07w2-jxOsznBYY1RC2SDvr8RRHDCRfnoKKo5NY-6po4JYY4Ds-z-DFGAzG4N5BQ7QTA4Cd29jhaUd9n2z_3vNpw7dARp8_Yuy-J-SIZm1lugOz3IMlNf7tSyfYNXSvJGxb4XeiyzMGxvbTQ_kxMOxPwW7AHczqXpOQtfq6-Sv60XEkD57oHeZlm_hkWugXyr-aXzVbUqWbySGJqO7X8HAEvhjBRfTH3M6Tx-FIQqcLT2PLMKnclgpdBAXKVpiFYTMazhvbU3-hL26PdKVHnEXy_dr_CVvtTldRTh58QM0XCPatP7rQPonG7uNnwFNc-YoRpy3NPYF8XrmEZScp5Ei6AMBx55LDKzoZ0jiUlmAhqsb2GgDqCR7uE3majqvmSqHxtylpgXjZUqh_RgS_oavEJ5cWlIx_ExwinhAZjKdMMHIk2trBSezVlnU-q57EqYMjdmMVjF7GAeSxZ6BKEHuy2ClfWAwJTpXo4c6ukY_1B0z-sPjkxgYbo2ZJLADdypA3vqGpLH_436PDmXR4xIkMAYpvfJ3NMnLKMlvL_LaNKCVc_s8HAIVMAHTKT-0T5beRalvisKShg-RvKgtdcDD-T6Sw4fhToqUsk_vVxbKS3Mvxko0cHzCEswVjFteW31fmjgRMl2SsgaYdKQfDcCf1wOEte3WqtAWCXRHlagpLrrwNV0vf3a4bZNr6sz0bHqtCXoyeYuQIPeVFCciLh6XziYp4iOhNR6Fgs3n9jPFo9YDWQEClZNEo1qLCXPLo120cNPEmWHRKbh8JHTAE7dDvfK_wL4OArqrBS9zfEFCksDxiXscLBANQsi3CqnhFDHTSPeEGYfoT6_MYnz_jcRjd9R9EMXJNJiavPrulGV-Tq6Fu3]--></g></svg>