<svg xmlns="http://www.w3.org/2000/svg" xmlns:xlink="http://www.w3.org/1999/xlink" contentStyleType="text/css" data-diagram-type="SEQUENCE" height="1560.4167px" preserveAspectRatio="none" style="width:1479px;height:1560px;" version="1.1" viewBox="0 0 1479 1560" width="1479.1667px" zoomAndPan="magnify"><title>Diagramme de S&#233;quence - Connexion Utilisateur</title><defs><linearGradient id="g1kp9z046tzpwk0" x1="50%" x2="50%" y1="0%" y2="100%"><stop offset="0%" stop-color="#FFFFFF"/><stop offset="100%" stop-color="#EEEEEE"/></linearGradient><linearGradient id="g1kp9z046tzpwk1" x1="50%" x2="50%" y1="0%" y2="100%"><stop offset="0%" stop-color="#F18E3E"/><stop offset="100%" stop-color="#EC7211"/></linearGradient></defs><g><rect fill="url(#g1kp9z046tzpwk0)" height="46.1528" rx="4.1667" ry="4.1667" style="stroke:#EEEEEE;stroke-width:1.0417;" width="588.4094" x="443.9962" y="10.4167"/><text fill="#EC7211" font-family="'Verdana'" font-size="20.8333" font-weight="bold" lengthAdjust="spacing" textLength="567.5761" x="454.4128" y="41.7786">Diagramme de S&#233;quence - Connexion Utilisateur</text><g><title>AuthController</title><rect fill="#8191A3" height="1002.1912" style="stroke:#181818;stroke-width:1.0417;" width="10.4167" x="479.9174" y="302.3193"/></g><g><title>UsersRepository</title><rect fill="#8191A3" height="135.7666" style="stroke:#181818;stroke-width:1.0417;" width="10.4167" x="798.9197" y="396.2443"/></g><g><title>Database</title><rect fill="#8191A3" height="40.1917" style="stroke:#181818;stroke-width:1.0417;" width="10.4167" x="997.9095" y="451.6276"/></g><g><title>JWTManager</title><rect fill="#8191A3" height="40.1917" style="stroke:#181818;stroke-width:1.0417;" width="10.4167" x="1185.9589" y="715.8691"/></g><rect fill="none" height="749.5829" rx="4.1667" ry="4.1667" style="stroke:#4E5D6C;stroke-width:1.5625;" width="1295.637" x="10.4167" y="547.6359"/><rect fill="none" height="505.1331" rx="4.1667" ry="4.1667" style="stroke:#4E5D6C;stroke-width:1.5625;" width="1274.8037" x="20.8333" y="646.3359"/><g><title>Utilisateur</title><rect fill="#000000" fill-opacity="0.00000" height="1317.6493" width="8.3333" x="67.4174" y="150.9277"/><line style="stroke:#ABB6C2;stroke-width:0.5208;stroke-dasharray:5.2083,5.2083;" x1="70.8333" x2="70.8333" y1="150.9277" y2="1468.5771"/></g><g><title>Frontend</title><rect fill="#000000" fill-opacity="0.00000" height="1317.6493" width="8.3333" x="240.4867" y="150.9277"/><line style="stroke:#ABB6C2;stroke-width:0.5208;stroke-dasharray:5.2083,5.2083;" x1="243.6941" x2="243.6941" y1="150.9277" y2="1468.5771"/></g><g><title>AuthController</title><rect fill="#000000" fill-opacity="0.00000" height="1317.6493" width="8.3333" x="480.9591" y="150.9277"/><line style="stroke:#ABB6C2;stroke-width:0.5208;stroke-dasharray:5.2083,5.2083;" x1="484.4157" x2="484.4157" y1="150.9277" y2="1468.5771"/></g><g><title>UsersRepository</title><rect fill="#000000" fill-opacity="0.00000" height="1317.6493" width="8.3333" x="799.9613" y="150.9277"/><line style="stroke:#ABB6C2;stroke-width:0.5208;stroke-dasharray:5.2083,5.2083;" x1="803.301" x2="803.301" y1="150.9277" y2="1468.5771"/></g><g><title>Database</title><rect fill="#000000" fill-opacity="0.00000" height="1317.6493" width="8.3333" x="998.9512" y="150.9277"/><line style="stroke:#ABB6C2;stroke-width:0.5208;stroke-dasharray:5.2083,5.2083;" x1="1002.8717" x2="1002.8717" y1="150.9277" y2="1468.5771"/></g><g><title>JWTManager</title><rect fill="#000000" fill-opacity="0.00000" height="1317.6493" width="8.3333" x="1187.0005" y="150.9277"/><line style="stroke:#ABB6C2;stroke-width:0.5208;stroke-dasharray:5.2083,5.2083;" x1="1190.8641" x2="1190.8641" y1="150.9277" y2="1468.5771"/></g><g class="participant participant-head" data-participant="user"><text fill="#4E5D6C" font-family="'Verdana'" font-size="12.5" lengthAdjust="spacing" textLength="64.0015" x="36.4583" y="143.0949">Utilisateur</text><ellipse cx="71.5841" cy="71.6736" fill="url(#g1kp9z046tzpwk1)" rx="8.3333" ry="8.3333" style="stroke:#EC7211;stroke-width:0.5208;"/><path d="M71.5841,80.0069 L71.5841,108.1319 M58.0424,88.3403 L85.1257,88.3403 M71.5841,108.1319 L58.0424,123.7569 M71.5841,108.1319 L85.1257,123.7569" fill="none" style="stroke:#EC7211;stroke-width:0.5208;"/></g><g class="participant participant-tail" data-participant="user"><text fill="#4E5D6C" font-family="'Verdana'" font-size="12.5" lengthAdjust="spacing" textLength="64.0015" x="36.4583" y="1485.3109">Utilisateur</text><ellipse cx="71.5841" cy="1501.9979" fill="url(#g1kp9z046tzpwk1)" rx="8.3333" ry="8.3333" style="stroke:#EC7211;stroke-width:0.5208;"/><path d="M71.5841,1510.3312 L71.5841,1538.4562 M58.0424,1518.6646 L85.1257,1518.6646 M71.5841,1538.4562 L58.0424,1554.0812 M71.5841,1538.4562 L85.1257,1554.0812" fill="none" style="stroke:#EC7211;stroke-width:0.5208;"/></g><g class="participant participant-head" data-participant="frontend"><rect fill="url(#g1kp9z046tzpwk1)" height="55.3833" rx="4.1667" ry="4.1667" style="stroke:#EC7211;stroke-width:0.5208;" width="81.0852" x="204.1107" y="94.5028"/><text fill="#FFFFFF" font-family="'Verdana'" font-size="12.5" lengthAdjust="spacing" textLength="56.0852" x="216.6107" y="119.5699">Frontend</text><text fill="#FFFFFF" font-family="'Verdana'" font-size="12.5" lengthAdjust="spacing" textLength="46.4355" x="221.4355" y="134.7616">(React)</text></g><g class="participant participant-tail" data-participant="frontend"><rect fill="url(#g1kp9z046tzpwk1)" height="55.3833" rx="4.1667" ry="4.1667" style="stroke:#EC7211;stroke-width:0.5208;" width="81.0852" x="204.1107" y="1467.5354"/><text fill="#FFFFFF" font-family="'Verdana'" font-size="12.5" lengthAdjust="spacing" textLength="56.0852" x="216.6107" y="1492.6025">Frontend</text><text fill="#FFFFFF" font-family="'Verdana'" font-size="12.5" lengthAdjust="spacing" textLength="46.4355" x="221.4355" y="1507.7942">(React)</text></g><g class="participant participant-head" data-participant="auth"><rect fill="url(#g1kp9z046tzpwk1)" height="40.1917" rx="4.1667" ry="4.1667" style="stroke:#EC7211;stroke-width:0.5208;" width="116.0034" x="427.124" y="109.6944"/><text fill="#FFFFFF" font-family="'Verdana'" font-size="12.5" lengthAdjust="spacing" textLength="91.0034" x="439.624" y="134.7616">AuthController</text></g><g class="participant participant-tail" data-participant="auth"><rect fill="url(#g1kp9z046tzpwk1)" height="40.1917" rx="4.1667" ry="4.1667" style="stroke:#EC7211;stroke-width:0.5208;" width="116.0034" x="427.124" y="1467.5354"/><text fill="#FFFFFF" font-family="'Verdana'" font-size="12.5" lengthAdjust="spacing" textLength="91.0034" x="439.624" y="1492.6025">AuthController</text></g><g class="participant participant-head" data-participant="repo"><rect fill="url(#g1kp9z046tzpwk1)" height="40.1917" rx="4.1667" ry="4.1667" style="stroke:#EC7211;stroke-width:0.5208;" width="126.6541" x="740.801" y="109.6944"/><text fill="#FFFFFF" font-family="'Verdana'" font-size="12.5" lengthAdjust="spacing" textLength="101.6541" x="753.301" y="134.7616">UsersRepository</text></g><g class="participant participant-tail" data-participant="repo"><rect fill="url(#g1kp9z046tzpwk1)" height="40.1917" rx="4.1667" ry="4.1667" style="stroke:#EC7211;stroke-width:0.5208;" width="126.6541" x="740.801" y="1467.5354"/><text fill="#FFFFFF" font-family="'Verdana'" font-size="12.5" lengthAdjust="spacing" textLength="101.6541" x="753.301" y="1492.6025">UsersRepository</text></g><g class="participant participant-head" data-participant="db"><rect fill="url(#g1kp9z046tzpwk1)" height="55.3833" rx="4.1667" ry="4.1667" style="stroke:#EC7211;stroke-width:0.5208;" width="83.8257" x="961.205" y="94.5028"/><text fill="#FFFFFF" font-family="'Verdana'" font-size="12.5" lengthAdjust="spacing" textLength="58.8257" x="973.705" y="119.5699">Database</text><text fill="#FFFFFF" font-family="'Verdana'" font-size="12.5" lengthAdjust="spacing" textLength="54.6265" x="975.8046" y="134.7616">(MySQL)</text></g><g class="participant participant-tail" data-participant="db"><rect fill="url(#g1kp9z046tzpwk1)" height="55.3833" rx="4.1667" ry="4.1667" style="stroke:#EC7211;stroke-width:0.5208;" width="83.8257" x="961.205" y="1467.5354"/><text fill="#FFFFFF" font-family="'Verdana'" font-size="12.5" lengthAdjust="spacing" textLength="58.8257" x="973.705" y="1492.6025">Database</text><text fill="#FFFFFF" font-family="'Verdana'" font-size="12.5" lengthAdjust="spacing" textLength="54.6265" x="975.8046" y="1507.7942">(MySQL)</text></g><g class="participant participant-head" data-participant="jwt"><rect fill="url(#g1kp9z046tzpwk1)" height="40.1917" rx="4.1667" ry="4.1667" style="stroke:#EC7211;stroke-width:0.5208;" width="104.7729" x="1138.7807" y="109.6944"/><text fill="#FFFFFF" font-family="'Verdana'" font-size="12.5" lengthAdjust="spacing" textLength="79.7729" x="1151.2807" y="134.7616">JWTManager</text></g><g class="participant participant-tail" data-participant="jwt"><rect fill="url(#g1kp9z046tzpwk1)" height="40.1917" rx="4.1667" ry="4.1667" style="stroke:#EC7211;stroke-width:0.5208;" width="104.7729" x="1138.7807" y="1467.5354"/><text fill="#FFFFFF" font-family="'Verdana'" font-size="12.5" lengthAdjust="spacing" textLength="79.7729" x="1151.2807" y="1492.6025">JWTManager</text></g><g><title>AuthController</title><rect fill="#8191A3" height="1002.1912" style="stroke:#181818;stroke-width:1.0417;" width="10.4167" x="479.9174" y="302.3193"/></g><g><title>UsersRepository</title><rect fill="#8191A3" height="135.7666" style="stroke:#181818;stroke-width:1.0417;" width="10.4167" x="798.9197" y="396.2443"/></g><g><title>Database</title><rect fill="#8191A3" height="40.1917" style="stroke:#181818;stroke-width:1.0417;" width="10.4167" x="997.9095" y="451.6276"/></g><g><title>JWTManager</title><rect fill="#8191A3" height="40.1917" style="stroke:#181818;stroke-width:1.0417;" width="10.4167" x="1185.9589" y="715.8691"/></g><g class="message" data-participant-1="user" data-participant-2="frontend"><polygon fill="#EC7211" points="232.1533,189.0361,242.57,193.2027,232.1533,197.3694,236.32,193.2027" style="stroke:#EC7211;stroke-width:1.0417;"/><line style="stroke:#EC7211;stroke-width:3.125;" x1="71.5841" x2="238.4033" y1="193.2027" y2="193.2027"/><text fill="#4E5D6C" font-family="'Verdana'" font-size="12.5" lengthAdjust="spacing" textLength="137.6526" x="84.0841" y="183.2865">Saisit email/password</text></g><g class="message" data-participant-1="frontend" data-participant-2="frontend"><line style="stroke:#EC7211;stroke-width:3.125;" x1="244.6533" x2="288.4033" y1="233.3944" y2="233.3944"/><line style="stroke:#EC7211;stroke-width:3.125;" x1="288.4033" x2="288.4033" y1="233.3944" y2="246.936"/><line style="stroke:#EC7211;stroke-width:3.125;" x1="245.695" x2="288.4033" y1="246.936" y2="246.936"/><polygon fill="#EC7211" points="256.1117,242.7694,245.695,246.936,256.1117,251.1027,251.945,246.936" style="stroke:#EC7211;stroke-width:1.0417;"/><text fill="#4E5D6C" font-family="'Verdana'" font-size="12.5" lengthAdjust="spacing" textLength="130.9753" x="257.1533" y="223.4782">Validation c&#244;t&#233; client</text></g><g class="message" data-participant-1="frontend" data-participant-2="auth"><polygon fill="#EC7211" points="467.4174,298.1527,477.8341,302.3193,467.4174,306.486,471.5841,302.3193" style="stroke:#EC7211;stroke-width:1.0417;"/><line style="stroke:#EC7211;stroke-width:3.125;" x1="244.6533" x2="473.6674" y1="302.3193" y2="302.3193"/><text fill="#4E5D6C" font-family="'Verdana'" font-size="12.5" lengthAdjust="spacing" textLength="73.8403" x="257.1533" y="277.2115">POST /login</text><text fill="#4E5D6C" font-family="'Verdana'" font-size="12.5" lengthAdjust="spacing" textLength="118.042" x="257.1533" y="292.4032">{email, password}</text></g><g class="message" data-participant-1="auth" data-participant-2="auth"><line style="stroke:#EC7211;stroke-width:3.125;" x1="490.3341" x2="534.0841" y1="342.511" y2="342.511"/><line style="stroke:#EC7211;stroke-width:3.125;" x1="534.0841" x2="534.0841" y1="342.511" y2="356.0527"/><line style="stroke:#EC7211;stroke-width:3.125;" x1="491.3757" x2="534.0841" y1="356.0527" y2="356.0527"/><polygon fill="#EC7211" points="501.7924,351.886,491.3757,356.0527,501.7924,360.2193,497.6257,356.0527" style="stroke:#EC7211;stroke-width:1.0417;"/><text fill="#4E5D6C" font-family="'Verdana'" font-size="12.5" lengthAdjust="spacing" textLength="163.0005" x="502.8341" y="332.5948">D&#233;code les donn&#233;es JSON</text></g><g class="message" data-participant-1="auth" data-participant-2="repo"><polygon fill="#EC7211" points="786.4197,392.0776,796.8363,396.2443,786.4197,400.411,790.5863,396.2443" style="stroke:#EC7211;stroke-width:1.0417;"/><line style="stroke:#EC7211;stroke-width:3.125;" x1="490.3341" x2="792.6697" y1="396.2443" y2="396.2443"/><text fill="#4E5D6C" font-family="'Verdana'" font-size="12.5" lengthAdjust="spacing" textLength="191.2964" x="502.8341" y="386.3281">findOneBy(['email' =&gt; email])</text></g><g class="message" data-participant-1="repo" data-participant-2="db"><polygon fill="#EC7211" points="985.4095,447.4609,995.8262,451.6276,985.4095,455.7943,989.5762,451.6276" style="stroke:#EC7211;stroke-width:1.0417;"/><line style="stroke:#EC7211;stroke-width:3.125;" x1="809.3363" x2="991.6595" y1="451.6276" y2="451.6276"/><text fill="#4E5D6C" font-family="'Verdana'" font-size="12.5" lengthAdjust="spacing" textLength="138.8367" x="821.8363" y="426.5198">SELECT * FROM users</text><text fill="#4E5D6C" font-family="'Verdana'" font-size="12.5" lengthAdjust="spacing" textLength="110.4553" x="821.8363" y="441.7114">WHERE email = ?</text></g><g class="message" data-participant-1="db" data-participant-2="repo"><polygon fill="#EC7211" points="820.7947,487.6526,810.378,491.8193,820.7947,495.9859,816.628,491.8193" style="stroke:#EC7211;stroke-width:1.0417;"/><line style="stroke:#EC7211;stroke-width:3.125;stroke-dasharray:2.0833,2.0833;" x1="814.5447" x2="1002.0762" y1="491.8193" y2="491.8193"/><text fill="#4E5D6C" font-family="'Verdana'" font-size="12.5" lengthAdjust="spacing" textLength="118.5059" x="832.253" y="481.9031">R&#233;sultat utilisateur</text></g><g class="message" data-participant-1="repo" data-participant-2="auth"><polygon fill="#EC7211" points="501.7924,527.8442,491.3757,532.0109,501.7924,536.1776,497.6257,532.0109" style="stroke:#EC7211;stroke-width:1.0417;"/><line style="stroke:#EC7211;stroke-width:3.125;stroke-dasharray:2.0833,2.0833;" x1="495.5424" x2="803.0863" y1="532.0109" y2="532.0109"/><text fill="#4E5D6C" font-family="'Verdana'" font-size="12.5" lengthAdjust="spacing" textLength="115.8386" x="513.2507" y="522.0947">User entity ou null</text></g><path d="M14.5833,547.6359 L86.025,547.6359 L86.025,564.9109 L75.6083,575.3276 L10.4167,575.3276 L10.4167,551.8026 A4.1667,4.1667 0 0 1 14.5833,547.6359" fill="#EEEEEE" style="stroke:#4E5D6C;stroke-width:1.5625;"/><rect fill="none" height="749.5829" rx="4.1667" ry="4.1667" style="stroke:#4E5D6C;stroke-width:1.5625;" width="1295.637" x="10.4167" y="547.6359"/><text fill="#0073BB" font-family="'Verdana'" font-size="12.5" font-weight="bold" lengthAdjust="spacing" textLength="18.3167" x="31.25" y="566.453">alt</text><text fill="#4E5D6C" font-family="'Verdana'" font-size="12.5" font-weight="bold" lengthAdjust="spacing" textLength="137.2192" x="106.8583" y="567.4947">[Utilisateur trouv&#233;]</text><g class="message" data-participant-1="auth" data-participant-2="auth"><line style="stroke:#EC7211;stroke-width:3.125;" x1="490.3341" x2="534.0841" y1="617.1692" y2="617.1692"/><line style="stroke:#EC7211;stroke-width:3.125;" x1="534.0841" x2="534.0841" y1="617.1692" y2="630.7109"/><line style="stroke:#EC7211;stroke-width:3.125;" x1="491.3757" x2="534.0841" y1="630.7109" y2="630.7109"/><polygon fill="#EC7211" points="501.7924,626.5442,491.3757,630.7109,501.7924,634.8775,497.6257,630.7109" style="stroke:#EC7211;stroke-width:1.0417;"/><text fill="#4E5D6C" font-family="'Verdana'" font-size="12.5" lengthAdjust="spacing" textLength="273.1689" x="502.8341" y="607.253">password_verify(password, user.password)</text></g><path d="M25,646.3359 L96.4417,646.3359 L96.4417,663.6108 L86.025,674.0275 L20.8333,674.0275 L20.8333,650.5025 A4.1667,4.1667 0 0 1 25,646.3359" fill="#EEEEEE" style="stroke:#4E5D6C;stroke-width:1.5625;"/><rect fill="none" height="505.1331" rx="4.1667" ry="4.1667" style="stroke:#4E5D6C;stroke-width:1.5625;" width="1274.8037" x="20.8333" y="646.3359"/><text fill="#0073BB" font-family="'Verdana'" font-size="12.5" font-weight="bold" lengthAdjust="spacing" textLength="18.3167" x="41.6667" y="665.153">alt</text><text fill="#4E5D6C" font-family="'Verdana'" font-size="12.5" font-weight="bold" lengthAdjust="spacing" textLength="159.5032" x="117.275" y="666.1947">[Mot de passe correct]</text><g class="message" data-participant-1="auth" data-participant-2="jwt"><polygon fill="#EC7211" points="1173.4589,711.7025,1183.8755,715.8691,1173.4589,720.0358,1177.6255,715.8691" style="stroke:#EC7211;stroke-width:1.0417;"/><line style="stroke:#EC7211;stroke-width:3.125;" x1="490.3341" x2="1179.7089" y1="715.8691" y2="715.8691"/><text fill="#4E5D6C" font-family="'Verdana'" font-size="12.5" lengthAdjust="spacing" textLength="77.7283" x="502.8341" y="705.953">create(user)</text></g><g class="message" data-participant-1="jwt" data-participant-2="auth"><polygon fill="#EC7211" points="501.7924,751.8941,491.3757,756.0608,501.7924,760.2275,497.6257,756.0608" style="stroke:#EC7211;stroke-width:1.0417;"/><line style="stroke:#EC7211;stroke-width:3.125;stroke-dasharray:2.0833,2.0833;" x1="495.5424" x2="1190.1255" y1="756.0608" y2="756.0608"/><text fill="#4E5D6C" font-family="'Verdana'" font-size="12.5" lengthAdjust="spacing" textLength="68.1824" x="513.2507" y="746.1446">JWT Token</text></g><g class="message" data-participant-1="auth" data-participant-2="frontend"><polygon fill="#EC7211" points="256.1117,837.6607,245.695,841.8274,256.1117,845.9941,251.945,841.8274" style="stroke:#EC7211;stroke-width:1.0417;"/><line style="stroke:#EC7211;stroke-width:3.125;stroke-dasharray:2.0833,2.0833;" x1="249.8617" x2="478.8757" y1="841.8274" y2="841.8274"/><text fill="#4E5D6C" font-family="'Verdana'" font-size="12.5" lengthAdjust="spacing" textLength="87.5854" x="267.57" y="786.3363">JsonResponse</text><text fill="#4E5D6C" font-family="'Verdana'" font-size="12.5" lengthAdjust="spacing" textLength="115.4785" x="267.57" y="801.5279">{status: 'success',</text><text fill="#4E5D6C" font-family="'Verdana'" font-size="12.5" lengthAdjust="spacing" textLength="119.2688" x="271.9645" y="816.7196">token: 'jwt_token',</text><text fill="#4E5D6C" font-family="'Verdana'" font-size="12.5" lengthAdjust="spacing" textLength="110.7178" x="271.9645" y="831.9112">datas: user_info}</text></g><g class="message" data-participant-1="frontend" data-participant-2="frontend"><line style="stroke:#EC7211;stroke-width:3.125;" x1="244.6533" x2="288.4033" y1="897.2107" y2="897.2107"/><line style="stroke:#EC7211;stroke-width:3.125;" x1="288.4033" x2="288.4033" y1="897.2107" y2="910.7524"/><line style="stroke:#EC7211;stroke-width:3.125;" x1="245.695" x2="288.4033" y1="910.7524" y2="910.7524"/><polygon fill="#EC7211" points="256.1117,906.5857,245.695,910.7524,256.1117,914.919,251.945,910.7524" style="stroke:#EC7211;stroke-width:1.0417;"/><text fill="#4E5D6C" font-family="'Verdana'" font-size="12.5" lengthAdjust="spacing" textLength="97.3694" x="257.1533" y="872.1029">Stockage token</text><text fill="#4E5D6C" font-family="'Verdana'" font-size="12.5" lengthAdjust="spacing" textLength="88.9526" x="257.1533" y="887.2945">(localStorage)</text></g><g class="message" data-participant-1="frontend" data-participant-2="frontend"><line style="stroke:#EC7211;stroke-width:3.125;" x1="244.6533" x2="288.4033" y1="950.944" y2="950.944"/><line style="stroke:#EC7211;stroke-width:3.125;" x1="288.4033" x2="288.4033" y1="950.944" y2="964.4857"/><line style="stroke:#EC7211;stroke-width:3.125;" x1="245.695" x2="288.4033" y1="964.4857" y2="964.4857"/><polygon fill="#EC7211" points="256.1117,960.319,245.695,964.4857,256.1117,968.6523,251.945,964.4857" style="stroke:#EC7211;stroke-width:1.0417;"/><text fill="#4E5D6C" font-family="'Verdana'" font-size="12.5" lengthAdjust="spacing" textLength="135.9741" x="257.1533" y="941.0278">Redirection selon r&#244;le</text></g><g class="message" data-participant-1="frontend" data-participant-2="user"><polygon fill="#EC7211" points="83.0424,1000.5107,72.6257,1004.6773,83.0424,1008.844,78.8757,1004.6773" style="stroke:#EC7211;stroke-width:1.0417;"/><line style="stroke:#EC7211;stroke-width:3.125;stroke-dasharray:2.0833,2.0833;" x1="76.7924" x2="243.6117" y1="1004.6773" y2="1004.6773"/><text fill="#4E5D6C" font-family="'Verdana'" font-size="12.5" lengthAdjust="spacing" textLength="114.8926" x="94.5007" y="994.7611">Connexion r&#233;ussie</text></g><line style="stroke:#4E5D6C;stroke-width:1.0417;stroke-dasharray:2.0833,2.0833;" x1="20.8333" x2="1295.637" y1="1014.0523" y2="1014.0523"/><text fill="#4E5D6C" font-family="'Verdana'" font-size="12.5" font-weight="bold" lengthAdjust="spacing" textLength="172.6807" x="31.25" y="1031.8278">[Mot de passe incorrect]</text><g class="message" data-participant-1="auth" data-participant-2="frontend"><polygon fill="#EC7211" points="256.1117,1098.7773,245.695,1102.9439,256.1117,1107.1106,251.945,1102.9439" style="stroke:#EC7211;stroke-width:1.0417;"/><line style="stroke:#EC7211;stroke-width:3.125;stroke-dasharray:2.0833,2.0833;" x1="249.8617" x2="478.8757" y1="1102.9439" y2="1102.9439"/><text fill="#4E5D6C" font-family="'Verdana'" font-size="12.5" lengthAdjust="spacing" textLength="87.5854" x="267.57" y="1062.6444">JsonResponse</text><text fill="#4E5D6C" font-family="'Verdana'" font-size="12.5" lengthAdjust="spacing" textLength="98.5962" x="267.57" y="1077.8361">{status: 'error',</text><text fill="#4E5D6C" font-family="'Verdana'" font-size="12.5" lengthAdjust="spacing" textLength="195.4529" x="271.9645" y="1093.0278">message: 'Invalid credentials'}</text></g><g class="message" data-participant-1="frontend" data-participant-2="user"><polygon fill="#EC7211" points="83.0424,1138.9689,72.6257,1143.1356,83.0424,1147.3022,78.8757,1143.1356" style="stroke:#EC7211;stroke-width:1.0417;"/><line style="stroke:#EC7211;stroke-width:3.125;stroke-dasharray:2.0833,2.0833;" x1="76.7924" x2="243.6117" y1="1143.1356" y2="1143.1356"/><text fill="#4E5D6C" font-family="'Verdana'" font-size="12.5" lengthAdjust="spacing" textLength="126.9775" x="94.5007" y="1133.2194">Erreur de connexion</text></g><line style="stroke:#4E5D6C;stroke-width:1.0417;stroke-dasharray:2.0833,2.0833;" x1="10.4167" x2="1306.0537" y1="1159.8022" y2="1159.8022"/><text fill="#4E5D6C" font-family="'Verdana'" font-size="12.5" font-weight="bold" lengthAdjust="spacing" textLength="167.8833" x="20.8333" y="1177.5777">[Utilisateur non trouv&#233;]</text><g class="message" data-participant-1="auth" data-participant-2="frontend"><polygon fill="#EC7211" points="256.1117,1244.5272,245.695,1248.6938,256.1117,1252.8605,251.945,1248.6938" style="stroke:#EC7211;stroke-width:1.0417;"/><line style="stroke:#EC7211;stroke-width:3.125;stroke-dasharray:2.0833,2.0833;" x1="249.8617" x2="478.8757" y1="1248.6938" y2="1248.6938"/><text fill="#4E5D6C" font-family="'Verdana'" font-size="12.5" lengthAdjust="spacing" textLength="87.5854" x="267.57" y="1208.3944">JsonResponse</text><text fill="#4E5D6C" font-family="'Verdana'" font-size="12.5" lengthAdjust="spacing" textLength="98.5962" x="267.57" y="1223.586">{status: 'error',</text><text fill="#4E5D6C" font-family="'Verdana'" font-size="12.5" lengthAdjust="spacing" textLength="195.4529" x="271.9645" y="1238.7777">message: 'Invalid credentials'}</text></g><g class="message" data-participant-1="frontend" data-participant-2="user"><polygon fill="#EC7211" points="83.0424,1284.7188,72.6257,1288.8855,83.0424,1293.0522,78.8757,1288.8855" style="stroke:#EC7211;stroke-width:1.0417;"/><line style="stroke:#EC7211;stroke-width:3.125;stroke-dasharray:2.0833,2.0833;" x1="76.7924" x2="243.6117" y1="1288.8855" y2="1288.8855"/><text fill="#4E5D6C" font-family="'Verdana'" font-size="12.5" lengthAdjust="spacing" textLength="126.9775" x="94.5007" y="1278.9693">Erreur de connexion</text></g><path d="M489.5833,1313.8855 L489.5833,1371.1772 A4.1667,4.1667 0 0 0 493.75,1375.3438 L729.1667,1375.3438 A4.1667,4.1667 0 0 0 733.3333,1371.1772 L733.3333,1320.1355 L722.9167,1309.7188 L493.75,1309.7188 A4.1667,4.1667 0 0 0 489.5833,1313.8855" fill="#0073BB" style="stroke:#005C96;stroke-width:1.0417;"/><path d="M722.9167,1309.7188 L722.9167,1318.0522 A2.0833,2.0833 0 0 0 725,1320.1355 L733.3333,1320.1355 L722.9167,1309.7188" fill="#0073BB" style="stroke:#005C96;stroke-width:1.0417;"/><text fill="#FFFFFF" font-family="'Verdana'" font-size="12.5" lengthAdjust="spacing" textLength="191.2354" x="501.0417" y="1332.7026">Le contr&#244;leur ne r&#233;v&#232;le jamais</text><text fill="#FFFFFF" font-family="'Verdana'" font-size="12.5" lengthAdjust="spacing" textLength="212.262" x="501.0417" y="1347.8943">si c'est l'email ou le mot de passe</text><text fill="#FFFFFF" font-family="'Verdana'" font-size="12.5" lengthAdjust="spacing" textLength="167.0593" x="501.0417" y="1363.0859">qui est incorrect (s&#233;curit&#233;)</text><path d="M1195.8333,1390.7104 L1195.8333,1448.0021 A4.1667,4.1667 0 0 0 1200,1452.1688 L1467.7083,1452.1688 A4.1667,4.1667 0 0 0 1471.875,1448.0021 L1471.875,1396.9604 L1461.4583,1386.5438 L1200,1386.5438 A4.1667,4.1667 0 0 0 1195.8333,1390.7104" fill="#0073BB" style="stroke:#005C96;stroke-width:1.0417;"/><path d="M1461.4583,1386.5438 L1461.4583,1394.8771 A2.0833,2.0833 0 0 0 1463.5417,1396.9604 L1471.875,1396.9604 L1461.4583,1386.5438" fill="#0073BB" style="stroke:#005C96;stroke-width:1.0417;"/><text fill="#FFFFFF" font-family="'Verdana'" font-size="12.5" lengthAdjust="spacing" textLength="244.1101" x="1207.2917" y="1409.5276">Le token JWT contient les informations</text><text fill="#FFFFFF" font-family="'Verdana'" font-size="12.5" lengthAdjust="spacing" textLength="194.0125" x="1207.2917" y="1424.7192">utilisateur encod&#233;es et sign&#233;es</text><text fill="#FFFFFF" font-family="'Verdana'" font-size="12.5" lengthAdjust="spacing" textLength="185.8032" x="1207.2917" y="1439.9109">avec une dur&#233;e de vie limit&#233;e</text><!--SRC=[jLNDJXj13BxlKxXSabIat96WQY6eHKdJRa8vD1KQTfqmC9a9ynCQ8TwdkVC6-sArP_EpIsdBfJb4kvxFuy_sP-yhVuLJ177dsiOAFS74IwyGZgMOM36bennXK2nl0-eCeGr7Hcly8Os6Co-LTC9Zi4aYCcyix5HiEo0S18SscGdhPIPdGdlOER56UzJvI3TJ9AzMn8rNrZhsNV1N5CzRenIM5meorK5d5CAbE3DE4eL5H5bwhQEEXHUNmY65xIq6NxfbsFooZZez7_Q45fDLiEixdoIS0hGFDnHX7mP2KZ30gP1gRoQSkpCsJpQ0ElYhK38NdYkM5O- -M4Ac96fVmtDQXFtS7mnXJvc9r2Dz7-_VXNM0XrXbEQVgbcM8JbldusAP6UgMGagCkbGiwU5qqF-q0N9P23YMEkzhVBzeVcl460quE2op-Twg18bLZ3xacrzoufrkvsW8h-4axVTYSzr8dt_ef9tI7GxWxTQVgajUxMtWj5YweBpm42hQoR7gKSRRPiNj1IgNz0im0NHGgkeHEIP2-QeSWHGJviKo0VezgTAwcXTpj7AyQAxVTsCwRzQlhUXRNa2NzupdGU1JXCnOYvcFXzK891SAa5aa4as-hRM5hFcofDP6nbSo9V71qDoWtW0gULRzdWIko-tK6PsYcndDOhztLEtWzg7XGfQXSutTaGRFKSX6brx4vsWbaGf2Cl4BgSVcOHFd3yeUU9FTqB2Kzz5aAPC9HLPBnjQ_l5FC9PUH1yEXedzRF2fynetyuX3kLvQFBPR1EOdreg2YzjHw9VNptNfPqT1QOsDnfbGxoefi7_MS9vhxdBCkXNADXx-oxX014cNEobdnBzdIlelK8-sgVZLb-Bk6_mVdb_9bhjMvYmieqOP7K4wkF9XnQGFeHZyVkycv83ThNloahygre2tX2ECaP0rq7bIvWNYqwNnQQHsXReC41csQ24r7IovOIMkqnPo06JpbKSvATwNBE5TCY9TkN8uiRZkDAvcvL7OHjOHMQ5oSw8da92vHmeWvPX0ebJnGCl6ZE9UqQkMKgU2MoYy0]--></g></svg>