<svg xmlns="http://www.w3.org/2000/svg" xmlns:xlink="http://www.w3.org/1999/xlink" contentStyleType="text/css" data-diagram-type="SEQUENCE" height="2153.125px" preserveAspectRatio="none" style="width:1672px;height:2153px;" version="1.1" viewBox="0 0 1672 2153" width="1672.9167px" zoomAndPan="magnify"><title>Diagramme de S&#233;quence - Ajout aux Favoris</title><defs><linearGradient id="giga1lhzhynqc0" x1="50%" x2="50%" y1="0%" y2="100%"><stop offset="0%" stop-color="#FFFFFF"/><stop offset="100%" stop-color="#EEEEEE"/></linearGradient><linearGradient id="giga1lhzhynqc1" x1="50%" x2="50%" y1="0%" y2="100%"><stop offset="0%" stop-color="#F18E3E"/><stop offset="100%" stop-color="#EC7211"/></linearGradient></defs><g><rect fill="url(#giga1lhzhynqc0)" height="46.1528" rx="4.1667" ry="4.1667" style="stroke:#EEEEEE;stroke-width:1.0417;" width="540.9037" x="567.2872" y="10.4167"/><text fill="#EC7211" font-family="'Verdana'" font-size="20.8333" font-weight="bold" lengthAdjust="spacing" textLength="520.0704" x="577.7039" y="41.7786">Diagramme de S&#233;quence - Ajout aux Favoris</text><g><title>ProfilController</title><rect fill="#8191A3" height="1533.3659" style="stroke:#181818;stroke-width:1.0417;" width="10.4167" x="568.9514" y="332.7026"/></g><g><title>UsersRepository</title><rect fill="#8191A3" height="135.7666" style="stroke:#181818;stroke-width:1.0417;" width="10.4167" x="812.2335" y="486.7859"/></g><g><title>ProfilsRepository</title><rect fill="#8191A3" height="135.7666" style="stroke:#181818;stroke-width:1.0417;" width="10.4167" x="1262.9415" y="722.9024"/></g><g><title>Database</title><rect fill="#8191A3" height="40.1917" style="stroke:#181818;stroke-width:1.0417;" width="10.4167" x="1546.0653" y="542.1692"/></g><g><title>Database</title><rect fill="#8191A3" height="40.1917" style="stroke:#181818;stroke-width:1.0417;" width="10.4167" x="1546.0653" y="778.2857"/></g><g><title>Database</title><rect fill="#8191A3" height="40.1917" style="stroke:#181818;stroke-width:1.0417;" width="10.4167" x="1546.0653" y="1200.6022"/></g><rect fill="none" height="1441.5243" rx="4.1667" ry="4.1667" style="stroke:#4E5D6C;stroke-width:1.5625;" width="1655.6864" x="10.4167" y="417.2526"/><rect fill="none" height="1074.8494" rx="4.1667" ry="4.1667" style="stroke:#4E5D6C;stroke-width:1.5625;" width="1634.8531" x="20.8333" y="638.1775"/><rect fill="none" height="692.983" rx="4.1667" ry="4.1667" style="stroke:#4E5D6C;stroke-width:1.5625;" width="1614.0198" x="31.25" y="874.294"/><g><title>Utilisateur</title><rect fill="#000000" fill-opacity="0.00000" height="1879.2074" width="8.3333" x="77.8341" y="166.1194"/><line style="stroke:#ABB6C2;stroke-width:0.5208;stroke-dasharray:5.2083,5.2083;" x1="81.25" x2="81.25" y1="166.1194" y2="2045.3267"/></g><g><title>Frontend</title><rect fill="#000000" fill-opacity="0.00000" height="1879.2074" width="8.3333" x="287.6709" y="166.1194"/><line style="stroke:#ABB6C2;stroke-width:0.5208;stroke-dasharray:5.2083,5.2083;" x1="290.8783" x2="290.8783" y1="166.1194" y2="2045.3267"/></g><g><title>ProfilController</title><rect fill="#000000" fill-opacity="0.00000" height="1879.2074" width="8.3333" x="569.9931" y="166.1194"/><line style="stroke:#ABB6C2;stroke-width:0.5208;stroke-dasharray:5.2083,5.2083;" x1="573.2798" x2="573.2798" y1="166.1194" y2="2045.3267"/></g><g><title>UsersRepository</title><rect fill="#000000" fill-opacity="0.00000" height="1879.2074" width="8.3333" x="813.2751" y="166.1194"/><line style="stroke:#ABB6C2;stroke-width:0.5208;stroke-dasharray:5.2083,5.2083;" x1="816.6148" x2="816.6148" y1="166.1194" y2="2045.3267"/></g><g><title>MediasRepository</title><rect fill="#000000" fill-opacity="0.00000" height="1879.2074" width="8.3333" x="1037.8113" y="166.1194"/><line style="stroke:#ABB6C2;stroke-width:0.5208;stroke-dasharray:5.2083,5.2083;" x1="1041.1855" x2="1041.1855" y1="166.1194" y2="2045.3267"/></g><g><title>ProfilsRepository</title><rect fill="#000000" fill-opacity="0.00000" height="1879.2074" width="8.3333" x="1263.9832" y="166.1194"/><line style="stroke:#ABB6C2;stroke-width:0.5208;stroke-dasharray:5.2083,5.2083;" x1="1267.7704" x2="1267.7704" y1="166.1194" y2="2045.3267"/></g><g><title>Database</title><rect fill="#000000" fill-opacity="0.00000" height="1879.2074" width="8.3333" x="1547.1069" y="166.1194"/><line style="stroke:#ABB6C2;stroke-width:0.5208;stroke-dasharray:5.2083,5.2083;" x1="1551.0274" x2="1551.0274" y1="166.1194" y2="2045.3267"/></g><g class="participant participant-head" data-participant="user"><text fill="#4E5D6C" font-family="'Verdana'" font-size="12.5" lengthAdjust="spacing" textLength="64.0015" x="46.875" y="143.0949">Utilisateur</text><text fill="#4E5D6C" font-family="'Verdana'" font-size="12.5" lengthAdjust="spacing" textLength="58.4656" x="49.6429" y="158.2865">Connect&#233;</text><ellipse cx="82.0007" cy="71.6736" fill="url(#giga1lhzhynqc1)" rx="8.3333" ry="8.3333" style="stroke:#EC7211;stroke-width:0.5208;"/><path d="M82.0007,80.0069 L82.0007,108.1319 M68.4591,88.3403 L95.5424,88.3403 M82.0007,108.1319 L68.4591,123.7569 M82.0007,108.1319 L95.5424,123.7569" fill="none" style="stroke:#EC7211;stroke-width:0.5208;"/></g><g class="participant participant-tail" data-participant="user"><text fill="#4E5D6C" font-family="'Verdana'" font-size="12.5" lengthAdjust="spacing" textLength="64.0015" x="46.875" y="2062.0605">Utilisateur</text><text fill="#4E5D6C" font-family="'Verdana'" font-size="12.5" lengthAdjust="spacing" textLength="58.4656" x="49.6429" y="2077.2522">Connect&#233;</text><ellipse cx="82.0007" cy="2093.9392" fill="url(#giga1lhzhynqc1)" rx="8.3333" ry="8.3333" style="stroke:#EC7211;stroke-width:0.5208;"/><path d="M82.0007,2102.2725 L82.0007,2130.3975 M68.4591,2110.6059 L95.5424,2110.6059 M82.0007,2130.3975 L68.4591,2146.0225 M82.0007,2130.3975 L95.5424,2146.0225" fill="none" style="stroke:#EC7211;stroke-width:0.5208;"/></g><g class="participant participant-head" data-participant="frontend"><rect fill="url(#giga1lhzhynqc1)" height="55.3833" rx="4.1667" ry="4.1667" style="stroke:#EC7211;stroke-width:0.5208;" width="81.0852" x="251.295" y="109.6944"/><text fill="#FFFFFF" font-family="'Verdana'" font-size="12.5" lengthAdjust="spacing" textLength="56.0852" x="263.795" y="134.7616">Frontend</text><text fill="#FFFFFF" font-family="'Verdana'" font-size="12.5" lengthAdjust="spacing" textLength="46.4355" x="268.6198" y="149.9532">(React)</text></g><g class="participant participant-tail" data-participant="frontend"><rect fill="url(#giga1lhzhynqc1)" height="55.3833" rx="4.1667" ry="4.1667" style="stroke:#EC7211;stroke-width:0.5208;" width="81.0852" x="251.295" y="2044.2851"/><text fill="#FFFFFF" font-family="'Verdana'" font-size="12.5" lengthAdjust="spacing" textLength="56.0852" x="263.795" y="2069.3522">Frontend</text><text fill="#FFFFFF" font-family="'Verdana'" font-size="12.5" lengthAdjust="spacing" textLength="46.4355" x="268.6198" y="2084.5439">(React)</text></g><g class="participant participant-head" data-participant="profil"><rect fill="url(#giga1lhzhynqc1)" height="40.1917" rx="4.1667" ry="4.1667" style="stroke:#EC7211;stroke-width:0.5208;" width="118.4265" x="514.9465" y="124.8861"/><text fill="#FFFFFF" font-family="'Verdana'" font-size="12.5" lengthAdjust="spacing" textLength="93.4265" x="527.4465" y="149.9532">ProfilController</text></g><g class="participant participant-tail" data-participant="profil"><rect fill="url(#giga1lhzhynqc1)" height="40.1917" rx="4.1667" ry="4.1667" style="stroke:#EC7211;stroke-width:0.5208;" width="118.4265" x="514.9465" y="2044.2851"/><text fill="#FFFFFF" font-family="'Verdana'" font-size="12.5" lengthAdjust="spacing" textLength="93.4265" x="527.4465" y="2069.3522">ProfilController</text></g><g class="participant participant-head" data-participant="userRepo"><rect fill="url(#giga1lhzhynqc1)" height="40.1917" rx="4.1667" ry="4.1667" style="stroke:#EC7211;stroke-width:0.5208;" width="126.6541" x="754.1148" y="124.8861"/><text fill="#FFFFFF" font-family="'Verdana'" font-size="12.5" lengthAdjust="spacing" textLength="101.6541" x="766.6148" y="149.9532">UsersRepository</text></g><g class="participant participant-tail" data-participant="userRepo"><rect fill="url(#giga1lhzhynqc1)" height="40.1917" rx="4.1667" ry="4.1667" style="stroke:#EC7211;stroke-width:0.5208;" width="126.6541" x="754.1148" y="2044.2851"/><text fill="#FFFFFF" font-family="'Verdana'" font-size="12.5" lengthAdjust="spacing" textLength="101.6541" x="766.6148" y="2069.3522">UsersRepository</text></g><g class="participant participant-head" data-participant="mediaRepo"><rect fill="url(#giga1lhzhynqc1)" height="40.1917" rx="4.1667" ry="4.1667" style="stroke:#EC7211;stroke-width:0.5208;" width="134.9182" x="974.5188" y="124.8861"/><text fill="#FFFFFF" font-family="'Verdana'" font-size="12.5" lengthAdjust="spacing" textLength="109.9182" x="987.0188" y="149.9532">MediasRepository</text></g><g class="participant participant-tail" data-participant="mediaRepo"><rect fill="url(#giga1lhzhynqc1)" height="40.1917" rx="4.1667" ry="4.1667" style="stroke:#EC7211;stroke-width:0.5208;" width="134.9182" x="974.5188" y="2044.2851"/><text fill="#FFFFFF" font-family="'Verdana'" font-size="12.5" lengthAdjust="spacing" textLength="109.9182" x="987.0188" y="2069.3522">MediasRepository</text></g><g class="participant participant-head" data-participant="profilRepo"><rect fill="url(#giga1lhzhynqc1)" height="40.1917" rx="4.1667" ry="4.1667" style="stroke:#EC7211;stroke-width:0.5208;" width="129.9255" x="1203.1871" y="124.8861"/><text fill="#FFFFFF" font-family="'Verdana'" font-size="12.5" lengthAdjust="spacing" textLength="104.9255" x="1215.6871" y="149.9532">ProfilsRepository</text></g><g class="participant participant-tail" data-participant="profilRepo"><rect fill="url(#giga1lhzhynqc1)" height="40.1917" rx="4.1667" ry="4.1667" style="stroke:#EC7211;stroke-width:0.5208;" width="129.9255" x="1203.1871" y="2044.2851"/><text fill="#FFFFFF" font-family="'Verdana'" font-size="12.5" lengthAdjust="spacing" textLength="104.9255" x="1215.6871" y="2069.3522">ProfilsRepository</text></g><g class="participant participant-head" data-participant="db"><rect fill="url(#giga1lhzhynqc1)" height="55.3833" rx="4.1667" ry="4.1667" style="stroke:#EC7211;stroke-width:0.5208;" width="83.8257" x="1509.3608" y="109.6944"/><text fill="#FFFFFF" font-family="'Verdana'" font-size="12.5" lengthAdjust="spacing" textLength="58.8257" x="1521.8608" y="134.7616">Database</text><text fill="#FFFFFF" font-family="'Verdana'" font-size="12.5" lengthAdjust="spacing" textLength="54.6265" x="1523.9604" y="149.9532">(MySQL)</text></g><g class="participant participant-tail" data-participant="db"><rect fill="url(#giga1lhzhynqc1)" height="55.3833" rx="4.1667" ry="4.1667" style="stroke:#EC7211;stroke-width:0.5208;" width="83.8257" x="1509.3608" y="2044.2851"/><text fill="#FFFFFF" font-family="'Verdana'" font-size="12.5" lengthAdjust="spacing" textLength="58.8257" x="1521.8608" y="2069.3522">Database</text><text fill="#FFFFFF" font-family="'Verdana'" font-size="12.5" lengthAdjust="spacing" textLength="54.6265" x="1523.9604" y="2084.5439">(MySQL)</text></g><g><title>ProfilController</title><rect fill="#8191A3" height="1533.3659" style="stroke:#181818;stroke-width:1.0417;" width="10.4167" x="568.9514" y="332.7026"/></g><g><title>UsersRepository</title><rect fill="#8191A3" height="135.7666" style="stroke:#181818;stroke-width:1.0417;" width="10.4167" x="812.2335" y="486.7859"/></g><g><title>ProfilsRepository</title><rect fill="#8191A3" height="135.7666" style="stroke:#181818;stroke-width:1.0417;" width="10.4167" x="1262.9415" y="722.9024"/></g><g><title>Database</title><rect fill="#8191A3" height="40.1917" style="stroke:#181818;stroke-width:1.0417;" width="10.4167" x="1546.0653" y="542.1692"/></g><g><title>Database</title><rect fill="#8191A3" height="40.1917" style="stroke:#181818;stroke-width:1.0417;" width="10.4167" x="1546.0653" y="778.2857"/></g><g><title>Database</title><rect fill="#8191A3" height="40.1917" style="stroke:#181818;stroke-width:1.0417;" width="10.4167" x="1546.0653" y="1200.6022"/></g><g class="message" data-participant-1="user" data-participant-2="frontend"><polygon fill="#EC7211" points="279.3376,219.4194,289.7542,223.586,279.3376,227.7527,283.5042,223.586" style="stroke:#EC7211;stroke-width:1.0417;"/><line style="stroke:#EC7211;stroke-width:3.125;" x1="82.0007" x2="285.5876" y1="223.586" y2="223.586"/><text fill="#4E5D6C" font-family="'Verdana'" font-size="12.5" lengthAdjust="spacing" textLength="174.4202" x="94.5007" y="198.4782">Clique "Ajouter aux favoris"</text><text fill="#4E5D6C" font-family="'Verdana'" font-size="12.5" lengthAdjust="spacing" textLength="82.6965" x="94.5007" y="213.6698">sur un m&#233;dia</text></g><g class="message" data-participant-1="frontend" data-participant-2="frontend"><line style="stroke:#EC7211;stroke-width:3.125;" x1="291.8376" x2="335.5876" y1="263.7777" y2="263.7777"/><line style="stroke:#EC7211;stroke-width:3.125;" x1="335.5876" x2="335.5876" y1="263.7777" y2="277.3193"/><line style="stroke:#EC7211;stroke-width:3.125;" x1="292.8792" x2="335.5876" y1="277.3193" y2="277.3193"/><polygon fill="#EC7211" points="303.2959,273.1527,292.8792,277.3193,303.2959,281.486,299.1292,277.3193" style="stroke:#EC7211;stroke-width:1.0417;"/><text fill="#4E5D6C" font-family="'Verdana'" font-size="12.5" lengthAdjust="spacing" textLength="140.2527" x="304.3376" y="253.8615">V&#233;rification token JWT</text></g><g class="message" data-participant-1="frontend" data-participant-2="profil"><polygon fill="#EC7211" points="556.4514,328.536,566.8681,332.7026,556.4514,336.8693,560.6181,332.7026" style="stroke:#EC7211;stroke-width:1.0417;"/><line style="stroke:#EC7211;stroke-width:3.125;" x1="291.8376" x2="562.7014" y1="332.7026" y2="332.7026"/><text fill="#4E5D6C" font-family="'Verdana'" font-size="12.5" lengthAdjust="spacing" textLength="246.9055" x="304.3376" y="307.5948">GET /profil/create/{userId}/{mediaId}</text><text fill="#4E5D6C" font-family="'Verdana'" font-size="12.5" lengthAdjust="spacing" textLength="176.6907" x="304.3376" y="322.7865">+ param&#232;tres d'autorisation</text></g><g class="message" data-participant-1="profil" data-participant-2="profil"><line style="stroke:#EC7211;stroke-width:3.125;" x1="579.3681" x2="623.1181" y1="388.0859" y2="388.0859"/><line style="stroke:#EC7211;stroke-width:3.125;" x1="623.1181" x2="623.1181" y1="388.0859" y2="401.6276"/><line style="stroke:#EC7211;stroke-width:3.125;" x1="580.4097" x2="623.1181" y1="401.6276" y2="401.6276"/><polygon fill="#EC7211" points="590.8264,397.4609,580.4097,401.6276,590.8264,405.7943,586.6597,401.6276" style="stroke:#EC7211;stroke-width:1.0417;"/><text fill="#4E5D6C" font-family="'Verdana'" font-size="12.5" lengthAdjust="spacing" textLength="149.4141" x="591.8681" y="362.9781">V&#233;rification autorisation</text><text fill="#4E5D6C" font-family="'Verdana'" font-size="12.5" lengthAdjust="spacing" textLength="197.4487" x="591.8681" y="378.1698">(ROLE_USER dans param&#232;tres)</text></g><path d="M14.5833,417.2526 L86.025,417.2526 L86.025,434.5276 L75.6083,444.9443 L10.4167,444.9443 L10.4167,421.4193 A4.1667,4.1667 0 0 1 14.5833,417.2526" fill="#EEEEEE" style="stroke:#4E5D6C;stroke-width:1.5625;"/><rect fill="none" height="1441.5243" rx="4.1667" ry="4.1667" style="stroke:#4E5D6C;stroke-width:1.5625;" width="1655.6864" x="10.4167" y="417.2526"/><text fill="#0073BB" font-family="'Verdana'" font-size="12.5" font-weight="bold" lengthAdjust="spacing" textLength="18.3167" x="31.25" y="436.0697">alt</text><text fill="#4E5D6C" font-family="'Verdana'" font-size="12.5" font-weight="bold" lengthAdjust="spacing" textLength="146.5088" x="106.8583" y="437.1114">[Autorisation valide]</text><g class="message" data-participant-1="profil" data-participant-2="userRepo"><polygon fill="#EC7211" points="799.7335,482.6192,810.1501,486.7859,799.7335,490.9526,803.9001,486.7859" style="stroke:#EC7211;stroke-width:1.0417;"/><line style="stroke:#EC7211;stroke-width:3.125;" x1="579.3681" x2="805.9835" y1="486.7859" y2="486.7859"/><text fill="#4E5D6C" font-family="'Verdana'" font-size="12.5" lengthAdjust="spacing" textLength="75.1282" x="591.8681" y="476.8697">find(userId)</text></g><g class="message" data-participant-1="userRepo" data-participant-2="db"><polygon fill="#EC7211" points="1533.5653,538.0025,1543.9819,542.1692,1533.5653,546.3359,1537.7319,542.1692" style="stroke:#EC7211;stroke-width:1.0417;"/><line style="stroke:#EC7211;stroke-width:3.125;" x1="822.6501" x2="1539.8153" y1="542.1692" y2="542.1692"/><text fill="#4E5D6C" font-family="'Verdana'" font-size="12.5" lengthAdjust="spacing" textLength="138.8367" x="835.1501" y="517.0614">SELECT * FROM users</text><text fill="#4E5D6C" font-family="'Verdana'" font-size="12.5" lengthAdjust="spacing" textLength="87.7014" x="835.1501" y="532.253">WHERE id = ?</text></g><g class="message" data-participant-1="db" data-participant-2="userRepo"><polygon fill="#EC7211" points="834.1085,578.1942,823.6918,582.3608,834.1085,586.5275,829.9418,582.3608" style="stroke:#EC7211;stroke-width:1.0417;"/><line style="stroke:#EC7211;stroke-width:3.125;stroke-dasharray:2.0833,2.0833;" x1="827.8585" x2="1550.2319" y1="582.3608" y2="582.3608"/><text fill="#4E5D6C" font-family="'Verdana'" font-size="12.5" lengthAdjust="spacing" textLength="60.5652" x="845.5668" y="572.4447">User data</text></g><g class="message" data-participant-1="userRepo" data-participant-2="profil"><polygon fill="#EC7211" points="590.8264,618.3858,580.4097,622.5525,590.8264,626.7192,586.6597,622.5525" style="stroke:#EC7211;stroke-width:1.0417;"/><line style="stroke:#EC7211;stroke-width:3.125;stroke-dasharray:2.0833,2.0833;" x1="584.5764" x2="816.4001" y1="622.5525" y2="622.5525"/><text fill="#4E5D6C" font-family="'Verdana'" font-size="12.5" lengthAdjust="spacing" textLength="68.8721" x="602.2847" y="612.6363">User entity</text></g><path d="M25,638.1775 L96.4417,638.1775 L96.4417,655.4525 L86.025,665.8691 L20.8333,665.8691 L20.8333,642.3442 A4.1667,4.1667 0 0 1 25,638.1775" fill="#EEEEEE" style="stroke:#4E5D6C;stroke-width:1.5625;"/><rect fill="none" height="1074.8494" rx="4.1667" ry="4.1667" style="stroke:#4E5D6C;stroke-width:1.5625;" width="1634.8531" x="20.8333" y="638.1775"/><text fill="#0073BB" font-family="'Verdana'" font-size="12.5" font-weight="bold" lengthAdjust="spacing" textLength="18.3167" x="41.6667" y="656.9946">alt</text><text fill="#4E5D6C" font-family="'Verdana'" font-size="12.5" font-weight="bold" lengthAdjust="spacing" textLength="137.2192" x="117.275" y="658.0363">[Utilisateur trouv&#233;]</text><g class="message" data-participant-1="profil" data-participant-2="profilRepo"><polygon fill="#EC7211" points="1250.4415,718.7358,1260.8582,722.9024,1250.4415,727.0691,1254.6082,722.9024" style="stroke:#EC7211;stroke-width:1.0417;"/><line style="stroke:#EC7211;stroke-width:3.125;" x1="579.3681" x2="1256.6915" y1="722.9024" y2="722.9024"/><text fill="#4E5D6C" font-family="'Verdana'" font-size="12.5" lengthAdjust="spacing" textLength="177.9724" x="591.8681" y="697.7946">findBy(['id_user' =&gt; userId,</text><text fill="#4E5D6C" font-family="'Verdana'" font-size="12.5" lengthAdjust="spacing" textLength="156.189" x="591.8681" y="712.9862">'id_media' =&gt; mediaId])</text></g><g class="message" data-participant-1="profilRepo" data-participant-2="db"><polygon fill="#EC7211" points="1533.5653,774.1191,1543.9819,778.2857,1533.5653,782.4524,1537.7319,778.2857" style="stroke:#EC7211;stroke-width:1.0417;"/><line style="stroke:#EC7211;stroke-width:3.125;" x1="1273.3582" x2="1539.8153" y1="778.2857" y2="778.2857"/><text fill="#4E5D6C" font-family="'Verdana'" font-size="12.5" lengthAdjust="spacing" textLength="143.5974" x="1285.8582" y="753.1779">SELECT * FROM profils</text><text fill="#4E5D6C" font-family="'Verdana'" font-size="12.5" lengthAdjust="spacing" textLength="242.4988" x="1285.8582" y="768.3695">WHERE id_user = ? AND id_media = ?</text></g><g class="message" data-participant-1="db" data-participant-2="profilRepo"><polygon fill="#EC7211" points="1284.8165,814.3107,1274.3998,818.4774,1284.8165,822.644,1280.6498,818.4774" style="stroke:#EC7211;stroke-width:1.0417;"/><line style="stroke:#EC7211;stroke-width:3.125;stroke-dasharray:2.0833,2.0833;" x1="1278.5665" x2="1550.2319" y1="818.4774" y2="818.4774"/><text fill="#4E5D6C" font-family="'Verdana'" font-size="12.5" lengthAdjust="spacing" textLength="156.1462" x="1296.2748" y="808.5612">R&#233;sultat existant ou vide</text></g><g class="message" data-participant-1="profilRepo" data-participant-2="profil"><polygon fill="#EC7211" points="590.8264,854.5024,580.4097,858.669,590.8264,862.8357,586.6597,858.669" style="stroke:#EC7211;stroke-width:1.0417;"/><line style="stroke:#EC7211;stroke-width:3.125;stroke-dasharray:2.0833,2.0833;" x1="584.5764" x2="1267.1082" y1="858.669" y2="858.669"/><text fill="#4E5D6C" font-family="'Verdana'" font-size="12.5" lengthAdjust="spacing" textLength="119.1101" x="602.2847" y="848.7528">Profil entity ou null</text></g><path d="M35.4167,874.294 L106.8583,874.294 L106.8583,891.569 L96.4417,901.9857 L31.25,901.9857 L31.25,878.4607 A4.1667,4.1667 0 0 1 35.4167,874.294" fill="#EEEEEE" style="stroke:#4E5D6C;stroke-width:1.5625;"/><rect fill="none" height="692.983" rx="4.1667" ry="4.1667" style="stroke:#4E5D6C;stroke-width:1.5625;" width="1614.0198" x="31.25" y="874.294"/><text fill="#0073BB" font-family="'Verdana'" font-size="12.5" font-weight="bold" lengthAdjust="spacing" textLength="18.3167" x="52.0833" y="893.1112">alt</text><text fill="#4E5D6C" font-family="'Verdana'" font-size="12.5" font-weight="bold" lengthAdjust="spacing" textLength="164.4287" x="127.6917" y="894.1528">[Pas encore en favoris]</text><g class="message" data-participant-1="profil" data-participant-2="profil"><line style="stroke:#EC7211;stroke-width:3.125;" x1="579.3681" x2="623.1181" y1="943.8273" y2="943.8273"/><line style="stroke:#EC7211;stroke-width:3.125;" x1="623.1181" x2="623.1181" y1="943.8273" y2="957.369"/><line style="stroke:#EC7211;stroke-width:3.125;" x1="580.4097" x2="623.1181" y1="957.369" y2="957.369"/><polygon fill="#EC7211" points="590.8264,953.2023,580.4097,957.369,590.8264,961.5356,586.6597,957.369" style="stroke:#EC7211;stroke-width:1.0417;"/><text fill="#4E5D6C" font-family="'Verdana'" font-size="12.5" lengthAdjust="spacing" textLength="79.5593" x="591.8681" y="933.9111">new Profils()</text></g><g class="message" data-participant-1="profil" data-participant-2="profil"><line style="stroke:#EC7211;stroke-width:3.125;" x1="579.3681" x2="623.1181" y1="997.5606" y2="997.5606"/><line style="stroke:#EC7211;stroke-width:3.125;" x1="623.1181" x2="623.1181" y1="997.5606" y2="1011.1023"/><line style="stroke:#EC7211;stroke-width:3.125;" x1="580.4097" x2="623.1181" y1="1011.1023" y2="1011.1023"/><polygon fill="#EC7211" points="590.8264,1006.9356,580.4097,1011.1023,590.8264,1015.269,586.6597,1011.1023" style="stroke:#EC7211;stroke-width:1.0417;"/><text fill="#4E5D6C" font-family="'Verdana'" font-size="12.5" lengthAdjust="spacing" textLength="111.9812" x="591.8681" y="987.6444">setIdUser(userId)</text></g><g class="message" data-participant-1="profil" data-participant-2="profil"><line style="stroke:#EC7211;stroke-width:3.125;" x1="579.3681" x2="623.1181" y1="1051.2939" y2="1051.2939"/><line style="stroke:#EC7211;stroke-width:3.125;" x1="623.1181" x2="623.1181" y1="1051.2939" y2="1064.8356"/><line style="stroke:#EC7211;stroke-width:3.125;" x1="580.4097" x2="623.1181" y1="1064.8356" y2="1064.8356"/><polygon fill="#EC7211" points="590.8264,1060.6689,580.4097,1064.8356,590.8264,1069.0023,586.6597,1064.8356" style="stroke:#EC7211;stroke-width:1.0417;"/><text fill="#4E5D6C" font-family="'Verdana'" font-size="12.5" lengthAdjust="spacing" textLength="131.3721" x="591.8681" y="1041.3778">setIdMedia(mediaId)</text></g><g class="message" data-participant-1="profil" data-participant-2="profilRepo"><polygon fill="#EC7211" points="1255.6498,1100.8606,1266.0665,1105.0273,1255.6498,1109.1939,1259.8165,1105.0273" style="stroke:#EC7211;stroke-width:1.0417;"/><line style="stroke:#EC7211;stroke-width:3.125;" x1="579.3681" x2="1261.8998" y1="1105.0273" y2="1105.0273"/><text fill="#4E5D6C" font-family="'Verdana'" font-size="12.5" lengthAdjust="spacing" textLength="85.2661" x="591.8681" y="1095.1111">persist(profil)</text></g><g class="message" data-participant-1="profil" data-participant-2="profilRepo"><polygon fill="#EC7211" points="1255.6498,1141.0522,1266.0665,1145.2189,1255.6498,1149.3856,1259.8165,1145.2189" style="stroke:#EC7211;stroke-width:1.0417;"/><line style="stroke:#EC7211;stroke-width:3.125;" x1="579.3681" x2="1261.8998" y1="1145.2189" y2="1145.2189"/><text fill="#4E5D6C" font-family="'Verdana'" font-size="12.5" lengthAdjust="spacing" textLength="41.51" x="591.8681" y="1135.3027">flush()</text></g><g class="message" data-participant-1="profilRepo" data-participant-2="db"><polygon fill="#EC7211" points="1533.5653,1196.4355,1543.9819,1200.6022,1533.5653,1204.7689,1537.7319,1200.6022" style="stroke:#EC7211;stroke-width:1.0417;"/><line style="stroke:#EC7211;stroke-width:3.125;" x1="1268.1498" x2="1539.8153" y1="1200.6022" y2="1200.6022"/><text fill="#4E5D6C" font-family="'Verdana'" font-size="12.5" lengthAdjust="spacing" textLength="126.8738" x="1280.6498" y="1175.4944">INSERT INTO profils</text><text fill="#4E5D6C" font-family="'Verdana'" font-size="12.5" lengthAdjust="spacing" textLength="124.1577" x="1280.6498" y="1190.686">(id_user, id_media)</text></g><g class="message" data-participant-1="db" data-participant-2="profilRepo"><polygon fill="#EC7211" points="1279.6082,1236.6272,1269.1915,1240.7939,1279.6082,1244.9605,1275.4415,1240.7939" style="stroke:#EC7211;stroke-width:1.0417;"/><line style="stroke:#EC7211;stroke-width:3.125;stroke-dasharray:2.0833,2.0833;" x1="1273.3582" x2="1550.2319" y1="1240.7939" y2="1240.7939"/><text fill="#4E5D6C" font-family="'Verdana'" font-size="12.5" lengthAdjust="spacing" textLength="62.6587" x="1291.0665" y="1230.8777">ID g&#233;n&#233;r&#233;</text></g><g class="message" data-participant-1="profil" data-participant-2="frontend"><polygon fill="#EC7211" points="303.2959,1307.2021,292.8792,1311.3688,303.2959,1315.5355,299.1292,1311.3688" style="stroke:#EC7211;stroke-width:1.0417;"/><line style="stroke:#EC7211;stroke-width:3.125;stroke-dasharray:2.0833,2.0833;" x1="297.0459" x2="567.9097" y1="1311.3688" y2="1311.3688"/><text fill="#4E5D6C" font-family="'Verdana'" font-size="12.5" lengthAdjust="spacing" textLength="87.5854" x="314.7542" y="1271.0693">JsonResponse</text><text fill="#4E5D6C" font-family="'Verdana'" font-size="12.5" lengthAdjust="spacing" textLength="115.4785" x="314.7542" y="1286.261">{status: 'success',</text><text fill="#4E5D6C" font-family="'Verdana'" font-size="12.5" lengthAdjust="spacing" textLength="142.9382" x="319.1488" y="1301.4526">message: 'Profil cr&#233;&#233;'}</text></g><g class="message" data-participant-1="frontend" data-participant-2="frontend"><line style="stroke:#EC7211;stroke-width:3.125;" x1="291.8376" x2="335.5876" y1="1366.7521" y2="1366.7521"/><line style="stroke:#EC7211;stroke-width:3.125;" x1="335.5876" x2="335.5876" y1="1366.7521" y2="1380.2938"/><line style="stroke:#EC7211;stroke-width:3.125;" x1="292.8792" x2="335.5876" y1="1380.2938" y2="1380.2938"/><polygon fill="#EC7211" points="303.2959,1376.1271,292.8792,1380.2938,303.2959,1384.4604,299.1292,1380.2938" style="stroke:#EC7211;stroke-width:1.0417;"/><text fill="#4E5D6C" font-family="'Verdana'" font-size="12.5" lengthAdjust="spacing" textLength="128.656" x="304.3376" y="1341.6443">Mise &#224; jour interface</text><text fill="#4E5D6C" font-family="'Verdana'" font-size="12.5" lengthAdjust="spacing" textLength="164.2761" x="304.3376" y="1356.8359">(bouton devient "Retirer")</text></g><g class="message" data-participant-1="frontend" data-participant-2="user"><polygon fill="#EC7211" points="93.4591,1416.3188,83.0424,1420.4854,93.4591,1424.6521,89.2924,1420.4854" style="stroke:#EC7211;stroke-width:1.0417;"/><line style="stroke:#EC7211;stroke-width:3.125;stroke-dasharray:2.0833,2.0833;" x1="87.2091" x2="290.7959" y1="1420.4854" y2="1420.4854"/><text fill="#4E5D6C" font-family="'Verdana'" font-size="12.5" lengthAdjust="spacing" textLength="154.5471" x="104.9174" y="1410.5693">M&#233;dia ajout&#233; aux favoris</text></g><line style="stroke:#4E5D6C;stroke-width:1.0417;stroke-dasharray:2.0833,2.0833;" x1="31.25" x2="1645.2698" y1="1429.8604" y2="1429.8604"/><text fill="#4E5D6C" font-family="'Verdana'" font-size="12.5" font-weight="bold" lengthAdjust="spacing" textLength="119.635" x="41.6667" y="1447.6359">[D&#233;j&#224; en favoris]</text><g class="message" data-participant-1="profil" data-participant-2="frontend"><polygon fill="#EC7211" points="303.2959,1514.5854,292.8792,1518.752,303.2959,1522.9187,299.1292,1518.752" style="stroke:#EC7211;stroke-width:1.0417;"/><line style="stroke:#EC7211;stroke-width:3.125;stroke-dasharray:2.0833,2.0833;" x1="297.0459" x2="567.9097" y1="1518.752" y2="1518.752"/><text fill="#4E5D6C" font-family="'Verdana'" font-size="12.5" lengthAdjust="spacing" textLength="87.5854" x="314.7542" y="1478.4526">JsonResponse</text><text fill="#4E5D6C" font-family="'Verdana'" font-size="12.5" lengthAdjust="spacing" textLength="98.5962" x="314.7542" y="1493.6442">{status: 'error',</text><text fill="#4E5D6C" font-family="'Verdana'" font-size="12.5" lengthAdjust="spacing" textLength="175.2869" x="319.1488" y="1508.8359">message: 'D&#233;j&#224; en favoris'}</text></g><g class="message" data-participant-1="frontend" data-participant-2="user"><polygon fill="#EC7211" points="93.4591,1554.777,83.0424,1558.9437,93.4591,1563.1104,89.2924,1558.9437" style="stroke:#EC7211;stroke-width:1.0417;"/><line style="stroke:#EC7211;stroke-width:3.125;stroke-dasharray:2.0833,2.0833;" x1="87.2091" x2="290.7959" y1="1558.9437" y2="1558.9437"/><text fill="#4E5D6C" font-family="'Verdana'" font-size="12.5" lengthAdjust="spacing" textLength="145.4895" x="104.9174" y="1549.0275">Information d&#233;j&#224; favori</text></g><line style="stroke:#4E5D6C;stroke-width:1.0417;stroke-dasharray:2.0833,2.0833;" x1="20.8333" x2="1655.6864" y1="1575.6104" y2="1575.6104"/><text fill="#4E5D6C" font-family="'Verdana'" font-size="12.5" font-weight="bold" lengthAdjust="spacing" textLength="167.8833" x="31.25" y="1593.3858">[Utilisateur non trouv&#233;]</text><g class="message" data-participant-1="profil" data-participant-2="frontend"><polygon fill="#EC7211" points="303.2959,1660.3353,292.8792,1664.502,303.2959,1668.6686,299.1292,1664.502" style="stroke:#EC7211;stroke-width:1.0417;"/><line style="stroke:#EC7211;stroke-width:3.125;stroke-dasharray:2.0833,2.0833;" x1="297.0459" x2="567.9097" y1="1664.502" y2="1664.502"/><text fill="#4E5D6C" font-family="'Verdana'" font-size="12.5" lengthAdjust="spacing" textLength="87.5854" x="314.7542" y="1624.2025">JsonResponse</text><text fill="#4E5D6C" font-family="'Verdana'" font-size="12.5" lengthAdjust="spacing" textLength="98.5962" x="314.7542" y="1639.3941">{status: 'error',</text><text fill="#4E5D6C" font-family="'Verdana'" font-size="12.5" lengthAdjust="spacing" textLength="216.8884" x="319.1488" y="1654.5858">message: 'Utilisateur non trouv&#233;'}</text></g><g class="message" data-participant-1="frontend" data-participant-2="user"><polygon fill="#EC7211" points="93.4591,1700.5269,83.0424,1704.6936,93.4591,1708.8603,89.2924,1704.6936" style="stroke:#EC7211;stroke-width:1.0417;"/><line style="stroke:#EC7211;stroke-width:3.125;stroke-dasharray:2.0833,2.0833;" x1="87.2091" x2="290.7959" y1="1704.6936" y2="1704.6936"/><text fill="#4E5D6C" font-family="'Verdana'" font-size="12.5" lengthAdjust="spacing" textLength="106.4209" x="104.9174" y="1694.7774">Erreur utilisateur</text></g><line style="stroke:#4E5D6C;stroke-width:1.0417;stroke-dasharray:2.0833,2.0833;" x1="10.4167" x2="1666.1031" y1="1721.3603" y2="1721.3603"/><text fill="#4E5D6C" font-family="'Verdana'" font-size="12.5" font-weight="bold" lengthAdjust="spacing" textLength="159.6863" x="20.8333" y="1739.1357">[Autorisation invalide]</text><g class="message" data-participant-1="profil" data-participant-2="frontend"><polygon fill="#EC7211" points="303.2959,1806.0852,292.8792,1810.2519,303.2959,1814.4185,299.1292,1810.2519" style="stroke:#EC7211;stroke-width:1.0417;"/><line style="stroke:#EC7211;stroke-width:3.125;stroke-dasharray:2.0833,2.0833;" x1="297.0459" x2="567.9097" y1="1810.2519" y2="1810.2519"/><text fill="#4E5D6C" font-family="'Verdana'" font-size="12.5" lengthAdjust="spacing" textLength="87.5854" x="314.7542" y="1769.9524">JsonResponse</text><text fill="#4E5D6C" font-family="'Verdana'" font-size="12.5" lengthAdjust="spacing" textLength="98.5962" x="314.7542" y="1785.144">{status: 'error',</text><text fill="#4E5D6C" font-family="'Verdana'" font-size="12.5" lengthAdjust="spacing" textLength="165.2039" x="319.1488" y="1800.3357">message: 'Acc&#232;s interdit'}</text></g><g class="message" data-participant-1="frontend" data-participant-2="user"><polygon fill="#EC7211" points="93.4591,1846.2769,83.0424,1850.4435,93.4591,1854.6102,89.2924,1850.4435" style="stroke:#EC7211;stroke-width:1.0417;"/><line style="stroke:#EC7211;stroke-width:3.125;stroke-dasharray:2.0833,2.0833;" x1="87.2091" x2="290.7959" y1="1850.4435" y2="1850.4435"/><text fill="#4E5D6C" font-family="'Verdana'" font-size="12.5" lengthAdjust="spacing" textLength="129.3701" x="104.9174" y="1840.5273">Erreur d'autorisation</text></g><path d="M579.1667,1875.4435 L579.1667,1948.3602 A4.1667,4.1667 0 0 0 583.3333,1952.5269 L817.7083,1952.5269 A4.1667,4.1667 0 0 0 821.875,1948.3602 L821.875,1881.6935 L811.4583,1871.2769 L583.3333,1871.2769 A4.1667,4.1667 0 0 0 579.1667,1875.4435" fill="#0073BB" style="stroke:#005C96;stroke-width:1.0417;"/><path d="M811.4583,1871.2769 L811.4583,1879.6102 A2.0833,2.0833 0 0 0 813.5417,1881.6935 L821.875,1881.6935 L811.4583,1871.2769" fill="#0073BB" style="stroke:#005C96;stroke-width:1.0417;"/><text fill="#FFFFFF" font-family="'Verdana'" font-size="12.5" lengthAdjust="spacing" textLength="178.2715" x="590.625" y="1894.2607">La v&#233;rification d'autorisation</text><text fill="#FFFFFF" font-family="'Verdana'" font-size="12.5" lengthAdjust="spacing" textLength="195.697" x="590.625" y="1909.4523">s'assure que seul un utilisateur</text><text fill="#FFFFFF" font-family="'Verdana'" font-size="12.5" lengthAdjust="spacing" textLength="210.8215" x="590.625" y="1924.644">connect&#233; peut ajouter des favoris</text><text fill="#FFFFFF" font-family="'Verdana'" font-size="12.5" lengthAdjust="spacing" textLength="151.5076" x="590.625" y="1939.8356">pour son propre compte</text><path d="M1272.9167,1967.4601 L1272.9167,2024.7518 A4.1667,4.1667 0 0 0 1277.0833,2028.9185 L1535.4167,2028.9185 A4.1667,4.1667 0 0 0 1539.5833,2024.7518 L1539.5833,1973.7101 L1529.1667,1963.2935 L1277.0833,1963.2935 A4.1667,4.1667 0 0 0 1272.9167,1967.4601" fill="#0073BB" style="stroke:#005C96;stroke-width:1.0417;"/><path d="M1529.1667,1963.2935 L1529.1667,1971.6268 A2.0833,2.0833 0 0 0 1531.25,1973.7101 L1539.5833,1973.7101 L1529.1667,1963.2935" fill="#0073BB" style="stroke:#005C96;stroke-width:1.0417;"/><text fill="#FFFFFF" font-family="'Verdana'" font-size="12.5" lengthAdjust="spacing" textLength="159.3628" x="1284.375" y="1986.2773">La table profils fait le lien</text><text fill="#FFFFFF" font-family="'Verdana'" font-size="12.5" lengthAdjust="spacing" textLength="235.3821" x="1284.375" y="2001.4689">many-to-many entre users et medias</text><text fill="#FFFFFF" font-family="'Verdana'" font-size="12.5" lengthAdjust="spacing" textLength="221.9666" x="1284.375" y="2016.6606">pour g&#233;rer les listes personnalis&#233;es</text><!--SRC=[fLRDSjis4BxpARQwI6gZyJqpQSUrv5OPEqubkJbKdGnCBcMa5A02e1AD9-_IO_WSVB4k098YACff9xx81FRdszrlT_6TUSGj0lke9r8niS78S9CXJ3dRABQbgmHXMHP_voXYX0bSVf2v0PP_WcksbuhhA6AnaGe6zuPdN3E3kLgBAoa4ngOi1i0qv1fLj6FAy9Zlc30mk5PI61J9MemMI0R6JYwjJaFPjqgcF2EBHiaiG-L4T-um5BmdDtg1Ewav8JeqhkrHA7cB2MTTqQqzF9Nrxhl2tl-fz9GPzi0qKc2tX-LlDpwmv26AB1AO_DW42I_XAkEKM1YufDAjJMlgqpfO2vqho0Liou9mHOrQQEBtib0yvJ4pN0emyYyKyFhTAX3tM4dubzaABlpNHQoGQdNnP67DayyNJovy-cyjVW0AYMtBBqOXOH-ot5X8peKhDz-JQbC2Rxtj9mJLLhVrlhkPlRzVpXQGCA7RhiPaF3DmsPA7FSjuWX7Gtx1Z5pznRHmjyoFrdEGHKbr-0fLoaOnyj6CdrGJISCIUDXgadJoGtd9sCxjQmVTmlRYxTTTwBTxzEblCW2Vm2duAZL6fxJUfJaB_bfqKic7-7hiQHyVjL3ej5DILXwvU0Dk3eEorsX2eOV9zMRYxlWngJkcd2fV5X_8VybAJhr7erhQLofyFep-6F7blKGpXbGzrdhnO2tlgoEIEArhzEMwCTWZKX71q-4p-lK2h0Ww0BGDSlfb2xRgfIrzjMlK9mbgKXSupmuodbkrdcSE-vbz_sRgesyNpewCgdxKbyYphizMJYIDwAkfRgX8nNIhigv8lxPKg2r_M9AyXUCb0iATT1NwieEhH-6l26iqyiQmCUkbh2cxWZYekX2gTC9Oit-E6gLRIds7YZhgHIZNoX-F_ef9ckNxiZJEWtVmDZQWL_QpkZgGRLNnxqH0jjDD7ZdDicqzXKnQ26hBLeUSvTfAgEhnm7xpMKYnGxwImE-Y9M6no_HA6EezZr7f8_KajgJNR89rM18q9GbaCFmVspooSMwuHQ5hGobB0wLIbBBRhxe5sc2KVxZdQJRX0mnLjw_4PgzLqj2RTXWDcjs1PjBTWV_IO4OJfsQ7r_vE3IadLISs9_RFfEGOo5wbKswe9lNwd0-tZ9eZ7nTAUsSAkySxS_lPepdXenTGNpqmfgz1ThtKGaGCVh6ikMWlxss5Vnd7vHNkQ9TnKS9-1sdciMAJHoPoD8Y7fG_7D8qtuj3u5k66m3nPanno07Z9Dxp84-sxJc6VsXHRc9wwVlZISx5EvUjibz9GwCdLdkuSIONtlo5mijpk35YzORFq8g_r0AEcDcTNHMBFS07rdr7XqlsNYC35oOd_jxb7-gK0RnFXjt02W-KCTIggQTEajfTqy9VnKGrqMg8-0_WK0]--></g></svg>