<svg xmlns="http://www.w3.org/2000/svg" xmlns:xlink="http://www.w3.org/1999/xlink" contentStyleType="text/css" data-diagram-type="SEQUENCE" height="1937.5px" preserveAspectRatio="none" style="width:1486px;height:1937px;" version="1.1" viewBox="0 0 1486 1937" width="1486.4583px" zoomAndPan="magnify"><title>Diagramme de S&#233;quence - Syst&#232;me de Contact</title><defs><linearGradient id="g1bkcrkcaqyyjc0" x1="50%" x2="50%" y1="0%" y2="100%"><stop offset="0%" stop-color="#FFFFFF"/><stop offset="100%" stop-color="#EEEEEE"/></linearGradient><linearGradient id="g1bkcrkcaqyyjc1" x1="50%" x2="50%" y1="0%" y2="100%"><stop offset="0%" stop-color="#F18E3E"/><stop offset="100%" stop-color="#EC7211"/></linearGradient></defs><g><rect fill="url(#g1bkcrkcaqyyjc0)" height="46.1528" rx="4.1667" ry="4.1667" style="stroke:#EEEEEE;stroke-width:1.0417;" width="567.5659" x="457.9549" y="10.4167"/><text fill="#EC7211" font-family="'Verdana'" font-size="20.8333" font-weight="bold" lengthAdjust="spacing" textLength="546.7326" x="468.3716" y="41.7786">Diagramme de S&#233;quence - Syst&#232;me de Contact</text><g><title>ContactController</title><rect fill="#8191A3" height="1241.3411" style="stroke:#181818;stroke-width:1.0417;" width="10.4167" x="581.1829" y="332.7026"/></g><g><title>Database</title><rect fill="#8191A3" height="40.1917" style="stroke:#181818;stroke-width:1.0417;" width="10.4167" x="1168.1447" y="997.0357"/></g><g><title>Syst.me de</title><rect fill="#8191A3" height="40.1917" style="stroke:#181818;stroke-width:1.0417;" width="10.4167" x="1353.3376" y="1215.269"/></g><rect fill="none" height="1095.7662" rx="4.1667" ry="4.1667" style="stroke:#4E5D6C;stroke-width:1.5625;" width="1449.7426" x="10.4167" y="470.9859"/><g><title>Visiteur.</title><rect fill="#000000" fill-opacity="0.00000" height="1664.0076" width="8.3333" x="57.0007" y="166.1194"/><line style="stroke:#ABB6C2;stroke-width:0.5208;stroke-dasharray:5.2083,5.2083;" x1="60.4167" x2="60.4167" y1="166.1194" y2="1830.127"/></g><g><title>Frontend</title><rect fill="#000000" fill-opacity="0.00000" height="1664.0076" width="8.3333" x="278.6906" y="166.1194"/><line style="stroke:#ABB6C2;stroke-width:0.5208;stroke-dasharray:5.2083,5.2083;" x1="281.898" x2="281.898" y1="166.1194" y2="1830.127"/></g><g><title>ContactController</title><rect fill="#000000" fill-opacity="0.00000" height="1664.0076" width="8.3333" x="582.2245" y="166.1194"/><line style="stroke:#ABB6C2;stroke-width:0.5208;stroke-dasharray:5.2083,5.2083;" x1="585.6537" x2="585.6537" y1="166.1194" y2="1830.127"/></g><g><title>ContactsRepository</title><rect fill="#000000" fill-opacity="0.00000" height="1664.0076" width="8.3333" x="960.3699" y="166.1194"/><line style="stroke:#ABB6C2;stroke-width:0.5208;stroke-dasharray:5.2083,5.2083;" x1="964.2995" x2="964.2995" y1="166.1194" y2="1830.127"/></g><g><title>Database</title><rect fill="#000000" fill-opacity="0.00000" height="1664.0076" width="8.3333" x="1169.1864" y="166.1194"/><line style="stroke:#ABB6C2;stroke-width:0.5208;stroke-dasharray:5.2083,5.2083;" x1="1173.1069" x2="1173.1069" y1="166.1194" y2="1830.127"/></g><g><title>Syst.me de</title><rect fill="#000000" fill-opacity="0.00000" height="1664.0076" width="8.3333" x="1354.3793" y="166.1194"/><line style="stroke:#ABB6C2;stroke-width:0.5208;stroke-dasharray:5.2083,5.2083;" x1="1357.9742" x2="1357.9742" y1="166.1194" y2="1830.127"/></g><g class="participant participant-head" data-participant="user"><text fill="#4E5D6C" font-family="'Verdana'" font-size="12.5" lengthAdjust="spacing" textLength="53.2104" x="31.4372" y="143.0949">Visiteur/</text><text fill="#4E5D6C" font-family="'Verdana'" font-size="12.5" lengthAdjust="spacing" textLength="64.0015" x="26.0417" y="158.2865">Utilisateur</text><ellipse cx="61.1674" cy="71.6736" fill="url(#g1bkcrkcaqyyjc1)" rx="8.3333" ry="8.3333" style="stroke:#EC7211;stroke-width:0.5208;"/><path d="M61.1674,80.0069 L61.1674,108.1319 M47.6257,88.3403 L74.7091,88.3403 M61.1674,108.1319 L47.6257,123.7569 M61.1674,108.1319 L74.7091,123.7569" fill="none" style="stroke:#EC7211;stroke-width:0.5208;"/></g><g class="participant participant-tail" data-participant="user"><text fill="#4E5D6C" font-family="'Verdana'" font-size="12.5" lengthAdjust="spacing" textLength="53.2104" x="31.4372" y="1846.8608">Visiteur/</text><text fill="#4E5D6C" font-family="'Verdana'" font-size="12.5" lengthAdjust="spacing" textLength="64.0015" x="26.0417" y="1862.0524">Utilisateur</text><ellipse cx="61.1674" cy="1878.7394" fill="url(#g1bkcrkcaqyyjc1)" rx="8.3333" ry="8.3333" style="stroke:#EC7211;stroke-width:0.5208;"/><path d="M61.1674,1887.0728 L61.1674,1915.1978 M47.6257,1895.4061 L74.7091,1895.4061 M61.1674,1915.1978 L47.6257,1930.8228 M61.1674,1915.1978 L74.7091,1930.8228" fill="none" style="stroke:#EC7211;stroke-width:0.5208;"/></g><g class="participant participant-head" data-participant="frontend"><rect fill="url(#g1bkcrkcaqyyjc1)" height="55.3833" rx="4.1667" ry="4.1667" style="stroke:#EC7211;stroke-width:0.5208;" width="81.0852" x="242.3147" y="109.6944"/><text fill="#FFFFFF" font-family="'Verdana'" font-size="12.5" lengthAdjust="spacing" textLength="56.0852" x="254.8147" y="134.7616">Frontend</text><text fill="#FFFFFF" font-family="'Verdana'" font-size="12.5" lengthAdjust="spacing" textLength="46.4355" x="259.6395" y="149.9532">(React)</text></g><g class="participant participant-tail" data-participant="frontend"><rect fill="url(#g1bkcrkcaqyyjc1)" height="55.3833" rx="4.1667" ry="4.1667" style="stroke:#EC7211;stroke-width:0.5208;" width="81.0852" x="242.3147" y="1829.0853"/><text fill="#FFFFFF" font-family="'Verdana'" font-size="12.5" lengthAdjust="spacing" textLength="56.0852" x="254.8147" y="1854.1524">Frontend</text><text fill="#FFFFFF" font-family="'Verdana'" font-size="12.5" lengthAdjust="spacing" textLength="46.4355" x="259.6395" y="1869.3441">(React)</text></g><g class="participant participant-head" data-participant="contact"><rect fill="url(#g1bkcrkcaqyyjc1)" height="40.1917" rx="4.1667" ry="4.1667" style="stroke:#EC7211;stroke-width:0.5208;" width="134.8083" x="518.987" y="124.8861"/><text fill="#FFFFFF" font-family="'Verdana'" font-size="12.5" lengthAdjust="spacing" textLength="109.8083" x="531.487" y="149.9532">ContactController</text></g><g class="participant participant-tail" data-participant="contact"><rect fill="url(#g1bkcrkcaqyyjc1)" height="40.1917" rx="4.1667" ry="4.1667" style="stroke:#EC7211;stroke-width:0.5208;" width="134.8083" x="518.987" y="1829.0853"/><text fill="#FFFFFF" font-family="'Verdana'" font-size="12.5" lengthAdjust="spacing" textLength="109.8083" x="531.487" y="1854.1524">ContactController</text></g><g class="participant participant-head" data-participant="repo"><rect fill="url(#g1bkcrkcaqyyjc1)" height="40.1917" rx="4.1667" ry="4.1667" style="stroke:#EC7211;stroke-width:0.5208;" width="146.3074" x="891.3829" y="124.8861"/><text fill="#FFFFFF" font-family="'Verdana'" font-size="12.5" lengthAdjust="spacing" textLength="121.3074" x="903.8829" y="149.9532">ContactsRepository</text></g><g class="participant participant-tail" data-participant="repo"><rect fill="url(#g1bkcrkcaqyyjc1)" height="40.1917" rx="4.1667" ry="4.1667" style="stroke:#EC7211;stroke-width:0.5208;" width="146.3074" x="891.3829" y="1829.0853"/><text fill="#FFFFFF" font-family="'Verdana'" font-size="12.5" lengthAdjust="spacing" textLength="121.3074" x="903.8829" y="1854.1524">ContactsRepository</text></g><g class="participant participant-head" data-participant="db"><rect fill="url(#g1bkcrkcaqyyjc1)" height="55.3833" rx="4.1667" ry="4.1667" style="stroke:#EC7211;stroke-width:0.5208;" width="83.8257" x="1131.4402" y="109.6944"/><text fill="#FFFFFF" font-family="'Verdana'" font-size="12.5" lengthAdjust="spacing" textLength="58.8257" x="1143.9402" y="134.7616">Database</text><text fill="#FFFFFF" font-family="'Verdana'" font-size="12.5" lengthAdjust="spacing" textLength="54.6265" x="1146.0398" y="149.9532">(MySQL)</text></g><g class="participant participant-tail" data-participant="db"><rect fill="url(#g1bkcrkcaqyyjc1)" height="55.3833" rx="4.1667" ry="4.1667" style="stroke:#EC7211;stroke-width:0.5208;" width="83.8257" x="1131.4402" y="1829.0853"/><text fill="#FFFFFF" font-family="'Verdana'" font-size="12.5" lengthAdjust="spacing" textLength="58.8257" x="1143.9402" y="1854.1524">Database</text><text fill="#FFFFFF" font-family="'Verdana'" font-size="12.5" lengthAdjust="spacing" textLength="54.6265" x="1146.0398" y="1869.3441">(MySQL)</text></g><g class="participant participant-head" data-participant="fs"><rect fill="url(#g1bkcrkcaqyyjc1)" height="55.3833" rx="4.1667" ry="4.1667" style="stroke:#EC7211;stroke-width:0.5208;" width="99.0601" x="1309.0159" y="109.6944"/><text fill="#FFFFFF" font-family="'Verdana'" font-size="12.5" lengthAdjust="spacing" textLength="74.0601" x="1321.5159" y="134.7616">Syst&#232;me de</text><text fill="#FFFFFF" font-family="'Verdana'" font-size="12.5" lengthAdjust="spacing" textLength="47.76" x="1334.6659" y="149.9532">Fichiers</text></g><g class="participant participant-tail" data-participant="fs"><rect fill="url(#g1bkcrkcaqyyjc1)" height="55.3833" rx="4.1667" ry="4.1667" style="stroke:#EC7211;stroke-width:0.5208;" width="99.0601" x="1309.0159" y="1829.0853"/><text fill="#FFFFFF" font-family="'Verdana'" font-size="12.5" lengthAdjust="spacing" textLength="74.0601" x="1321.5159" y="1854.1524">Syst&#232;me de</text><text fill="#FFFFFF" font-family="'Verdana'" font-size="12.5" lengthAdjust="spacing" textLength="47.76" x="1334.6659" y="1869.3441">Fichiers</text></g><g><title>ContactController</title><rect fill="#8191A3" height="1241.3411" style="stroke:#181818;stroke-width:1.0417;" width="10.4167" x="581.1829" y="332.7026"/></g><g><title>Database</title><rect fill="#8191A3" height="40.1917" style="stroke:#181818;stroke-width:1.0417;" width="10.4167" x="1168.1447" y="997.0357"/></g><g><title>Syst.me de</title><rect fill="#8191A3" height="40.1917" style="stroke:#181818;stroke-width:1.0417;" width="10.4167" x="1353.3376" y="1215.269"/></g><g class="message" data-participant-1="user" data-participant-2="frontend"><polygon fill="#EC7211" points="270.3573,219.4194,280.7739,223.586,270.3573,227.7527,274.5239,223.586" style="stroke:#EC7211;stroke-width:1.0417;"/><line style="stroke:#EC7211;stroke-width:3.125;" x1="61.1674" x2="276.6073" y1="223.586" y2="223.586"/><text fill="#4E5D6C" font-family="'Verdana'" font-size="12.5" lengthAdjust="spacing" textLength="167.0715" x="73.6674" y="198.4782">Remplit formulaire contact</text><text fill="#4E5D6C" font-family="'Verdana'" font-size="12.5" lengthAdjust="spacing" textLength="186.2732" x="73.6674" y="213.6698">(nom, email, sujet, message)</text></g><g class="message" data-participant-1="frontend" data-participant-2="frontend"><line style="stroke:#EC7211;stroke-width:3.125;" x1="282.8573" x2="326.6073" y1="263.7777" y2="263.7777"/><line style="stroke:#EC7211;stroke-width:3.125;" x1="326.6073" x2="326.6073" y1="263.7777" y2="277.3193"/><line style="stroke:#EC7211;stroke-width:3.125;" x1="283.8989" x2="326.6073" y1="277.3193" y2="277.3193"/><polygon fill="#EC7211" points="294.3156,273.1527,283.8989,277.3193,294.3156,281.486,290.1489,277.3193" style="stroke:#EC7211;stroke-width:1.0417;"/><text fill="#4E5D6C" font-family="'Verdana'" font-size="12.5" lengthAdjust="spacing" textLength="130.9753" x="295.3573" y="253.8615">Validation c&#244;t&#233; client</text></g><g class="message" data-participant-1="frontend" data-participant-2="contact"><polygon fill="#EC7211" points="568.6829,328.536,579.0995,332.7026,568.6829,336.8693,572.8495,332.7026" style="stroke:#EC7211;stroke-width:1.0417;"/><line style="stroke:#EC7211;stroke-width:3.125;" x1="282.8573" x2="574.9329" y1="332.7026" y2="332.7026"/><text fill="#4E5D6C" font-family="'Verdana'" font-size="12.5" lengthAdjust="spacing" textLength="134.4238" x="295.3573" y="307.5948">POST /contact/create</text><text fill="#4E5D6C" font-family="'Verdana'" font-size="12.5" lengthAdjust="spacing" textLength="212.4573" x="295.3573" y="322.7865">{name, email, subject, message}</text></g><g class="message" data-participant-1="contact" data-participant-2="contact"><line style="stroke:#EC7211;stroke-width:3.125;" x1="591.5995" x2="635.3495" y1="372.8943" y2="372.8943"/><line style="stroke:#EC7211;stroke-width:3.125;" x1="635.3495" x2="635.3495" y1="372.8943" y2="386.436"/><line style="stroke:#EC7211;stroke-width:3.125;" x1="592.6412" x2="635.3495" y1="386.436" y2="386.436"/><polygon fill="#EC7211" points="603.0579,382.2693,592.6412,386.436,603.0579,390.6026,598.8912,386.436" style="stroke:#EC7211;stroke-width:1.0417;"/><text fill="#4E5D6C" font-family="'Verdana'" font-size="12.5" lengthAdjust="spacing" textLength="141.217" x="604.0995" y="362.9781">D&#233;code donn&#233;es JSON</text></g><g class="message" data-participant-1="contact" data-participant-2="contact"><line style="stroke:#EC7211;stroke-width:3.125;" x1="591.5995" x2="635.3495" y1="441.8193" y2="441.8193"/><line style="stroke:#EC7211;stroke-width:3.125;" x1="635.3495" x2="635.3495" y1="441.8193" y2="455.3609"/><line style="stroke:#EC7211;stroke-width:3.125;" x1="592.6412" x2="635.3495" y1="455.3609" y2="455.3609"/><polygon fill="#EC7211" points="603.0579,451.1943,592.6412,455.3609,603.0579,459.5276,598.8912,455.3609" style="stroke:#EC7211;stroke-width:1.0417;"/><text fill="#4E5D6C" font-family="'Verdana'" font-size="12.5" lengthAdjust="spacing" textLength="142.3584" x="604.0995" y="416.7114">Extraction des champs</text><text fill="#4E5D6C" font-family="'Verdana'" font-size="12.5" lengthAdjust="spacing" textLength="136.3281" x="604.0995" y="431.9031">+ validation pr&#233;sence</text></g><path d="M14.5833,470.9859 L86.025,470.9859 L86.025,488.2609 L75.6083,498.6776 L10.4167,498.6776 L10.4167,475.1526 A4.1667,4.1667 0 0 1 14.5833,470.9859" fill="#EEEEEE" style="stroke:#4E5D6C;stroke-width:1.5625;"/><rect fill="none" height="1095.7662" rx="4.1667" ry="4.1667" style="stroke:#4E5D6C;stroke-width:1.5625;" width="1449.7426" x="10.4167" y="470.9859"/><text fill="#0073BB" font-family="'Verdana'" font-size="12.5" font-weight="bold" lengthAdjust="spacing" textLength="18.3167" x="31.25" y="489.8031">alt</text><text fill="#4E5D6C" font-family="'Verdana'" font-size="12.5" font-weight="bold" lengthAdjust="spacing" textLength="194.7937" x="106.8583" y="490.8447">[Tous les champs pr&#233;sents]</text><g class="message" data-participant-1="contact" data-participant-2="contact"><line style="stroke:#EC7211;stroke-width:3.125;" x1="591.5995" x2="635.3495" y1="540.5192" y2="540.5192"/><line style="stroke:#EC7211;stroke-width:3.125;" x1="635.3495" x2="635.3495" y1="540.5192" y2="554.0609"/><line style="stroke:#EC7211;stroke-width:3.125;" x1="592.6412" x2="635.3495" y1="554.0609" y2="554.0609"/><polygon fill="#EC7211" points="603.0579,549.8942,592.6412,554.0609,603.0579,558.2275,598.8912,554.0609" style="stroke:#EC7211;stroke-width:1.0417;"/><text fill="#4E5D6C" font-family="'Verdana'" font-size="12.5" lengthAdjust="spacing" textLength="95.9412" x="604.0995" y="530.603">new Contacts()</text></g><g class="message" data-participant-1="contact" data-participant-2="contact"><line style="stroke:#EC7211;stroke-width:3.125;" x1="591.5995" x2="635.3495" y1="594.2525" y2="594.2525"/><line style="stroke:#EC7211;stroke-width:3.125;" x1="635.3495" x2="635.3495" y1="594.2525" y2="607.7942"/><line style="stroke:#EC7211;stroke-width:3.125;" x1="592.6412" x2="635.3495" y1="607.7942" y2="607.7942"/><polygon fill="#EC7211" points="603.0579,603.6275,592.6412,607.7942,603.0579,611.9609,598.8912,607.7942" style="stroke:#EC7211;stroke-width:1.0417;"/><text fill="#4E5D6C" font-family="'Verdana'" font-size="12.5" lengthAdjust="spacing" textLength="101.7212" x="604.0995" y="584.3363">setName(name)</text></g><g class="message" data-participant-1="contact" data-participant-2="contact"><line style="stroke:#EC7211;stroke-width:3.125;" x1="591.5995" x2="635.3495" y1="647.9858" y2="647.9858"/><line style="stroke:#EC7211;stroke-width:3.125;" x1="635.3495" x2="635.3495" y1="647.9858" y2="661.5275"/><line style="stroke:#EC7211;stroke-width:3.125;" x1="592.6412" x2="635.3495" y1="661.5275" y2="661.5275"/><polygon fill="#EC7211" points="603.0579,657.3608,592.6412,661.5275,603.0579,665.6942,598.8912,661.5275" style="stroke:#EC7211;stroke-width:1.0417;"/><text fill="#4E5D6C" font-family="'Verdana'" font-size="12.5" lengthAdjust="spacing" textLength="98.6389" x="604.0995" y="638.0697">setEmail(email)</text></g><g class="message" data-participant-1="contact" data-participant-2="contact"><line style="stroke:#EC7211;stroke-width:3.125;" x1="591.5995" x2="635.3495" y1="701.7192" y2="701.7192"/><line style="stroke:#EC7211;stroke-width:3.125;" x1="635.3495" x2="635.3495" y1="701.7192" y2="715.2608"/><line style="stroke:#EC7211;stroke-width:3.125;" x1="592.6412" x2="635.3495" y1="715.2608" y2="715.2608"/><polygon fill="#EC7211" points="603.0579,711.0942,592.6412,715.2608,603.0579,719.4275,598.8912,715.2608" style="stroke:#EC7211;stroke-width:1.0417;"/><text fill="#4E5D6C" font-family="'Verdana'" font-size="12.5" lengthAdjust="spacing" textLength="123.0652" x="604.0995" y="691.803">setSubject(subject)</text></g><g class="message" data-participant-1="contact" data-participant-2="contact"><line style="stroke:#EC7211;stroke-width:3.125;" x1="591.5995" x2="635.3495" y1="755.4525" y2="755.4525"/><line style="stroke:#EC7211;stroke-width:3.125;" x1="635.3495" x2="635.3495" y1="755.4525" y2="768.9941"/><line style="stroke:#EC7211;stroke-width:3.125;" x1="592.6412" x2="635.3495" y1="768.9941" y2="768.9941"/><polygon fill="#EC7211" points="603.0579,764.8275,592.6412,768.9941,603.0579,773.1608,598.8912,768.9941" style="stroke:#EC7211;stroke-width:1.0417;"/><text fill="#4E5D6C" font-family="'Verdana'" font-size="12.5" lengthAdjust="spacing" textLength="139.3555" x="604.0995" y="745.5363">setMessage(message)</text></g><g class="message" data-participant-1="contact" data-participant-2="contact"><line style="stroke:#EC7211;stroke-width:3.125;" x1="591.5995" x2="635.3495" y1="809.1858" y2="809.1858"/><line style="stroke:#EC7211;stroke-width:3.125;" x1="635.3495" x2="635.3495" y1="809.1858" y2="822.7275"/><line style="stroke:#EC7211;stroke-width:3.125;" x1="592.6412" x2="635.3495" y1="822.7275" y2="822.7275"/><polygon fill="#EC7211" points="603.0579,818.5608,592.6412,822.7275,603.0579,826.8941,598.8912,822.7275" style="stroke:#EC7211;stroke-width:1.0417;"/><text fill="#4E5D6C" font-family="'Verdana'" font-size="12.5" lengthAdjust="spacing" textLength="263.0493" x="604.0995" y="799.2696">setCreatedAt(new DateTimeImmutable())</text></g><g class="message" data-participant-1="contact" data-participant-2="contact"><line style="stroke:#EC7211;stroke-width:3.125;" x1="591.5995" x2="635.3495" y1="862.9191" y2="862.9191"/><line style="stroke:#EC7211;stroke-width:3.125;" x1="635.3495" x2="635.3495" y1="862.9191" y2="876.4608"/><line style="stroke:#EC7211;stroke-width:3.125;" x1="592.6412" x2="635.3495" y1="876.4608" y2="876.4608"/><polygon fill="#EC7211" points="603.0579,872.2941,592.6412,876.4608,603.0579,880.6274,598.8912,876.4608" style="stroke:#EC7211;stroke-width:1.0417;"/><text fill="#4E5D6C" font-family="'Verdana'" font-size="12.5" lengthAdjust="spacing" textLength="156.9031" x="604.0995" y="853.0029">setStatus(true) // Non lu</text></g><g class="message" data-participant-1="contact" data-participant-2="repo"><polygon fill="#EC7211" points="952.0365,912.4858,962.4532,916.6524,952.0365,920.8191,956.2032,916.6524" style="stroke:#EC7211;stroke-width:1.0417;"/><line style="stroke:#EC7211;stroke-width:3.125;" x1="591.5995" x2="958.2865" y1="916.6524" y2="916.6524"/><text fill="#4E5D6C" font-family="'Verdana'" font-size="12.5" lengthAdjust="spacing" textLength="99.1821" x="604.0995" y="906.7362">persist(contact)</text></g><g class="message" data-participant-1="contact" data-participant-2="repo"><polygon fill="#EC7211" points="952.0365,952.6774,962.4532,956.8441,952.0365,961.0107,956.2032,956.8441" style="stroke:#EC7211;stroke-width:1.0417;"/><line style="stroke:#EC7211;stroke-width:3.125;" x1="591.5995" x2="958.2865" y1="956.8441" y2="956.8441"/><text fill="#4E5D6C" font-family="'Verdana'" font-size="12.5" lengthAdjust="spacing" textLength="41.51" x="604.0995" y="946.9279">flush()</text></g><g class="message" data-participant-1="repo" data-participant-2="db"><polygon fill="#EC7211" points="1155.6447,992.8691,1166.0614,997.0357,1155.6447,1001.2024,1159.8114,997.0357" style="stroke:#EC7211;stroke-width:1.0417;"/><line style="stroke:#EC7211;stroke-width:3.125;" x1="964.5365" x2="1161.8947" y1="997.0357" y2="997.0357"/><text fill="#4E5D6C" font-family="'Verdana'" font-size="12.5" lengthAdjust="spacing" textLength="154.4312" x="977.0365" y="987.1195">INSERT INTO contacts...</text></g><g class="message" data-participant-1="db" data-participant-2="repo"><polygon fill="#EC7211" points="975.9949,1033.0607,965.5782,1037.2274,975.9949,1041.394,971.8282,1037.2274" style="stroke:#EC7211;stroke-width:1.0417;"/><line style="stroke:#EC7211;stroke-width:3.125;stroke-dasharray:2.0833,2.0833;" x1="969.7449" x2="1172.3114" y1="1037.2274" y2="1037.2274"/><text fill="#4E5D6C" font-family="'Verdana'" font-size="12.5" lengthAdjust="spacing" textLength="62.6587" x="987.4532" y="1027.3112">ID g&#233;n&#233;r&#233;</text></g><g class="message" data-participant-1="contact" data-participant-2="contact"><line style="stroke:#EC7211;stroke-width:3.125;" x1="591.5995" x2="635.3495" y1="1092.6107" y2="1092.6107"/><line style="stroke:#EC7211;stroke-width:3.125;" x1="635.3495" x2="635.3495" y1="1092.6107" y2="1106.1523"/><line style="stroke:#EC7211;stroke-width:3.125;" x1="592.6412" x2="635.3495" y1="1106.1523" y2="1106.1523"/><polygon fill="#EC7211" points="603.0579,1101.9857,592.6412,1106.1523,603.0579,1110.319,598.8912,1106.1523" style="stroke:#EC7211;stroke-width:1.0417;"/><text fill="#4E5D6C" font-family="'Verdana'" font-size="12.5" lengthAdjust="spacing" textLength="152.2339" x="604.0995" y="1067.5028">Construction chemin log</text><text fill="#4E5D6C" font-family="'Verdana'" font-size="12.5" lengthAdjust="spacing" textLength="332.312" x="604.0995" y="1082.6945">($_SERVER['DOCUMENT_ROOT']/../notifications.log)</text></g><g class="message" data-participant-1="contact" data-participant-2="contact"><line style="stroke:#EC7211;stroke-width:3.125;" x1="591.5995" x2="635.3495" y1="1161.5356" y2="1161.5356"/><line style="stroke:#EC7211;stroke-width:3.125;" x1="635.3495" x2="635.3495" y1="1161.5356" y2="1175.0773"/><line style="stroke:#EC7211;stroke-width:3.125;" x1="592.6412" x2="635.3495" y1="1175.0773" y2="1175.0773"/><polygon fill="#EC7211" points="603.0579,1170.9106,592.6412,1175.0773,603.0579,1179.244,598.8912,1175.0773" style="stroke:#EC7211;stroke-width:1.0417;"/><text fill="#4E5D6C" font-family="'Verdana'" font-size="12.5" lengthAdjust="spacing" textLength="162.2375" x="604.0995" y="1136.4278">Construction message log</text><text fill="#4E5D6C" font-family="'Verdana'" font-size="12.5" lengthAdjust="spacing" textLength="300.4089" x="604.0995" y="1151.6195">("Nouveau message de {name} &#224; {datetime}")</text></g><g class="message" data-participant-1="contact" data-participant-2="fs"><polygon fill="#EC7211" points="1340.8376,1211.1023,1351.2543,1215.269,1340.8376,1219.4356,1345.0043,1215.269" style="stroke:#EC7211;stroke-width:1.0417;"/><line style="stroke:#EC7211;stroke-width:3.125;" x1="591.5995" x2="1347.0876" y1="1215.269" y2="1215.269"/><text fill="#4E5D6C" font-family="'Verdana'" font-size="12.5" lengthAdjust="spacing" textLength="343.0786" x="604.0995" y="1205.3528">file_put_contents(filePath, logMessage, FILE_APPEND)</text></g><g class="message" data-participant-1="fs" data-participant-2="contact"><polygon fill="#EC7211" points="603.0579,1251.2939,592.6412,1255.4606,603.0579,1259.6273,598.8912,1255.4606" style="stroke:#EC7211;stroke-width:1.0417;"/><line style="stroke:#EC7211;stroke-width:3.125;stroke-dasharray:2.0833,2.0833;" x1="596.8079" x2="1357.5043" y1="1255.4606" y2="1255.4606"/><text fill="#4E5D6C" font-family="'Verdana'" font-size="12.5" lengthAdjust="spacing" textLength="97.7844" x="614.5162" y="1245.5444">&#201;criture r&#233;ussie</text></g><g class="message" data-participant-1="contact" data-participant-2="frontend"><polygon fill="#EC7211" points="294.3156,1306.6772,283.8989,1310.8439,294.3156,1315.0106,290.1489,1310.8439" style="stroke:#EC7211;stroke-width:1.0417;"/><line style="stroke:#EC7211;stroke-width:3.125;stroke-dasharray:2.0833,2.0833;" x1="288.0656" x2="580.1412" y1="1310.8439" y2="1310.8439"/><text fill="#4E5D6C" font-family="'Verdana'" font-size="12.5" lengthAdjust="spacing" textLength="87.5854" x="305.7739" y="1285.7361">JsonResponse</text><text fill="#4E5D6C" font-family="'Verdana'" font-size="12.5" lengthAdjust="spacing" textLength="155.0964" x="305.7739" y="1300.9277">{status: 'Contact cr&#233;&#233;!'}</text></g><g class="message" data-participant-1="frontend" data-participant-2="frontend"><line style="stroke:#EC7211;stroke-width:3.125;" x1="282.8573" x2="326.6073" y1="1366.2272" y2="1366.2272"/><line style="stroke:#EC7211;stroke-width:3.125;" x1="326.6073" x2="326.6073" y1="1366.2272" y2="1379.7689"/><line style="stroke:#EC7211;stroke-width:3.125;" x1="283.8989" x2="326.6073" y1="1379.7689" y2="1379.7689"/><polygon fill="#EC7211" points="294.3156,1375.6022,283.8989,1379.7689,294.3156,1383.9355,290.1489,1379.7689" style="stroke:#EC7211;stroke-width:1.0417;"/><text fill="#4E5D6C" font-family="'Verdana'" font-size="12.5" lengthAdjust="spacing" textLength="141.0095" x="295.3573" y="1341.1194">Affichage confirmation</text><text fill="#4E5D6C" font-family="'Verdana'" font-size="12.5" lengthAdjust="spacing" textLength="115.2161" x="295.3573" y="1356.311">+ reset formulaire</text></g><g class="message" data-participant-1="frontend" data-participant-2="user"><polygon fill="#EC7211" points="72.6257,1415.7939,62.2091,1419.9605,72.6257,1424.1272,68.4591,1419.9605" style="stroke:#EC7211;stroke-width:1.0417;"/><line style="stroke:#EC7211;stroke-width:3.125;stroke-dasharray:2.0833,2.0833;" x1="66.3757" x2="281.8156" y1="1419.9605" y2="1419.9605"/><text fill="#4E5D6C" font-family="'Verdana'" font-size="12.5" lengthAdjust="spacing" textLength="182.3853" x="84.0841" y="1410.0444">Message envoy&#233; avec succ&#232;s</text></g><line style="stroke:#4E5D6C;stroke-width:1.0417;stroke-dasharray:2.0833,2.0833;" x1="10.4167" x2="1460.1593" y1="1429.3355" y2="1429.3355"/><text fill="#4E5D6C" font-family="'Verdana'" font-size="12.5" font-weight="bold" lengthAdjust="spacing" textLength="152.0325" x="20.8333" y="1447.111">[Champs manquants]</text><g class="message" data-participant-1="contact" data-participant-2="frontend"><polygon fill="#EC7211" points="294.3156,1514.0605,283.8989,1518.2271,294.3156,1522.3938,290.1489,1518.2271" style="stroke:#EC7211;stroke-width:1.0417;"/><line style="stroke:#EC7211;stroke-width:3.125;stroke-dasharray:2.0833,2.0833;" x1="288.0656" x2="580.1412" y1="1518.2271" y2="1518.2271"/><text fill="#4E5D6C" font-family="'Verdana'" font-size="12.5" lengthAdjust="spacing" textLength="87.5854" x="305.7739" y="1477.9277">JsonResponse</text><text fill="#4E5D6C" font-family="'Verdana'" font-size="12.5" lengthAdjust="spacing" textLength="98.5962" x="305.7739" y="1493.1193">{status: 'error',</text><text fill="#4E5D6C" font-family="'Verdana'" font-size="12.5" lengthAdjust="spacing" textLength="258.5144" x="310.1685" y="1508.311">message: 'Tous les champs sont requis'}</text></g><g class="message" data-participant-1="frontend" data-participant-2="user"><polygon fill="#EC7211" points="72.6257,1554.2521,62.2091,1558.4188,72.6257,1562.5854,68.4591,1558.4188" style="stroke:#EC7211;stroke-width:1.0417;"/><line style="stroke:#EC7211;stroke-width:3.125;stroke-dasharray:2.0833,2.0833;" x1="66.3757" x2="281.8156" y1="1558.4188" y2="1558.4188"/><text fill="#4E5D6C" font-family="'Verdana'" font-size="12.5" lengthAdjust="spacing" textLength="111.084" x="84.0841" y="1548.5026">Erreurs validation</text></g><path d="M1236.4583,1583.4188 L1236.4583,1656.3354 A4.1667,4.1667 0 0 0 1240.625,1660.5021 L1475,1660.5021 A4.1667,4.1667 0 0 0 1479.1667,1656.3354 L1479.1667,1589.6688 L1468.75,1579.2521 L1240.625,1579.2521 A4.1667,4.1667 0 0 0 1236.4583,1583.4188" fill="#0073BB" style="stroke:#005C96;stroke-width:1.0417;"/><path d="M1468.75,1579.2521 L1468.75,1587.5854 A2.0833,2.0833 0 0 0 1470.8333,1589.6688 L1479.1667,1589.6688 L1468.75,1579.2521" fill="#0073BB" style="stroke:#005C96;stroke-width:1.0417;"/><text fill="#FFFFFF" font-family="'Verdana'" font-size="12.5" lengthAdjust="spacing" textLength="210.5591" x="1247.9167" y="1602.2359">Le fichier notifications.log permet</text><text fill="#FFFFFF" font-family="'Verdana'" font-size="12.5" lengthAdjust="spacing" textLength="192.5049" x="1247.9167" y="1617.4276">&#224; l'administrateur de surveiller</text><text fill="#FFFFFF" font-family="'Verdana'" font-size="12.5" lengthAdjust="spacing" textLength="181.9641" x="1247.9167" y="1632.6192">les nouveaux messages sans</text><text fill="#FFFFFF" font-family="'Verdana'" font-size="12.5" lengthAdjust="spacing" textLength="201.4648" x="1247.9167" y="1647.8109">interroger constamment la base</text><path d="M590.625,1675.4354 L590.625,1732.7271 A4.1667,4.1667 0 0 0 594.7917,1736.8937 L837.5,1736.8937 A4.1667,4.1667 0 0 0 841.6667,1732.7271 L841.6667,1681.6854 L831.25,1671.2687 L594.7917,1671.2687 A4.1667,4.1667 0 0 0 590.625,1675.4354" fill="#0073BB" style="stroke:#005C96;stroke-width:1.0417;"/><path d="M831.25,1671.2687 L831.25,1679.6021 A2.0833,2.0833 0 0 0 833.3333,1681.6854 L841.6667,1681.6854 L831.25,1671.2687" fill="#0073BB" style="stroke:#005C96;stroke-width:1.0417;"/><text fill="#FFFFFF" font-family="'Verdana'" font-size="12.5" lengthAdjust="spacing" textLength="189.2639" x="602.0833" y="1694.2525">Le statut true signifie "non lu"</text><text fill="#FFFFFF" font-family="'Verdana'" font-size="12.5" lengthAdjust="spacing" textLength="218.8293" x="602.0833" y="1709.4442">L'admin pourra marquer comme lu</text><text fill="#FFFFFF" font-family="'Verdana'" font-size="12.5" lengthAdjust="spacing" textLength="190.3198" x="602.0833" y="1724.6358">via l'interface d'administration</text><path d="M968.75,1752.2603 L968.75,1809.552 A4.1667,4.1667 0 0 0 972.9167,1813.7187 L1256.25,1813.7187 A4.1667,4.1667 0 0 0 1260.4167,1809.552 L1260.4167,1758.5103 L1250,1748.0937 L972.9167,1748.0937 A4.1667,4.1667 0 0 0 968.75,1752.2603" fill="#0073BB" style="stroke:#005C96;stroke-width:1.0417;"/><path d="M1250,1748.0937 L1250,1756.427 A2.0833,2.0833 0 0 0 1252.0833,1758.5103 L1260.4167,1758.5103 L1250,1748.0937" fill="#0073BB" style="stroke:#005C96;stroke-width:1.0417;"/><text fill="#FFFFFF" font-family="'Verdana'" font-size="12.5" lengthAdjust="spacing" textLength="260.4126" x="980.2083" y="1771.0775">La date de cr&#233;ation est automatiquement</text><text fill="#FFFFFF" font-family="'Verdana'" font-size="12.5" lengthAdjust="spacing" textLength="215.8325" x="980.2083" y="1786.2691">d&#233;finie au moment de l'envoi pour</text><text fill="#FFFFFF" font-family="'Verdana'" font-size="12.5" lengthAdjust="spacing" textLength="233.9294" x="980.2083" y="1801.4608">un suivi chronologique des messages</text><!--SRC=[bLRBRkCs5DthA-uO1IoZZhsVHO4WTe0C4ZkrFTdKHS18LpO74kcGb6U2GJvW_gBByRv_e1_h8IK_ysYRHGoHX_Tnxhs7_E2MN329h_PC6w4M73dfSgQ150iZ2cobJDDgyrYoIfZEQFfaNVMpNh_Goed4HH7-QKEjEscbuzBqv-gpaxcqmd-rI5WgBPje9OoJYLm9vQXrQN2QLJfNyOHXe1DmMRDwZ6qS-H-ZyvnhcqdZ_ZMedV1A8nfjdWBMuFCOE11EF0ZBy7_pDFtzklQVFXoZ3jATgqkPB2KRMqTgeyXdHMU_xQAcZpJXOfLBHvasHPaBQNWR9nmfNNI92o7pBjdo2xik5MojM70dsjaujdSdSfaA9xMYfFhRLHjASidA7U4R3u3VZgSpwZVV_SGmIZ1NtvKe-C3pmnTEzhwVGm7b6j0TfrkBHyO7rIRHg7kgbQesREdJT3nw7JhyvemtYh1J09EbA5PshdwbzJwVbQasrhSL_EUEPhgqbE_0ssrd8y9VcoxmBHgBbBSrad2xU3tarK0KVztsgOqxR-Cikn58YZrJxyE6diKuSFa-S5hp73Tylm- -gMiHx_hXFV15g6jwxcAV7ZgPPxBWgw8eqTCvnvr_2Sm9LzhOcP8xrE_J29pcPJZIS3qLvPeNme1fLkJ7vDIW7oXOMs4Sf7LnizDv0vRbfLqsz8SbRAKFsBWQJOUJ6Nvcu-qns-lr0d3Nb1XA_uq3PtkJLmDQL1lq8TgYtkRJ0qqorO_4I5TY4fLsCfD9qqL2OOhhaQPSBzwc3FrZGLRTpWa4Kof_00Fzopt2lnjE_cWFnXUVRuQZsVraF9wr_-ptUlr3RxQ70vt_wABfWSP7QwHH357kbb6KCD3FLFr5tp5Cx53zvzOByvdrrCkSxrUbkq-2Nc0A_CgjSCkkTz3qNPSkhww7z-UtjyFHe7DCVrPF8AoT7SMyvnKbAAsLV5g7vkHnNCVwzibgDM6xGlvUg6nepO_KRcQM4jYkDX_QptKChulaUURhwBc1bqoQ8d3kvSOm-lr0Z4-im4pGy8_Ky81sN-idgAnOSmAbJ9BgPvC4vnPNNgrDXL2FfTXgq_zCZOtHfjsTxmgDjLFnmr67u1zBQL-alWzwQ0mkM7iWgf6_EwE34cm5CchJhT497C9HUZ8A8lKj7Glxf98b_41-iC-art0JYdZDkr5vqTPU10hs6en-pDl163J1XDlV-xAbMRFqzpOmFabLT_ItBG785yE8JOaKmSu2RX8_4Vu50Y9oKMkGJzy75jNX6RbOEjBPmIs0E0FFZhowaPKBXM2PMYfeNCj3wWXffKjZ14ffyBZn_lnh9yZWMWha4MB915uzwM5E3SclnX5U6V0WA0qonA5zQuxPEXAbqxutuT3d1MXQRJ9OnWiCywr3ik5sysqeGuW0bGeKohMaK1mDohs5SB5k2To7z0y0]--></g></svg>