<svg xmlns="http://www.w3.org/2000/svg" xmlns:xlink="http://www.w3.org/1999/xlink" contentStyleType="text/css" data-diagram-type="SEQUENCE" height="2222.9167px" preserveAspectRatio="none" style="width:1170px;height:2222px;" version="1.1" viewBox="0 0 1170 2222" width="1170.8333px" zoomAndPan="magnify"><title>Diagramme de S&#233;quence - Cr&#233;ation de M&#233;dia par Admin</title><defs><linearGradient id="gibsjwlcrse380" x1="50%" x2="50%" y1="0%" y2="100%"><stop offset="0%" stop-color="#FFFFFF"/><stop offset="100%" stop-color="#EEEEEE"/></linearGradient><linearGradient id="gibsjwlcrse381" x1="50%" x2="50%" y1="0%" y2="100%"><stop offset="0%" stop-color="#F18E3E"/><stop offset="100%" stop-color="#EC7211"/></linearGradient></defs><g><rect fill="url(#gibsjwlcrse380)" height="46.1528" rx="4.1667" ry="4.1667" style="stroke:#EEEEEE;stroke-width:1.0417;" width="674.2147" x="249.4375" y="10.4167"/><text fill="#EC7211" font-family="'Verdana'" font-size="20.8333" font-weight="bold" lengthAdjust="spacing" textLength="653.3813" x="259.8541" y="41.7786">Diagramme de S&#233;quence - Cr&#233;ation de M&#233;dia par Admin</text><g><title>AdminController</title><rect fill="#8191A3" height="1542.8243" style="stroke:#181818;stroke-width:1.0417;" width="10.4167" x="589.9343" y="332.7026"/></g><g><title>MediasRepository</title><rect fill="#8191A3" height="135.7666" style="stroke:#181818;stroke-width:1.0417;" width="10.4167" x="850.9715" y="678.3691"/></g><g><title>Database</title><rect fill="#8191A3" height="40.1917" style="stroke:#181818;stroke-width:1.0417;" width="10.4167" x="1054.0934" y="733.7524"/></g><g><title>Database</title><rect fill="#8191A3" height="40.1917" style="stroke:#181818;stroke-width:1.0417;" width="10.4167" x="1054.0934" y="1355.8105"/></g><rect fill="none" height="1313.1327" rx="4.1667" ry="4.1667" style="stroke:#4E5D6C;stroke-width:1.5625;" width="1153.2979" x="10.4167" y="555.1025"/><rect fill="none" height="892.7246" rx="4.1667" ry="4.1667" style="stroke:#4E5D6C;stroke-width:1.5625;" width="1132.4646" x="20.8333" y="829.7607"/><g><title>Administrateur</title><rect fill="#000000" fill-opacity="0.00000" height="1979.8157" width="8.3333" x="81.9956" y="150.9277"/><line style="stroke:#ABB6C2;stroke-width:0.5208;stroke-dasharray:5.2083,5.2083;" x1="85.4167" x2="85.4167" y1="150.9277" y2="2130.7434"/></g><g><title>Frontend</title><rect fill="#000000" fill-opacity="0.00000" height="1979.8157" width="8.3333" x="286.6628" y="150.9277"/><line style="stroke:#ABB6C2;stroke-width:0.5208;stroke-dasharray:5.2083,5.2083;" x1="289.8702" x2="289.8702" y1="150.9277" y2="2130.7434"/></g><g><title>AdminController</title><rect fill="#000000" fill-opacity="0.00000" height="1979.8157" width="8.3333" x="590.976" y="150.9277"/><line style="stroke:#ABB6C2;stroke-width:0.5208;stroke-dasharray:5.2083,5.2083;" x1="594.3705" x2="594.3705" y1="150.9277" y2="2130.7434"/></g><g><title>MediasRepository</title><rect fill="#000000" fill-opacity="0.00000" height="1979.8157" width="8.3333" x="852.0131" y="150.9277"/><line style="stroke:#ABB6C2;stroke-width:0.5208;stroke-dasharray:5.2083,5.2083;" x1="855.3874" x2="855.3874" y1="150.9277" y2="2130.7434"/></g><g><title>Database</title><rect fill="#000000" fill-opacity="0.00000" height="1979.8157" width="8.3333" x="1055.1351" y="150.9277"/><line style="stroke:#ABB6C2;stroke-width:0.5208;stroke-dasharray:5.2083,5.2083;" x1="1059.0556" x2="1059.0556" y1="150.9277" y2="2130.7434"/></g><g class="participant participant-head" data-participant="admin"><text fill="#4E5D6C" font-family="'Verdana'" font-size="12.5" lengthAdjust="spacing" textLength="93.158" x="36.4583" y="143.0949">Administrateur</text><ellipse cx="86.1623" cy="71.6736" fill="url(#gibsjwlcrse381)" rx="8.3333" ry="8.3333" style="stroke:#EC7211;stroke-width:0.5208;"/><path d="M86.1623,80.0069 L86.1623,108.1319 M72.6206,88.3403 L99.704,88.3403 M86.1623,108.1319 L72.6206,123.7569 M86.1623,108.1319 L99.704,123.7569" fill="none" style="stroke:#EC7211;stroke-width:0.5208;"/></g><g class="participant participant-tail" data-participant="admin"><text fill="#4E5D6C" font-family="'Verdana'" font-size="12.5" lengthAdjust="spacing" textLength="93.158" x="36.4583" y="2147.4772">Administrateur</text><ellipse cx="86.1623" cy="2164.1642" fill="url(#gibsjwlcrse381)" rx="8.3333" ry="8.3333" style="stroke:#EC7211;stroke-width:0.5208;"/><path d="M86.1623,2172.4976 L86.1623,2200.6226 M72.6206,2180.8309 L99.704,2180.8309 M86.1623,2200.6226 L72.6206,2216.2476 M86.1623,2200.6226 L99.704,2216.2476" fill="none" style="stroke:#EC7211;stroke-width:0.5208;"/></g><g class="participant participant-head" data-participant="frontend"><rect fill="url(#gibsjwlcrse381)" height="55.3833" rx="4.1667" ry="4.1667" style="stroke:#EC7211;stroke-width:0.5208;" width="81.0852" x="250.2869" y="94.5028"/><text fill="#FFFFFF" font-family="'Verdana'" font-size="12.5" lengthAdjust="spacing" textLength="56.0852" x="262.7869" y="119.5699">Frontend</text><text fill="#FFFFFF" font-family="'Verdana'" font-size="12.5" lengthAdjust="spacing" textLength="46.4355" x="267.6117" y="134.7616">(React)</text></g><g class="participant participant-tail" data-participant="frontend"><rect fill="url(#gibsjwlcrse381)" height="55.3833" rx="4.1667" ry="4.1667" style="stroke:#EC7211;stroke-width:0.5208;" width="81.0852" x="250.2869" y="2129.7017"/><text fill="#FFFFFF" font-family="'Verdana'" font-size="12.5" lengthAdjust="spacing" textLength="56.0852" x="262.7869" y="2154.7689">Frontend</text><text fill="#FFFFFF" font-family="'Verdana'" font-size="12.5" lengthAdjust="spacing" textLength="46.4355" x="267.6117" y="2169.9605">(React)</text></g><g class="participant participant-head" data-participant="adminCtrl"><rect fill="url(#gibsjwlcrse381)" height="40.1917" rx="4.1667" ry="4.1667" style="stroke:#EC7211;stroke-width:0.5208;" width="126.5442" x="531.8705" y="109.6944"/><text fill="#FFFFFF" font-family="'Verdana'" font-size="12.5" lengthAdjust="spacing" textLength="101.5442" x="544.3705" y="134.7616">AdminController</text></g><g class="participant participant-tail" data-participant="adminCtrl"><rect fill="url(#gibsjwlcrse381)" height="40.1917" rx="4.1667" ry="4.1667" style="stroke:#EC7211;stroke-width:0.5208;" width="126.5442" x="531.8705" y="2129.7017"/><text fill="#FFFFFF" font-family="'Verdana'" font-size="12.5" lengthAdjust="spacing" textLength="101.5442" x="544.3705" y="2154.7689">AdminController</text></g><g class="participant participant-head" data-participant="mediaRepo"><rect fill="url(#gibsjwlcrse381)" height="40.1917" rx="4.1667" ry="4.1667" style="stroke:#EC7211;stroke-width:0.5208;" width="134.9182" x="788.7207" y="109.6944"/><text fill="#FFFFFF" font-family="'Verdana'" font-size="12.5" lengthAdjust="spacing" textLength="109.9182" x="801.2207" y="134.7616">MediasRepository</text></g><g class="participant participant-tail" data-participant="mediaRepo"><rect fill="url(#gibsjwlcrse381)" height="40.1917" rx="4.1667" ry="4.1667" style="stroke:#EC7211;stroke-width:0.5208;" width="134.9182" x="788.7207" y="2129.7017"/><text fill="#FFFFFF" font-family="'Verdana'" font-size="12.5" lengthAdjust="spacing" textLength="109.9182" x="801.2207" y="2154.7689">MediasRepository</text></g><g class="participant participant-head" data-participant="db"><rect fill="url(#gibsjwlcrse381)" height="55.3833" rx="4.1667" ry="4.1667" style="stroke:#EC7211;stroke-width:0.5208;" width="83.8257" x="1017.3889" y="94.5028"/><text fill="#FFFFFF" font-family="'Verdana'" font-size="12.5" lengthAdjust="spacing" textLength="58.8257" x="1029.8889" y="119.5699">Database</text><text fill="#FFFFFF" font-family="'Verdana'" font-size="12.5" lengthAdjust="spacing" textLength="54.6265" x="1031.9885" y="134.7616">(MySQL)</text></g><g class="participant participant-tail" data-participant="db"><rect fill="url(#gibsjwlcrse381)" height="55.3833" rx="4.1667" ry="4.1667" style="stroke:#EC7211;stroke-width:0.5208;" width="83.8257" x="1017.3889" y="2129.7017"/><text fill="#FFFFFF" font-family="'Verdana'" font-size="12.5" lengthAdjust="spacing" textLength="58.8257" x="1029.8889" y="2154.7689">Database</text><text fill="#FFFFFF" font-family="'Verdana'" font-size="12.5" lengthAdjust="spacing" textLength="54.6265" x="1031.9885" y="2169.9605">(MySQL)</text></g><g><title>AdminController</title><rect fill="#8191A3" height="1542.8243" style="stroke:#181818;stroke-width:1.0417;" width="10.4167" x="589.9343" y="332.7026"/></g><g><title>MediasRepository</title><rect fill="#8191A3" height="135.7666" style="stroke:#181818;stroke-width:1.0417;" width="10.4167" x="850.9715" y="678.3691"/></g><g><title>Database</title><rect fill="#8191A3" height="40.1917" style="stroke:#181818;stroke-width:1.0417;" width="10.4167" x="1054.0934" y="733.7524"/></g><g><title>Database</title><rect fill="#8191A3" height="40.1917" style="stroke:#181818;stroke-width:1.0417;" width="10.4167" x="1054.0934" y="1355.8105"/></g><g class="message" data-participant-1="admin" data-participant-2="frontend"><polygon fill="#EC7211" points="278.3295,189.0361,288.7461,193.2027,278.3295,197.3694,282.4961,193.2027" style="stroke:#EC7211;stroke-width:1.0417;"/><line style="stroke:#EC7211;stroke-width:3.125;" x1="86.1623" x2="284.5795" y1="193.2027" y2="193.2027"/><text fill="#4E5D6C" font-family="'Verdana'" font-size="12.5" lengthAdjust="spacing" textLength="169.2505" x="98.6623" y="183.2865">Acc&#232;de &#224; "Cr&#233;er un m&#233;dia"</text></g><g class="message" data-participant-1="frontend" data-participant-2="frontend"><line style="stroke:#EC7211;stroke-width:3.125;" x1="290.8295" x2="334.5795" y1="233.3944" y2="233.3944"/><line style="stroke:#EC7211;stroke-width:3.125;" x1="334.5795" x2="334.5795" y1="233.3944" y2="246.936"/><line style="stroke:#EC7211;stroke-width:3.125;" x1="291.8711" x2="334.5795" y1="246.936" y2="246.936"/><polygon fill="#EC7211" points="302.2878,242.7694,291.8711,246.936,302.2878,251.1027,298.1211,246.936" style="stroke:#EC7211;stroke-width:1.0417;"/><text fill="#4E5D6C" font-family="'Verdana'" font-size="12.5" lengthAdjust="spacing" textLength="186.1633" x="303.3295" y="223.4782">V&#233;rification token admin local</text></g><g class="message" data-participant-1="frontend" data-participant-2="adminCtrl"><polygon fill="#EC7211" points="577.4343,328.536,587.851,332.7026,577.4343,336.8693,581.601,332.7026" style="stroke:#EC7211;stroke-width:1.0417;"/><line style="stroke:#EC7211;stroke-width:3.125;" x1="290.8295" x2="583.6843" y1="332.7026" y2="332.7026"/><text fill="#4E5D6C" font-family="'Verdana'" font-size="12.5" lengthAdjust="spacing" textLength="171.344" x="303.3295" y="277.2115">POST /admin/media/create</text><text fill="#4E5D6C" font-family="'Verdana'" font-size="12.5" lengthAdjust="spacing" textLength="175.6592" x="303.3295" y="292.4032">+ headers X-ADMIN-TOKEN</text><text fill="#4E5D6C" font-family="'Verdana'" font-size="12.5" lengthAdjust="spacing" textLength="185.4553" x="303.3295" y="307.5948">+ query params (role, token)</text><text fill="#4E5D6C" font-family="'Verdana'" font-size="12.5" lengthAdjust="spacing" textLength="268.8965" x="303.3295" y="322.7865">+ body {title, description, type, imageUrl}</text></g><g class="message" data-participant-1="adminCtrl" data-participant-2="adminCtrl"><line style="stroke:#EC7211;stroke-width:3.125;" x1="600.351" x2="644.101" y1="388.0859" y2="388.0859"/><line style="stroke:#EC7211;stroke-width:3.125;" x1="644.101" x2="644.101" y1="388.0859" y2="401.6276"/><line style="stroke:#EC7211;stroke-width:3.125;" x1="601.3926" x2="644.101" y1="401.6276" y2="401.6276"/><polygon fill="#EC7211" points="611.8093,397.4609,601.3926,401.6276,611.8093,405.7943,607.6426,401.6276" style="stroke:#EC7211;stroke-width:1.0417;"/><text fill="#4E5D6C" font-family="'Verdana'" font-size="12.5" lengthAdjust="spacing" textLength="136.1023" x="612.851" y="362.9781">isAuthorized(request)</text><text fill="#4E5D6C" font-family="'Verdana'" font-size="12.5" lengthAdjust="spacing" textLength="180.3955" x="612.851" y="378.1698">v&#233;rification X-ADMIN-TOKEN</text></g><g class="message" data-participant-1="adminCtrl" data-participant-2="adminCtrl"><line style="stroke:#EC7211;stroke-width:3.125;" x1="600.351" x2="644.101" y1="457.0109" y2="457.0109"/><line style="stroke:#EC7211;stroke-width:3.125;" x1="644.101" x2="644.101" y1="457.0109" y2="470.5526"/><line style="stroke:#EC7211;stroke-width:3.125;" x1="601.3926" x2="644.101" y1="470.5526" y2="470.5526"/><polygon fill="#EC7211" points="611.8093,466.3859,601.3926,470.5526,611.8093,474.7192,607.6426,470.5526" style="stroke:#EC7211;stroke-width:1.0417;"/><text fill="#4E5D6C" font-family="'Verdana'" font-size="12.5" lengthAdjust="spacing" textLength="154.9072" x="612.851" y="431.9031">Extraction query params</text><text fill="#4E5D6C" font-family="'Verdana'" font-size="12.5" lengthAdjust="spacing" textLength="79.3579" x="612.851" y="447.0947">(role, token)</text></g><g class="message" data-participant-1="adminCtrl" data-participant-2="adminCtrl"><line style="stroke:#EC7211;stroke-width:3.125;" x1="600.351" x2="644.101" y1="525.9359" y2="525.9359"/><line style="stroke:#EC7211;stroke-width:3.125;" x1="644.101" x2="644.101" y1="525.9359" y2="539.4775"/><line style="stroke:#EC7211;stroke-width:3.125;" x1="601.3926" x2="644.101" y1="539.4775" y2="539.4775"/><polygon fill="#EC7211" points="611.8093,535.3109,601.3926,539.4775,611.8093,543.6442,607.6426,539.4775" style="stroke:#EC7211;stroke-width:1.0417;"/><text fill="#4E5D6C" font-family="'Verdana'" font-size="12.5" lengthAdjust="spacing" textLength="159.5093" x="612.851" y="500.828">V&#233;rification ROLE_ADMIN</text><text fill="#4E5D6C" font-family="'Verdana'" font-size="12.5" lengthAdjust="spacing" textLength="99.054" x="612.851" y="516.0197">et token sp&#233;cial</text></g><path d="M14.5833,555.1025 L86.025,555.1025 L86.025,572.3775 L75.6083,582.7942 L10.4167,582.7942 L10.4167,559.2692 A4.1667,4.1667 0 0 1 14.5833,555.1025" fill="#EEEEEE" style="stroke:#4E5D6C;stroke-width:1.5625;"/><rect fill="none" height="1313.1327" rx="4.1667" ry="4.1667" style="stroke:#4E5D6C;stroke-width:1.5625;" width="1153.2979" x="10.4167" y="555.1025"/><text fill="#0073BB" font-family="'Verdana'" font-size="12.5" font-weight="bold" lengthAdjust="spacing" textLength="18.3167" x="31.25" y="573.9197">alt</text><text fill="#4E5D6C" font-family="'Verdana'" font-size="12.5" font-weight="bold" lengthAdjust="spacing" textLength="161.3403" x="106.8583" y="574.9613">[Autorisations valides]</text><g class="message" data-participant-1="adminCtrl" data-participant-2="adminCtrl"><line style="stroke:#EC7211;stroke-width:3.125;" x1="600.351" x2="644.101" y1="624.6358" y2="624.6358"/><line style="stroke:#EC7211;stroke-width:3.125;" x1="644.101" x2="644.101" y1="624.6358" y2="638.1775"/><line style="stroke:#EC7211;stroke-width:3.125;" x1="601.3926" x2="644.101" y1="638.1775" y2="638.1775"/><polygon fill="#EC7211" points="611.8093,634.0108,601.3926,638.1775,611.8093,642.3442,607.6426,638.1775" style="stroke:#EC7211;stroke-width:1.0417;"/><text fill="#4E5D6C" font-family="'Verdana'" font-size="12.5" lengthAdjust="spacing" textLength="141.217" x="612.851" y="614.7196">D&#233;code donn&#233;es JSON</text></g><g class="message" data-participant-1="adminCtrl" data-participant-2="mediaRepo"><polygon fill="#EC7211" points="838.4715,674.2025,848.8881,678.3691,838.4715,682.5358,842.6381,678.3691" style="stroke:#EC7211;stroke-width:1.0417;"/><line style="stroke:#EC7211;stroke-width:3.125;" x1="600.351" x2="844.7215" y1="678.3691" y2="678.3691"/><text fill="#4E5D6C" font-family="'Verdana'" font-size="12.5" lengthAdjust="spacing" textLength="171.6675" x="612.851" y="668.453">findOneBy(['title' =&gt; title])</text></g><g class="message" data-participant-1="mediaRepo" data-participant-2="db"><polygon fill="#EC7211" points="1041.5934,729.5858,1052.0101,733.7524,1041.5934,737.9191,1045.7601,733.7524" style="stroke:#EC7211;stroke-width:1.0417;"/><line style="stroke:#EC7211;stroke-width:3.125;" x1="861.3881" x2="1047.8434" y1="733.7524" y2="733.7524"/><text fill="#4E5D6C" font-family="'Verdana'" font-size="12.5" lengthAdjust="spacing" textLength="149.9634" x="873.8881" y="708.6446">SELECT * FROM medias</text><text fill="#4E5D6C" font-family="'Verdana'" font-size="12.5" lengthAdjust="spacing" textLength="100.6409" x="873.8881" y="723.8363">WHERE title = ?</text></g><g class="message" data-participant-1="db" data-participant-2="mediaRepo"><polygon fill="#EC7211" points="872.8465,769.7774,862.4298,773.9441,872.8465,778.1108,868.6798,773.9441" style="stroke:#EC7211;stroke-width:1.0417;"/><line style="stroke:#EC7211;stroke-width:3.125;stroke-dasharray:2.0833,2.0833;" x1="866.5965" x2="1058.2601" y1="773.9441" y2="773.9441"/><text fill="#4E5D6C" font-family="'Verdana'" font-size="12.5" lengthAdjust="spacing" textLength="138.1226" x="884.3048" y="764.0279">Media existant ou null</text></g><g class="message" data-participant-1="mediaRepo" data-participant-2="adminCtrl"><polygon fill="#EC7211" points="611.8093,809.9691,601.3926,814.1357,611.8093,818.3024,607.6426,814.1357" style="stroke:#EC7211;stroke-width:1.0417;"/><line style="stroke:#EC7211;stroke-width:3.125;stroke-dasharray:2.0833,2.0833;" x1="605.5593" x2="855.1381" y1="814.1357" y2="814.1357"/><text fill="#4E5D6C" font-family="'Verdana'" font-size="12.5" lengthAdjust="spacing" textLength="124.1028" x="623.2676" y="804.2196">Media entity ou null</text></g><path d="M25,829.7607 L96.4417,829.7607 L96.4417,847.0357 L86.025,857.4524 L20.8333,857.4524 L20.8333,833.9274 A4.1667,4.1667 0 0 1 25,829.7607" fill="#EEEEEE" style="stroke:#4E5D6C;stroke-width:1.5625;"/><rect fill="none" height="892.7246" rx="4.1667" ry="4.1667" style="stroke:#4E5D6C;stroke-width:1.5625;" width="1132.4646" x="20.8333" y="829.7607"/><text fill="#0073BB" font-family="'Verdana'" font-size="12.5" font-weight="bold" lengthAdjust="spacing" textLength="18.3167" x="41.6667" y="848.5779">alt</text><text fill="#4E5D6C" font-family="'Verdana'" font-size="12.5" font-weight="bold" lengthAdjust="spacing" textLength="123.1018" x="117.275" y="849.6195">[Titre disponible]</text><g class="message" data-participant-1="adminCtrl" data-participant-2="adminCtrl"><line style="stroke:#EC7211;stroke-width:3.125;" x1="600.351" x2="644.101" y1="899.294" y2="899.294"/><line style="stroke:#EC7211;stroke-width:3.125;" x1="644.101" x2="644.101" y1="899.294" y2="912.8357"/><line style="stroke:#EC7211;stroke-width:3.125;" x1="601.3926" x2="644.101" y1="912.8357" y2="912.8357"/><polygon fill="#EC7211" points="611.8093,908.669,601.3926,912.8357,611.8093,917.0024,607.6426,912.8357" style="stroke:#EC7211;stroke-width:1.0417;"/><text fill="#4E5D6C" font-family="'Verdana'" font-size="12.5" lengthAdjust="spacing" textLength="84.552" x="612.851" y="889.3778">new Medias()</text></g><g class="message" data-participant-1="adminCtrl" data-participant-2="adminCtrl"><line style="stroke:#EC7211;stroke-width:3.125;" x1="600.351" x2="644.101" y1="953.0273" y2="953.0273"/><line style="stroke:#EC7211;stroke-width:3.125;" x1="644.101" x2="644.101" y1="953.0273" y2="966.569"/><line style="stroke:#EC7211;stroke-width:3.125;" x1="601.3926" x2="644.101" y1="966.569" y2="966.569"/><polygon fill="#EC7211" points="611.8093,962.4023,601.3926,966.569,611.8093,970.7357,607.6426,966.569" style="stroke:#EC7211;stroke-width:1.0417;"/><text fill="#4E5D6C" font-family="'Verdana'" font-size="12.5" lengthAdjust="spacing" textLength="127.124" x="612.851" y="943.1112">setTitle(data['title'])</text></g><g class="message" data-participant-1="adminCtrl" data-participant-2="adminCtrl"><line style="stroke:#EC7211;stroke-width:3.125;" x1="600.351" x2="644.101" y1="1006.7607" y2="1006.7607"/><line style="stroke:#EC7211;stroke-width:3.125;" x1="644.101" x2="644.101" y1="1006.7607" y2="1020.3023"/><line style="stroke:#EC7211;stroke-width:3.125;" x1="601.3926" x2="644.101" y1="1020.3023" y2="1020.3023"/><polygon fill="#EC7211" points="611.8093,1016.1357,601.3926,1020.3023,611.8093,1024.469,607.6426,1020.3023" style="stroke:#EC7211;stroke-width:1.0417;"/><text fill="#4E5D6C" font-family="'Verdana'" font-size="12.5" lengthAdjust="spacing" textLength="215.2039" x="612.851" y="996.8445">setDescription(data['description'])</text></g><g class="message" data-participant-1="adminCtrl" data-participant-2="adminCtrl"><line style="stroke:#EC7211;stroke-width:3.125;" x1="600.351" x2="644.101" y1="1060.494" y2="1060.494"/><line style="stroke:#EC7211;stroke-width:3.125;" x1="644.101" x2="644.101" y1="1060.494" y2="1074.0356"/><line style="stroke:#EC7211;stroke-width:3.125;" x1="601.3926" x2="644.101" y1="1074.0356" y2="1074.0356"/><polygon fill="#EC7211" points="611.8093,1069.869,601.3926,1074.0356,611.8093,1078.2023,607.6426,1074.0356" style="stroke:#EC7211;stroke-width:1.0417;"/><text fill="#4E5D6C" font-family="'Verdana'" font-size="12.5" lengthAdjust="spacing" textLength="133.9233" x="612.851" y="1050.5778">setType(data['type'])</text></g><g class="message" data-participant-1="adminCtrl" data-participant-2="adminCtrl"><line style="stroke:#EC7211;stroke-width:3.125;" x1="600.351" x2="644.101" y1="1114.2273" y2="1114.2273"/><line style="stroke:#EC7211;stroke-width:3.125;" x1="644.101" x2="644.101" y1="1114.2273" y2="1127.769"/><line style="stroke:#EC7211;stroke-width:3.125;" x1="601.3926" x2="644.101" y1="1127.769" y2="1127.769"/><polygon fill="#EC7211" points="611.8093,1123.6023,601.3926,1127.769,611.8093,1131.9356,607.6426,1127.769" style="stroke:#EC7211;stroke-width:1.0417;"/><text fill="#4E5D6C" font-family="'Verdana'" font-size="12.5" lengthAdjust="spacing" textLength="190.3503" x="612.851" y="1104.3111">setImageUrl(data['imageUrl'])</text></g><g class="message" data-participant-1="adminCtrl" data-participant-2="adminCtrl"><line style="stroke:#EC7211;stroke-width:3.125;" x1="600.351" x2="644.101" y1="1167.9606" y2="1167.9606"/><line style="stroke:#EC7211;stroke-width:3.125;" x1="644.101" x2="644.101" y1="1167.9606" y2="1181.5023"/><line style="stroke:#EC7211;stroke-width:3.125;" x1="601.3926" x2="644.101" y1="1181.5023" y2="1181.5023"/><polygon fill="#EC7211" points="611.8093,1177.3356,601.3926,1181.5023,611.8093,1185.6689,607.6426,1181.5023" style="stroke:#EC7211;stroke-width:1.0417;"/><text fill="#4E5D6C" font-family="'Verdana'" font-size="12.5" lengthAdjust="spacing" textLength="96.1792" x="612.851" y="1158.0444">setStatus(true)</text></g><g class="message" data-participant-1="adminCtrl" data-participant-2="adminCtrl"><line style="stroke:#EC7211;stroke-width:3.125;" x1="600.351" x2="644.101" y1="1221.6939" y2="1221.6939"/><line style="stroke:#EC7211;stroke-width:3.125;" x1="644.101" x2="644.101" y1="1221.6939" y2="1235.2356"/><line style="stroke:#EC7211;stroke-width:3.125;" x1="601.3926" x2="644.101" y1="1235.2356" y2="1235.2356"/><polygon fill="#EC7211" points="611.8093,1231.0689,601.3926,1235.2356,611.8093,1239.4023,607.6426,1235.2356" style="stroke:#EC7211;stroke-width:1.0417;"/><text fill="#4E5D6C" font-family="'Verdana'" font-size="12.5" lengthAdjust="spacing" textLength="73.6084" x="612.851" y="1211.7778">setScore(0)</text></g><g class="message" data-participant-1="adminCtrl" data-participant-2="mediaRepo"><polygon fill="#EC7211" points="843.6798,1271.2606,854.0965,1275.4272,843.6798,1279.5939,847.8465,1275.4272" style="stroke:#EC7211;stroke-width:1.0417;"/><line style="stroke:#EC7211;stroke-width:3.125;" x1="600.351" x2="849.9298" y1="1275.4272" y2="1275.4272"/><text fill="#4E5D6C" font-family="'Verdana'" font-size="12.5" lengthAdjust="spacing" textLength="91.6321" x="612.851" y="1265.5111">persist(media)</text></g><g class="message" data-participant-1="adminCtrl" data-participant-2="mediaRepo"><polygon fill="#EC7211" points="843.6798,1311.4522,854.0965,1315.6189,843.6798,1319.7856,847.8465,1315.6189" style="stroke:#EC7211;stroke-width:1.0417;"/><line style="stroke:#EC7211;stroke-width:3.125;" x1="600.351" x2="849.9298" y1="1315.6189" y2="1315.6189"/><text fill="#4E5D6C" font-family="'Verdana'" font-size="12.5" lengthAdjust="spacing" textLength="41.51" x="612.851" y="1305.7027">flush()</text></g><g class="message" data-participant-1="mediaRepo" data-participant-2="db"><polygon fill="#EC7211" points="1041.5934,1351.6439,1052.0101,1355.8105,1041.5934,1359.9772,1045.7601,1355.8105" style="stroke:#EC7211;stroke-width:1.0417;"/><line style="stroke:#EC7211;stroke-width:3.125;" x1="856.1798" x2="1047.8434" y1="1355.8105" y2="1355.8105"/><text fill="#4E5D6C" font-family="'Verdana'" font-size="12.5" lengthAdjust="spacing" textLength="146.8811" x="868.6798" y="1345.8944">INSERT INTO medias...</text></g><g class="message" data-participant-1="db" data-participant-2="mediaRepo"><polygon fill="#EC7211" points="867.6381,1391.8355,857.2215,1396.0022,867.6381,1400.1689,863.4715,1396.0022" style="stroke:#EC7211;stroke-width:1.0417;"/><line style="stroke:#EC7211;stroke-width:3.125;stroke-dasharray:2.0833,2.0833;" x1="861.3881" x2="1058.2601" y1="1396.0022" y2="1396.0022"/><text fill="#4E5D6C" font-family="'Verdana'" font-size="12.5" lengthAdjust="spacing" textLength="62.6587" x="879.0965" y="1386.086">ID g&#233;n&#233;r&#233;</text></g><g class="message" data-participant-1="adminCtrl" data-participant-2="frontend"><polygon fill="#EC7211" points="302.2878,1462.4105,291.8711,1466.5771,302.2878,1470.7438,298.1211,1466.5771" style="stroke:#EC7211;stroke-width:1.0417;"/><line style="stroke:#EC7211;stroke-width:3.125;stroke-dasharray:2.0833,2.0833;" x1="296.0378" x2="588.8926" y1="1466.5771" y2="1466.5771"/><text fill="#4E5D6C" font-family="'Verdana'" font-size="12.5" lengthAdjust="spacing" textLength="87.5854" x="313.7461" y="1426.2777">JsonResponse</text><text fill="#4E5D6C" font-family="'Verdana'" font-size="12.5" lengthAdjust="spacing" textLength="115.4785" x="313.7461" y="1441.4693">{status: 'success',</text><text fill="#4E5D6C" font-family="'Verdana'" font-size="12.5" lengthAdjust="spacing" textLength="147.9309" x="318.1407" y="1456.661">message: 'M&#233;dia cr&#233;&#233;'}</text></g><g class="message" data-participant-1="frontend" data-participant-2="frontend"><line style="stroke:#EC7211;stroke-width:3.125;" x1="290.8295" x2="334.5795" y1="1521.9604" y2="1521.9604"/><line style="stroke:#EC7211;stroke-width:3.125;" x1="334.5795" x2="334.5795" y1="1521.9604" y2="1535.5021"/><line style="stroke:#EC7211;stroke-width:3.125;" x1="291.8711" x2="334.5795" y1="1535.5021" y2="1535.5021"/><polygon fill="#EC7211" points="302.2878,1531.3354,291.8711,1535.5021,302.2878,1539.6688,298.1211,1535.5021" style="stroke:#EC7211;stroke-width:1.0417;"/><text fill="#4E5D6C" font-family="'Verdana'" font-size="12.5" lengthAdjust="spacing" textLength="99.4934" x="303.3295" y="1496.8526">Mise &#224; jour liste</text><text fill="#4E5D6C" font-family="'Verdana'" font-size="12.5" lengthAdjust="spacing" textLength="87.0361" x="303.3295" y="1512.0443">ou redirection</text></g><g class="message" data-participant-1="frontend" data-participant-2="admin"><polygon fill="#EC7211" points="97.6206,1571.5271,87.204,1575.6938,97.6206,1579.8604,93.454,1575.6938" style="stroke:#EC7211;stroke-width:1.0417;"/><line style="stroke:#EC7211;stroke-width:3.125;stroke-dasharray:2.0833,2.0833;" x1="91.3706" x2="289.7878" y1="1575.6938" y2="1575.6938"/><text fill="#4E5D6C" font-family="'Verdana'" font-size="12.5" lengthAdjust="spacing" textLength="135.9497" x="109.079" y="1565.7776">Confirmation cr&#233;ation</text></g><line style="stroke:#4E5D6C;stroke-width:1.0417;stroke-dasharray:2.0833,2.0833;" x1="20.8333" x2="1153.2979" y1="1585.0688" y2="1585.0688"/><text fill="#4E5D6C" font-family="'Verdana'" font-size="12.5" font-weight="bold" lengthAdjust="spacing" textLength="142.5537" x="31.25" y="1602.8442">[Titre d&#233;j&#224; existant]</text><g class="message" data-participant-1="adminCtrl" data-participant-2="frontend"><polygon fill="#EC7211" points="302.2878,1669.7937,291.8711,1673.9604,302.2878,1678.127,298.1211,1673.9604" style="stroke:#EC7211;stroke-width:1.0417;"/><line style="stroke:#EC7211;stroke-width:3.125;stroke-dasharray:2.0833,2.0833;" x1="296.0378" x2="588.8926" y1="1673.9604" y2="1673.9604"/><text fill="#4E5D6C" font-family="'Verdana'" font-size="12.5" lengthAdjust="spacing" textLength="87.5854" x="313.7461" y="1633.6609">JsonResponse</text><text fill="#4E5D6C" font-family="'Verdana'" font-size="12.5" lengthAdjust="spacing" textLength="98.5962" x="313.7461" y="1648.8525">{status: 'error',</text><text fill="#4E5D6C" font-family="'Verdana'" font-size="12.5" lengthAdjust="spacing" textLength="202.6855" x="318.1407" y="1664.0442">message: 'M&#233;dia d&#233;j&#224; existant'}</text></g><g class="message" data-participant-1="frontend" data-participant-2="admin"><polygon fill="#EC7211" points="97.6206,1709.9854,87.204,1714.152,97.6206,1718.3187,93.454,1714.152" style="stroke:#EC7211;stroke-width:1.0417;"/><line style="stroke:#EC7211;stroke-width:3.125;stroke-dasharray:2.0833,2.0833;" x1="91.3706" x2="289.7878" y1="1714.152" y2="1714.152"/><text fill="#4E5D6C" font-family="'Verdana'" font-size="12.5" lengthAdjust="spacing" textLength="124.1699" x="109.079" y="1704.2358">Erreur titre existant</text></g><line style="stroke:#4E5D6C;stroke-width:1.0417;stroke-dasharray:2.0833,2.0833;" x1="10.4167" x2="1163.7146" y1="1730.8187" y2="1730.8187"/><text fill="#4E5D6C" font-family="'Verdana'" font-size="12.5" font-weight="bold" lengthAdjust="spacing" textLength="174.5178" x="20.8333" y="1748.5942">[Autorisations invalides]</text><g class="message" data-participant-1="adminCtrl" data-participant-2="frontend"><polygon fill="#EC7211" points="302.2878,1815.5436,291.8711,1819.7103,302.2878,1823.877,298.1211,1819.7103" style="stroke:#EC7211;stroke-width:1.0417;"/><line style="stroke:#EC7211;stroke-width:3.125;stroke-dasharray:2.0833,2.0833;" x1="296.0378" x2="588.8926" y1="1819.7103" y2="1819.7103"/><text fill="#4E5D6C" font-family="'Verdana'" font-size="12.5" lengthAdjust="spacing" textLength="87.5854" x="313.7461" y="1779.4108">JsonResponse</text><text fill="#4E5D6C" font-family="'Verdana'" font-size="12.5" lengthAdjust="spacing" textLength="98.5962" x="313.7461" y="1794.6025">{status: 'error',</text><text fill="#4E5D6C" font-family="'Verdana'" font-size="12.5" lengthAdjust="spacing" textLength="165.2039" x="318.1407" y="1809.7941">message: 'Acc&#232;s interdit'}</text></g><g class="message" data-participant-1="frontend" data-participant-2="admin"><polygon fill="#EC7211" points="97.6206,1855.7353,87.204,1859.9019,97.6206,1864.0686,93.454,1859.9019" style="stroke:#EC7211;stroke-width:1.0417;"/><line style="stroke:#EC7211;stroke-width:3.125;stroke-dasharray:2.0833,2.0833;" x1="91.3706" x2="289.7878" y1="1859.9019" y2="1859.9019"/><text fill="#4E5D6C" font-family="'Verdana'" font-size="12.5" lengthAdjust="spacing" textLength="129.3701" x="109.079" y="1849.9858">Erreur d'autorisation</text></g><path d="M600,1884.9019 L600,2018.2353 A4.1667,4.1667 0 0 0 604.1667,2022.4019 L886.4583,2022.4019 A4.1667,4.1667 0 0 0 890.625,2018.2353 L890.625,1891.1519 L880.2083,1880.7353 L604.1667,1880.7353 A4.1667,4.1667 0 0 0 600,1884.9019" fill="#0073BB" style="stroke:#005C96;stroke-width:1.0417;"/><path d="M880.2083,1880.7353 L880.2083,1889.0686 A2.0833,2.0833 0 0 0 882.2917,1891.1519 L890.625,1891.1519 L880.2083,1880.7353" fill="#0073BB" style="stroke:#005C96;stroke-width:1.0417;"/><text fill="#FFFFFF" font-family="'Verdana'" font-size="12.5" lengthAdjust="spacing" textLength="209.0088" x="611.4583" y="1903.7191">Triple v&#233;rification d'autorisation :</text><text fill="#FFFFFF" font-family="'Verdana'" font-size="12.5" lengthAdjust="spacing" textLength="247.9614" x="611.4583" y="1918.9107">1. Token dans header X-ADMIN-TOKEN</text><text fill="#FFFFFF" font-family="'Verdana'" font-size="12.5" lengthAdjust="spacing" textLength="258.6853" x="611.4583" y="1934.1024">2. R&#244;le ROLE_ADMIN dans query params</text><text fill="#FFFFFF" font-family="'Verdana'" font-size="12.5" lengthAdjust="spacing" textLength="207.8491" x="611.4583" y="1949.294">3. Token sp&#233;cial d'administration</text><text fill="#FFFFFF" font-family="'Verdana'" font-size="12.5" lengthAdjust="spacing" textLength="4.3945" x="611.4583" y="1964.4857">&#160;</text><text fill="#FFFFFF" font-family="'Verdana'" font-size="12.5" lengthAdjust="spacing" textLength="239.3799" x="611.4583" y="1979.6773">Cette approche, bien que redondante,</text><text fill="#FFFFFF" font-family="'Verdana'" font-size="12.5" lengthAdjust="spacing" textLength="221.2402" x="611.4583" y="1994.869">assure une s&#233;curit&#233; maximale pour</text><text fill="#FFFFFF" font-family="'Verdana'" font-size="12.5" lengthAdjust="spacing" textLength="198.2544" x="611.4583" y="2010.0606">les op&#233;rations d'administration.</text><path d="M860.4167,2037.6851 L860.4167,2110.6018 A4.1667,4.1667 0 0 0 864.5833,2114.7685 L1061.4583,2114.7685 A4.1667,4.1667 0 0 0 1065.625,2110.6018 L1065.625,2043.9351 L1055.2083,2033.5185 L864.5833,2033.5185 A4.1667,4.1667 0 0 0 860.4167,2037.6851" fill="#0073BB" style="stroke:#005C96;stroke-width:1.0417;"/><path d="M1055.2083,2033.5185 L1055.2083,2041.8518 A2.0833,2.0833 0 0 0 1057.2917,2043.9351 L1065.625,2043.9351 L1055.2083,2033.5185" fill="#0073BB" style="stroke:#005C96;stroke-width:1.0417;"/><text fill="#FFFFFF" font-family="'Verdana'" font-size="12.5" lengthAdjust="spacing" textLength="155.5603" x="871.875" y="2056.5023">Le score est initialis&#233; &#224; 0</text><text fill="#FFFFFF" font-family="'Verdana'" font-size="12.5" lengthAdjust="spacing" textLength="160.8337" x="871.875" y="2071.6939">lors de la cr&#233;ation et sera</text><text fill="#FFFFFF" font-family="'Verdana'" font-size="12.5" lengthAdjust="spacing" textLength="173.0286" x="871.875" y="2086.8856">mis &#224; jour par les notations</text><text fill="#FFFFFF" font-family="'Verdana'" font-size="12.5" lengthAdjust="spacing" textLength="99.9634" x="871.875" y="2102.0772">des utilisateurs.</text><!--SRC=[dLRTSXet5BxdAKvz0suDJjixpoGTrv2fKsDIe3ypTQOZTW-WT96sajOnoUHTUbdk-mRxOlsaNM1t0xKd7eyDqldvpk-dBzoILqpYdUrg8zI2MqwwXAalnSA85QvYfac- -IjZ5J5rwSha6-6aLlvYc6zYAIWLXYxZbLIjbeYSDdGIladhZ72ScHCIbaGGWAYJaKo5SdJoqcZbMCLtgZDcQ9u6mNbvMfSD5gzmOtIISCNabJD9NNJ806N7d6ehWMOTP5V-q9_LPVl2YPcm30Z3zUIdcm92F4CatZXrN-pmq0LTHb7-3-BE_wOJdmWsb2bQXIoSj7Q2TQLVyesHSnaLMNFwJrO5Safq99AQsYuYwBqUJQPq7axE0_hpo33oUQU-eYMBc8sbtxgN_U7rRNSw-d5mwozG9xFs1H4hIntaYiyAbwV-TgRZDNq85Jv3_MnaPEfHGMQTuaYkn89_Did7K4Xv3s-L9BVQrDVP3DrnNmifReiCUPOsV6tjOsW49ErbvfOGVCznnp2WMWTOTMErY8xR6ZoWjwAWKGqPPQp6V5o_NfJnw6RmH_1xfzYLDR9fleaa2jGIYQFBIeYMxaKYaRyMuUUeZpxqDRebragXLoozcenkWqhuqsw0o1IwqkKRYZD2YGn_QdtNnB0-boeUAVv-tVcz7IhQfkSlA7nwSrgeRakuxtr_l3S2Y_4CfYQ3cy7LbBwab-FHiBX79d_zOJ0U50RfENrNDua9yT-XtctW2jD7_83fznEcCr9PaXJItDIlO6aahpIZu7zzp4WzhW8WIZNroQDOsbGhYNOD5qN6AzihA-TsTtkqZehV5N1iv_HnQSjkwdFMYR5QjgLvypJ5_duaI_NAa3xLo1IZl7MEZqzLkovdlrJTheAdga-SS9djE9Fn4nKYRRZpR2zSATD4PFUy42RcmwQg_PPY3wBNEk7iz77vUPBPPQMGdux3zUraC9xYttHK3aElrziRRhJmaJ6uxjCYts3kqN5xEJwaVGXpdK9UMQt6xFlPCzK76t9zGMsRHH5Rspwx0mlX0qg6qvAL8tZED-sFE_D7-6aeRM2qjpepb22LS861CmZ6S5Yn1oniwmbzaF9ScbKnLj5smEhHSG8VvLpccxVmjbqGdnyy6wFDuT0RFWxce1B1m1YyKegbMmVcdo4XY110dGEaEi82dmy_l2-yPSScbblS_uUvmRqURwlIPHNoLXhVZLmiiPFdbGkYAHRC8wHE5v3xkaVJm8onGFZ54wJ1rqJVz6YS_mjpUqujvAiq3RbljyQsDEizxb-DHGVXzugTZoDDZOwM8FQPv43vlZ-rWcN7Pn0JrcOeNgQOBEnb9Z3fIZnWZm5CYjw6L08Irl1doX8sNVPy0ibdgfclAjNSm8TVNeJt2seb7T1BUFL3zCnxqNYPWVSJiHy7mhF2il5iiv9sDsx-vUn1mLa1gUMNXANCoSId7YMs5L3_0G00]--></g></svg>